Italic_opsz8.ufo
<glyph name="comma" format="2">
  <advance width="295"/>
  <unicode hex="002C"/>
  <outline>
    <contour>
      <point x="92" y="56" type="curve" smooth="yes"/>
      <point x="92" y="28"/>
      <point x="111" y="0"/>
      <point x="148" y="0" type="curve" smooth="yes"/>
      <point x="172" y="0"/>
      <point x="187" y="14"/>
      <point x="187" y="15" type="curve"/>
      <point x="187.0" y="15.0"/>
      <point x="187.0" y="15.0"/>
      <point x="187" y="15" type="curve"/>
      <point x="187.0" y="15.0"/>
      <point x="187.0" y="15.0"/>
      <point x="187" y="15" type="curve"/>
      <point x="187" y="-50"/>
      <point x="173" y="-107"/>
      <point x="111" y="-169" type="curve"/>
      <point x="107" y="-172"/>
      <point x="105" y="-174"/>
      <point x="105" y="-179" type="curve" smooth="yes"/>
      <point x="105" y="-187"/>
      <point x="113" y="-193"/>
      <point x="120" y="-193" type="curve" smooth="yes"/>
      <point x="132" y="-193"/>
      <point x="215" y="-114"/>
      <point x="215" y="3" type="curve" smooth="yes"/>
      <point x="215" y="67"/>
      <point x="191" y="111"/>
      <point x="147" y="111" type="curve" smooth="yes"/>
      <point x="112" y="111"/>
      <point x="92" y="83"/>
    </contour>
  </outline>
</glyph>
<glyph name="slash" format="2">
  <advance width="531"/>
  <unicode hex="002F"/>
  <outline>
    <contour>
      <point x="465" y="708" type="line" smooth="yes"/>
      <point x="471" y="722"/>
      <point x="471" y="724"/>
      <point x="471" y="727" type="curve" smooth="yes"/>
      <point x="471" y="740"/>
      <point x="461" y="750"/>
      <point x="448" y="750" type="curve" smooth="yes"/>
      <point x="432" y="750"/>
      <point x="428" y="738"/>
      <point x="424" y="728" type="curve" smooth="yes"/>
      <point x="65" y="-208" type="line" smooth="yes"/>
      <point x="59" y="-222"/>
      <point x="59" y="-224"/>
      <point x="59" y="-227" type="curve" smooth="yes"/>
      <point x="59" y="-240"/>
      <point x="69" y="-250"/>
      <point x="82" y="-250" type="curve" smooth="yes"/>
      <point x="98" y="-250"/>
      <point x="102" y="-238"/>
      <point x="106" y="-228" type="curve" smooth="yes"/>
    </contour>
  </outline>
</glyph>
<glyph name="one" format="2">
  <advance width="531"/>
  <unicode hex="0031"/>
  <outline>
    <contour>
      <point x="237" y="389" type="curve"/>
      <point x="237" y="82" type="line" smooth="yes"/>
      <point x="237.0" y="49.81705"/>
      <point x="237.0" y="37.9669345825"/>
      <point x="192.02108966622413" y="34.358548819065625" type="curve" smooth="yes"/>
      <point x="179.6983752675" y="33.36997202"/>
      <point x="163.99965" y="33.0"/>
      <point x="144" y="33" type="curve" smooth="yes"/>
      <point x="113" y="33"/>
      <point x="104" y="33"/>
      <point x="104" y="16" type="curve" smooth="yes"/>
      <point x="104" y="0"/>
      <point x="119" y="0"/>
      <point x="123" y="0" type="curve" smooth="yes"/>
      <point x="159" y="0"/>
      <point x="197" y="3"/>
      <point x="234" y="3" type="curve" smooth="yes"/>
      <point x="260" y="3"/>
      <point x="286" y="3"/>
      <point x="312" y="3" type="curve" smooth="yes"/>
      <point x="338" y="3"/>
      <point x="403" y="0"/>
      <point x="429" y="0" type="curve" smooth="yes"/>
      <point x="433" y="0"/>
      <point x="448" y="0"/>
      <point x="448" y="16" type="curve" smooth="yes"/>
      <point x="448" y="33"/>
      <point x="438" y="33"/>
      <point x="413" y="33" type="curve" smooth="yes"/>
      <point x="390" y="33"/>
      <point x="363" y="33"/>
      <point x="340" y="37" type="curve" smooth="yes"/>
      <point x="318" y="41"/>
      <point x="315" y="49"/>
      <point x="315" y="82" type="curve" smooth="yes"/>
      <point x="315" y="422" type="line" smooth="yes"/>
      <point x="315" y="439"/>
      <point x="315" y="452"/>
      <point x="301" y="452" type="curve" smooth="yes"/>
      <point x="298" y="452"/>
      <point x="296" y="451"/>
      <point x="288" y="446" type="curve" smooth="yes"/>
      <point x="267" y="433"/>
      <point x="225" y="410"/>
      <point x="131" y="409" type="curve" smooth="yes"/>
      <point x="108" y="409"/>
      <point x="99" y="409"/>
      <point x="99" y="392" type="curve" smooth="yes"/>
      <point x="99" y="376"/>
      <point x="109" y="376"/>
      <point x="129" y="376" type="curve" smooth="yes"/>
      <point x="163" y="376"/>
      <point x="206" y="381"/>
    </contour>
  </outline>
</glyph>
<glyph name="three" format="2">
  <advance width="531"/>
  <unicode hex="0033"/>
  <outline>
    <contour>
      <point x="261" y="-215" type="curve" smooth="yes"/>
      <point x="391" y="-215"/>
      <point x="486" y="-127"/>
      <point x="486" y="-28" type="curve" smooth="yes"/>
      <point x="486" y="46"/>
      <point x="428" y="123"/>
      <point x="320" y="147" type="curve"/>
      <point x="422" y="185"/>
      <point x="456" y="261"/>
      <point x="456" y="318" type="curve" smooth="yes"/>
      <point x="456" y="396"/>
      <point x="367" y="452"/>
      <point x="262" y="452" type="curve" smooth="yes"/>
      <point x="157" y="452"/>
      <point x="74" y="398"/>
      <point x="74" y="321" type="curve" smooth="yes"/>
      <point x="74" y="278"/>
      <point x="109" y="269"/>
      <point x="124" y="269" type="curve" smooth="yes"/>
      <point x="143" y="269"/>
      <point x="173" y="284"/>
      <point x="173" y="319" type="curve" smooth="yes"/>
      <point x="173" y="351"/>
      <point x="148" y="369"/>
      <point x="121" y="369" type="curve"/>
      <point x="154" y="415"/>
      <point x="225" y="426"/>
      <point x="259" y="426" type="curve" smooth="yes"/>
      <point x="305" y="426"/>
      <point x="364" y="403"/>
      <point x="364" y="318" type="curve" smooth="yes"/>
      <point x="364" y="288"/>
      <point x="356" y="234"/>
      <point x="322" y="197" type="curve" smooth="yes"/>
      <point x="291" y="164"/>
      <point x="269" y="163"/>
      <point x="224" y="160" type="curve" smooth="yes"/>
      <point x="194" y="158"/>
      <point x="191" y="157"/>
      <point x="187" y="157" type="curve"/>
      <point x="182" y="156"/>
      <point x="177" y="150"/>
      <point x="177" y="143" type="curve" smooth="yes"/>
      <point x="177" y="129"/>
      <point x="186" y="129"/>
      <point x="206" y="129" type="curve" smooth="yes"/>
      <point x="251" y="129" type="line" smooth="yes"/>
      <point x="349" y="129"/>
      <point x="385" y="55"/>
      <point x="385" y="-28" type="curve" smooth="yes"/>
      <point x="385" y="-146"/>
      <point x="317" y="-185"/>
      <point x="259" y="-185" type="curve" smooth="yes"/>
      <point x="248" y="-185"/>
      <point x="141" y="-185"/>
      <point x="92" y="-112" type="curve"/>
      <point x="144" y="-112"/>
      <point x="150" y="-75"/>
      <point x="150" y="-59" type="curve" smooth="yes"/>
      <point x="150" y="-25"/>
      <point x="122" y="-6"/>
      <point x="97" y="-6" type="curve" smooth="yes"/>
      <point x="83" y="-6"/>
      <point x="44" y="-15"/>
      <point x="44" y="-62" type="curve" smooth="yes"/>
      <point x="44" y="-154"/>
      <point x="145" y="-215"/>
    </contour>
  </outline>
</glyph>
<glyph name="greater" format="2">
  <advance width="826"/>
  <unicode hex="003E"/>
  <outline>
    <contour>
      <point x="716" y="225" type="line" smooth="yes"/>
      <point x="728" y="231"/>
      <point x="737" y="237"/>
      <point x="737" y="250" type="curve" smooth="yes"/>
      <point x="737" y="263"/>
      <point x="728" y="269"/>
      <point x="716" y="275" type="curve" smooth="yes"/>
      <point x="129" y="557" type="line" smooth="yes"/>
      <point x="116" y="564"/>
      <point x="114" y="564"/>
      <point x="111" y="564" type="curve" smooth="yes"/>
      <point x="98" y="564"/>
      <point x="88" y="554"/>
      <point x="88" y="541" type="curve" smooth="yes"/>
      <point x="88" y="528"/>
      <point x="97" y="522"/>
      <point x="109" y="516" type="curve" smooth="yes"/>
      <point x="661" y="250" type="line"/>
      <point x="109" y="-16" type="line" smooth="yes"/>
      <point x="97" y="-22"/>
      <point x="88" y="-28"/>
      <point x="88" y="-41" type="curve" smooth="yes"/>
      <point x="88" y="-54"/>
      <point x="98" y="-64"/>
      <point x="111" y="-64" type="curve" smooth="yes"/>
      <point x="114" y="-64"/>
      <point x="116" y="-64"/>
      <point x="129" y="-57" type="curve" smooth="yes"/>
    </contour>
  </outline>
</glyph>
<glyph name="A" format="2">
  <advance width="795"/>
  <unicode hex="0041"/>
  <outline>
    <contour>
      <point x="564" y="231" type="line"/>
      <point x="575" y="146" type="line"/>
      <point x="585" y="62" type="line"/>
      <point x="585" y="48"/>
      <point x="567" y="33"/>
      <point x="520" y="33" type="curve" smooth="yes"/>
      <point x="505" y="33"/>
      <point x="492" y="33"/>
      <point x="492" y="14" type="curve" smooth="yes"/>
      <point x="492" y="13"/>
      <point x="493" y="0"/>
      <point x="509" y="0" type="curve" smooth="yes"/>
      <point x="519" y="0"/>
      <point x="557" y="3"/>
      <point x="629" y="3" type="curve" smooth="yes"/>
      <point x="719" y="3"/>
      <point x="736" y="0"/>
      <point x="744" y="0" type="curve" smooth="yes"/>
      <point x="748" y="0"/>
      <point x="764" y="0"/>
      <point x="764" y="19" type="curve" smooth="yes"/>
      <point x="764" y="33"/>
      <point x="751" y="33"/>
      <point x="735" y="33" type="curve" smooth="yes"/>
      <point x="680" y="33"/>
      <point x="679" y="42"/>
      <point x="676" y="67" type="curve" smooth="yes"/>
      <point x="597" y="685" type="line" smooth="yes"/>
      <point x="594" y="707"/>
      <point x="593" y="714"/>
      <point x="576" y="714" type="curve" smooth="yes"/>
      <point x="558" y="714"/>
      <point x="552" y="704"/>
      <point x="546" y="694" type="curve" smooth="yes"/>
      <point x="185" y="119" type="line" smooth="yes"/>
      <point x="139" y="46"/>
      <point x="98" y="36"/>
      <point x="62" y="33" type="curve" smooth="yes"/>
      <point x="52" y="32"/>
      <point x="40" y="31"/>
      <point x="40" y="14" type="curve" smooth="yes"/>
      <point x="40" y="11"/>
      <point x="42" y="0"/>
      <point x="54" y="0" type="curve" smooth="yes"/>
      <point x="63" y="0"/>
      <point x="69" y="3"/>
      <point x="139" y="3" type="curve" smooth="yes"/>
      <point x="207" y="3"/>
      <point x="230" y="0"/>
      <point x="235" y="0" type="curve" smooth="yes"/>
      <point x="240" y="0"/>
      <point x="255" y="0"/>
      <point x="255" y="19" type="curve" smooth="yes"/>
      <point x="255" y="32"/>
      <point x="242" y="33"/>
      <point x="237" y="33" type="curve" smooth="yes"/>
      <point x="216" y="34"/>
      <point x="195" y="42"/>
      <point x="195" y="64" type="curve" smooth="yes"/>
      <point x="195" y="79"/>
      <point x="203" y="92"/>
      <point x="222" y="121" type="curve" smooth="yes"/>
      <point x="290" y="231" type="line"/>
      <point x="290" y="231" type="line"/>
    </contour>
    <contour>
      <point x="311" y="264" type="line"/>
      <point x="518" y="593" type="line"/>
      <point x="560" y="264" type="line"/>
    </contour>
  </outline>
</glyph>
<glyph name="B" format="2">
  <advance width="801"/>
  <unicode hex="0042"/>
  <outline>
    <contour>
      <point x="169" y="79" type="line" smooth="yes"/>
      <point x="160" y="41"/>
      <point x="158" y="33"/>
      <point x="84" y="33" type="curve" smooth="yes"/>
      <point x="65" y="33"/>
      <point x="53" y="33"/>
      <point x="53" y="14" type="curve" smooth="yes"/>
      <point x="53" y="0"/>
      <point x="66" y="0"/>
      <point x="83" y="0" type="curve" smooth="yes"/>
      <point x="454" y="0" type="line" smooth="yes"/>
      <point x="619" y="0"/>
      <point x="742" y="117"/>
      <point x="742" y="214" type="curve" smooth="yes"/>
      <point x="742" y="287"/>
      <point x="679" y="346"/>
      <point x="579" y="357" type="curve"/>
      <point x="695" y="379"/>
      <point x="795" y="455"/>
      <point x="795" y="543" type="curve" smooth="yes"/>
      <point x="795" y="618"/>
      <point x="722" y="683"/>
      <point x="596" y="683" type="curve" smooth="yes"/>
      <point x="247" y="683" type="line" smooth="yes"/>
      <point x="229" y="683"/>
      <point x="216" y="683"/>
      <point x="216" y="664" type="curve" smooth="yes"/>
      <point x="216" y="650"/>
      <point x="228" y="650"/>
      <point x="245" y="650" type="curve" smooth="yes"/>
      <point x="278" y="650"/>
      <point x="307" y="650"/>
      <point x="307" y="634" type="curve" smooth="yes"/>
      <point x="307" y="630"/>
      <point x="306" y="629"/>
      <point x="303" y="616" type="curve" smooth="yes"/>
    </contour>
    <contour>
      <point x="325" y="369" type="line"/>
      <point x="386" y="613" type="line" smooth="yes"/>
      <point x="395" y="647"/>
      <point x="396" y="650"/>
      <point x="437" y="650" type="curve" smooth="yes"/>
      <point x="581" y="650" type="line" smooth="yes"/>
      <point x="679" y="650"/>
      <point x="701" y="586"/>
      <point x="701" y="545" type="curve" smooth="yes"/>
      <point x="701" y="460"/>
      <point x="610" y="369"/>
      <point x="482" y="369" type="curve" smooth="yes"/>
    </contour>
    <contour>
      <point x="256" y="33" type="line"/>
      <point x="247" y="35"/>
      <point x="244" y="35"/>
      <point x="244" y="42" type="curve" smooth="yes"/>
      <point x="244" y="50"/>
      <point x="246" y="58"/>
      <point x="248" y="64" type="curve"/>
      <point x="318" y="341" type="line"/>
      <point x="521" y="341" type="line" smooth="yes"/>
      <point x="614" y="341"/>
      <point x="645" y="278"/>
      <point x="645" y="222" type="curve" smooth="yes"/>
      <point x="645" y="124"/>
      <point x="549" y="33"/>
      <point x="429" y="33" type="curve" smooth="yes"/>
    </contour>
  </outline>
</glyph>
<glyph name="C" format="2">
  <advance width="757"/>
  <unicode hex="0043"/>
  <outline>
    <contour>
      <point x="53" y="259" type="curve" smooth="yes"/>
      <point x="53" y="85"/>
      <point x="185" y="-21"/>
      <point x="344" y="-21" type="curve" smooth="yes"/>
      <point x="441.36444" y="-21.0"/>
      <point x="527" y="23"/>
      <point x="587.7578877486837" y="77.91062654789366" type="curve" smooth="yes"/>
      <point x="665" y="147"/>
      <point x="686" y="233"/>
      <point x="686" y="240" type="curve" smooth="yes"/>
      <point x="686" y="249"/>
      <point x="680" y="253"/>
      <point x="671" y="253" type="curve" smooth="yes"/>
      <point x="659" y="253"/>
      <point x="657" y="248"/>
      <point x="654" y="237" type="curve" smooth="yes"/>
      <point x="637.73718" y="183.56502"/>
      <point x="607.5307226786999" y="137.7765507891"/>
      <point x="569.650568973471" y="101.72457267975697" type="curve" smooth="yes"/>
      <point x="509.7022737615" y="44.6695078167"/>
      <point x="430.5348" y="12.0"/>
      <point x="357" y="12" type="curve" smooth="yes"/>
      <point x="255" y="12"/>
      <point x="148" y="72"/>
      <point x="148" y="225" type="curve" smooth="yes"/>
      <point x="148" y="257"/>
      <point x="159" y="424"/>
      <point x="270" y="549" type="curve" smooth="yes"/>
      <point x="345" y="633"/>
      <point x="447" y="671"/>
      <point x="526" y="671" type="curve" smooth="yes"/>
      <point x="652" y="671"/>
      <point x="704" y="570"/>
      <point x="704" y="475" type="curve" smooth="yes"/>
      <point x="704" y="461"/>
      <point x="700" y="442"/>
      <point x="700" y="430" type="curve" smooth="yes"/>
      <point x="700" y="417"/>
      <point x="713" y="417"/>
      <point x="717" y="417" type="curve" smooth="yes"/>
      <point x="730" y="417"/>
      <point x="732" y="421"/>
      <point x="736" y="439" type="curve" smooth="yes"/>
      <point x="796" y="677" type="line" smooth="yes"/>
      <point x="797" y="681"/>
      <point x="799" y="687"/>
      <point x="799" y="692" type="curve" smooth="yes"/>
      <point x="799" y="699"/>
      <point x="793" y="704"/>
      <point x="786" y="704" type="curve" smooth="yes"/>
      <point x="779" y="704"/>
      <point x="776" y="701"/>
      <point x="768" y="692" type="curve" smooth="yes"/>
      <point x="698" y="615" type="line"/>
      <point x="698.0" y="615.0"/>
      <point x="698.0" y="615.0"/>
      <point x="698" y="615" type="curve"/>
      <point x="698.0" y="615.0"/>
      <point x="698.0" y="615.0"/>
      <point x="698" y="615" type="curve"/>
      <point x="689" y="628"/>
      <point x="636" y="704"/>
      <point x="519" y="704" type="curve" smooth="yes"/>
      <point x="287" y="704"/>
      <point x="53" y="489"/>
    </contour>
  </outline>
</glyph>
<glyph name="E" format="2">
  <advance width="778"/>
  <unicode hex="0045"/>
  <outline>
    <contour>
      <point x="749" y="232" type="line" smooth="yes"/>
      <point x="751" y="236"/>
      <point x="753" y="242"/>
      <point x="753" y="246" type="curve" smooth="yes"/>
      <point x="753" y="248"/>
      <point x="752" y="260"/>
      <point x="738" y="260" type="curve" smooth="yes"/>
      <point x="727" y="260"/>
      <point x="726" y="257"/>
      <point x="716" y="235" type="curve" smooth="yes"/>
      <point x="652" y="89"/>
      <point x="605" y="33"/>
      <point x="442" y="33" type="curve" smooth="yes"/>
      <point x="260" y="33" type="line"/>
      <point x="251" y="35"/>
      <point x="248" y="35"/>
      <point x="248" y="42" type="curve" smooth="yes"/>
      <point x="248" y="50"/>
      <point x="250" y="58"/>
      <point x="252" y="64" type="curve"/>
      <point x="321" y="337" type="line"/>
      <point x="428" y="337" type="line" smooth="yes"/>
      <point x="501" y="337"/>
      <point x="516" y="325"/>
      <point x="516" y="293" type="curve" smooth="yes"/>
      <point x="516" y="292"/>
      <point x="516" y="276"/>
      <point x="509" y="248" type="curve"/>
      <point x="507" y="243"/>
      <point x="506" y="237"/>
      <point x="506" y="234" type="curve" smooth="yes"/>
      <point x="506" y="233"/>
      <point x="507" y="220"/>
      <point x="521" y="220" type="curve" smooth="yes"/>
      <point x="533" y="220"/>
      <point x="535" y="226"/>
      <point x="539" y="243" type="curve" smooth="yes"/>
      <point x="592" y="452" type="line"/>
      <point x="593" y="455"/>
      <point x="596" y="470"/>
      <point x="596" y="472" type="curve" smooth="yes"/>
      <point x="596" y="482"/>
      <point x="588" y="487"/>
      <point x="581" y="487" type="curve" smooth="yes"/>
      <point x="568" y="487"/>
      <point x="567" y="480"/>
      <point x="562" y="463" type="curve" smooth="yes"/>
      <point x="542" y="385"/>
      <point x="515" y="370"/>
      <point x="429" y="370" type="curve" smooth="yes"/>
      <point x="329" y="370" type="line"/>
      <point x="389" y="609" type="line" smooth="yes"/>
      <point x="398" y="645"/>
      <point x="399" y="647"/>
      <point x="440" y="647" type="curve" smooth="yes"/>
      <point x="596" y="647" type="line" smooth="yes"/>
      <point x="716" y="647"/>
      <point x="754" y="623"/>
      <point x="754" y="535" type="curve" smooth="yes"/>
      <point x="754" y="514"/>
      <point x="749" y="489"/>
      <point x="749" y="470" type="curve" smooth="yes"/>
      <point x="749" y="458"/>
      <point x="756" y="453"/>
      <point x="764" y="453" type="curve" smooth="yes"/>
      <point x="778" y="453"/>
      <point x="779" y="462"/>
      <point x="781" y="479" type="curve" smooth="yes"/>
      <point x="799" y="649" type="line"/>
      <point x="800" y="654"/>
      <point x="800" y="661"/>
      <point x="800" y="666" type="curve" smooth="yes"/>
      <point x="800" y="680"/>
      <point x="788" y="680"/>
      <point x="770" y="680" type="curve" smooth="yes"/>
      <point x="243" y="680" type="line" smooth="yes"/>
      <point x="224" y="680"/>
      <point x="212" y="680"/>
      <point x="212" y="661" type="curve" smooth="yes"/>
      <point x="212" y="647"/>
      <point x="225" y="647"/>
      <point x="242" y="647" type="curve" smooth="yes"/>
      <point x="245" y="647"/>
      <point x="263" y="647"/>
      <point x="280" y="645" type="curve" smooth="yes"/>
      <point x="301" y="643"/>
      <point x="303" y="640"/>
      <point x="303" y="631" type="curve" smooth="yes"/>
      <point x="303" y="626"/>
      <point x="301" y="620"/>
      <point x="300" y="615" type="curve" smooth="yes"/>
      <point x="166" y="79" type="line" smooth="yes"/>
      <point x="157" y="41"/>
      <point x="155" y="33"/>
      <point x="81" y="33" type="curve" smooth="yes"/>
      <point x="62" y="33"/>
      <point x="50" y="33"/>
      <point x="50" y="14" type="curve" smooth="yes"/>
      <point x="50" y="0"/>
      <point x="63" y="0"/>
      <point x="80" y="0" type="curve" smooth="yes"/>
      <point x="621" y="0" type="line" smooth="yes"/>
      <point x="646" y="0"/>
      <point x="647" y="0"/>
      <point x="655" y="18" type="curve" smooth="yes"/>
    </contour>
  </outline>
</glyph>
<glyph name="G" format="2">
  <advance width="827"/>
  <unicode hex="0047"/>
  <outline>
    <contour>
      <point x="53" y="259" type="curve" smooth="yes"/>
      <point x="53" y="92"/>
      <point x="177" y="-21"/>
      <point x="347" y="-21" type="curve" smooth="yes"/>
      <point x="455" y="-21"/>
      <point x="535" y="18"/>
      <point x="572" y="61" type="curve"/>
      <point x="584" y="29"/>
      <point x="608" y="1"/>
      <point x="618" y="1" type="curve" smooth="yes"/>
      <point x="622" y="1"/>
      <point x="627" y="3"/>
      <point x="629" y="7" type="curve"/>
      <point x="643" y="50"/>
      <point x="678" y="218"/>
      <point x="688" y="230" type="curve" smooth="yes"/>
      <point x="698" y="242"/>
      <point x="716" y="243"/>
      <point x="746" y="243" type="curve" smooth="yes"/>
      <point x="751" y="243"/>
      <point x="766" y="243"/>
      <point x="766" y="261" type="curve" smooth="yes"/>
      <point x="766" y="271"/>
      <point x="759" y="276"/>
      <point x="751" y="276" type="curve" smooth="yes"/>
      <point x="744" y="276"/>
      <point x="732" y="273"/>
      <point x="679" y="273" type="curve" smooth="yes"/>
      <point x="640" y="273"/>
      <point x="576" y="273"/>
      <point x="561" y="274" type="curve" smooth="yes"/>
      <point x="546" y="275"/>
      <point x="506" y="276"/>
      <point x="491" y="276" type="curve" smooth="yes"/>
      <point x="485" y="276"/>
      <point x="470" y="276"/>
      <point x="470" y="257" type="curve" smooth="yes"/>
      <point x="470" y="243"/>
      <point x="481" y="243"/>
      <point x="507" y="243" type="curve" smooth="yes"/>
      <point x="528" y="243"/>
      <point x="548" y="242"/>
      <point x="571" y="239" type="curve" smooth="yes"/>
      <point x="589" y="237"/>
      <point x="592" y="234"/>
      <point x="592" y="223" type="curve" smooth="yes"/>
      <point x="592" y="215"/>
      <point x="568.0" y="119.0"/>
      <point x="562" y="104" type="curve"/>
      <point x="546.808" y="72.19175"/>
      <point x="516.9658084375" y="49.849777625"/>
      <point x="482.4246806251094" y="35.15503620495312" type="curve" smooth="yes"/>
      <point x="444.20935175" y="18.897189062499994"/>
      <point x="400.24225" y="11.999999999999993"/>
      <point x="364" y="12" type="curve" smooth="yes"/>
      <point x="265" y="12"/>
      <point x="149" y="64"/>
      <point x="149" y="227" type="curve" smooth="yes"/>
      <point x="149" y="310"/>
      <point x="183" y="454"/>
      <point x="271" y="550" type="curve" smooth="yes"/>
      <point x="367" y="654"/>
      <point x="475" y="671"/>
      <point x="527" y="671" type="curve" smooth="yes"/>
      <point x="649" y="671"/>
      <point x="705" y="575"/>
      <point x="705" y="474" type="curve" smooth="yes"/>
      <point x="705" y="460"/>
      <point x="701" y="442"/>
      <point x="701" y="430" type="curve" smooth="yes"/>
      <point x="701" y="417"/>
      <point x="714" y="417"/>
      <point x="718" y="417" type="curve" smooth="yes"/>
      <point x="731" y="417"/>
      <point x="732" y="421"/>
      <point x="737" y="439" type="curve" smooth="yes"/>
      <point x="799" y="684" type="line" smooth="yes"/>
      <point x="802" y="695"/>
      <point x="799.0" y="704.0"/>
      <point x="787" y="704" type="curve" smooth="yes"/>
      <point x="780" y="704"/>
      <point x="777" y="701"/>
      <point x="769" y="692" type="curve" smooth="yes"/>
      <point x="699" y="615" type="line"/>
      <point x="699" y="615" type="line"/>
      <point x="653" y="679"/>
      <point x="588" y="704"/>
      <point x="520" y="704" type="curve" smooth="yes"/>
      <point x="286" y="704"/>
      <point x="53" y="488"/>
    </contour>
  </outline>
</glyph>
<glyph name="H" format="2">
  <advance width="872"/>
  <unicode hex="0048"/>
  <outline>
    <contour>
      <point x="321" y="339" type="line"/>
      <point x="643" y="339" type="line"/>
      <point x="614" y="221"/>
      <point x="580" y="87"/>
      <point x="574" y="65" type="curve" smooth="yes"/>
      <point x="565" y="32"/>
      <point x="542" y="34"/>
      <point x="487" y="33" type="curve" smooth="yes"/>
      <point x="475" y="33"/>
      <point x="462" y="33"/>
      <point x="462" y="14" type="curve" smooth="yes"/>
      <point x="462" y="10"/>
      <point x="465" y="0"/>
      <point x="478" y="0" type="curve" smooth="yes"/>
      <point x="497" y="0"/>
      <point x="521" y="3"/>
      <point x="573" y="3" type="curve" smooth="yes"/>
      <point x="642" y="3" type="line" smooth="yes"/>
      <point x="700" y="3"/>
      <point x="726" y="0"/>
      <point x="733" y="0" type="curve" smooth="yes"/>
      <point x="739" y="0"/>
      <point x="753" y="0"/>
      <point x="753" y="19" type="curve" smooth="yes"/>
      <point x="753" y="33"/>
      <point x="740" y="33"/>
      <point x="723" y="33" type="curve" smooth="yes"/>
      <point x="720" y="33"/>
      <point x="702" y="33"/>
      <point x="685" y="35" type="curve" smooth="yes"/>
      <point x="664" y="37"/>
      <point x="662" y="40"/>
      <point x="662" y="49" type="curve" smooth="yes"/>
      <point x="662" y="54"/>
      <point x="664" y="60"/>
      <point x="665" y="65" type="curve" smooth="yes"/>
      <point x="799" y="602" type="line" smooth="yes"/>
      <point x="809" y="641"/>
      <point x="811" y="650"/>
      <point x="881" y="650" type="curve" smooth="yes"/>
      <point x="904" y="650"/>
      <point x="916" y="650"/>
      <point x="916" y="669" type="curve" smooth="yes"/>
      <point x="916" y="670"/>
      <point x="915" y="683"/>
      <point x="899" y="683" type="curve" smooth="yes"/>
      <point x="880" y="683"/>
      <point x="856" y="680"/>
      <point x="807" y="680" type="curve" smooth="yes"/>
      <point x="744" y="680" type="line" smooth="yes"/>
      <point x="678" y="680"/>
      <point x="652" y="683"/>
      <point x="645" y="683" type="curve" smooth="yes"/>
      <point x="641" y="683"/>
      <point x="625" y="683"/>
      <point x="625" y="664" type="curve" smooth="yes"/>
      <point x="625" y="650"/>
      <point x="638" y="650"/>
      <point x="654" y="650" type="curve" smooth="yes"/>
      <point x="667.30659" y="650.0"/>
      <point x="679.9628022684001" y="650.0"/>
      <point x="690.3295629757432" y="648.9509927491478" type="curve" smooth="yes"/>
      <point x="705.6721014459" y="647.3984890736"/>
      <point x="716.0" y="643.54832"/>
      <point x="716" y="634" type="curve" smooth="yes"/>
      <point x="716" y="630"/>
      <point x="715" y="629"/>
      <point x="712" y="616" type="curve" smooth="yes"/>
      <point x="652" y="372" type="line"/>
      <point x="330" y="372" type="line"/>
      <point x="388" y="605" type="line" smooth="yes"/>
      <point x="397" y="641"/>
      <point x="399" y="650"/>
      <point x="472" y="650" type="curve" smooth="yes"/>
      <point x="492" y="650"/>
      <point x="504" y="650"/>
      <point x="504" y="669" type="curve" smooth="yes"/>
      <point x="504" y="670"/>
      <point x="503" y="683"/>
      <point x="487" y="683" type="curve" smooth="yes"/>
      <point x="468" y="683"/>
      <point x="444" y="680"/>
      <point x="385" y="680" type="curve" smooth="yes"/>
      <point x="322" y="680" type="line" smooth="yes"/>
      <point x="266" y="680"/>
      <point x="240" y="683"/>
      <point x="233" y="683" type="curve" smooth="yes"/>
      <point x="229" y="683"/>
      <point x="213" y="683"/>
      <point x="213" y="664" type="curve" smooth="yes"/>
      <point x="213" y="650"/>
      <point x="226" y="650"/>
      <point x="242" y="650" type="curve" smooth="yes"/>
      <point x="255.30659" y="650.0"/>
      <point x="267.9628022684" y="650.0"/>
      <point x="278.3295629757434" y="648.9509927491478" type="curve" smooth="yes"/>
      <point x="293.6721014459" y="647.3984890736"/>
      <point x="304.0" y="643.54832"/>
      <point x="304" y="634" type="curve" smooth="yes"/>
      <point x="304" y="630"/>
      <point x="303" y="629"/>
      <point x="300" y="616" type="curve" smooth="yes"/>
      <point x="166" y="79" type="line" smooth="yes"/>
      <point x="157" y="41"/>
      <point x="155" y="33"/>
      <point x="81" y="33" type="curve" smooth="yes"/>
      <point x="62" y="33"/>
      <point x="50" y="33"/>
      <point x="50" y="14" type="curve" smooth="yes"/>
      <point x="50" y="10"/>
      <point x="53" y="0"/>
      <point x="66" y="0" type="curve" smooth="yes"/>
      <point x="85" y="0"/>
      <point x="139" y="3"/>
      <point x="160" y="3" type="curve" smooth="yes"/>
      <point x="235" y="3" type="line" smooth="yes"/>
      <point x="288" y="3"/>
      <point x="314" y="0"/>
      <point x="321" y="0" type="curve" smooth="yes"/>
      <point x="327" y="0"/>
      <point x="341" y="0"/>
      <point x="341" y="19" type="curve" smooth="yes"/>
      <point x="341" y="33"/>
      <point x="328" y="33"/>
      <point x="311" y="33" type="curve" smooth="yes"/>
      <point x="308" y="33"/>
      <point x="290" y="33"/>
      <point x="273" y="35" type="curve" smooth="yes"/>
      <point x="252" y="37"/>
      <point x="250" y="40"/>
      <point x="250" y="49" type="curve" smooth="yes"/>
      <point x="250" y="54"/>
      <point x="252" y="60"/>
      <point x="253" y="65" type="curve" smooth="yes"/>
    </contour>
  </outline>
</glyph>
<glyph name="I" format="2">
  <advance width="460"/>
  <unicode hex="0049"/>
  <outline>
    <contour>
      <point x="388" y="605" type="line" smooth="yes"/>
      <point x="397" y="640"/>
      <point x="399" y="650"/>
      <point x="474" y="650" type="curve" smooth="yes"/>
      <point x="497" y="650"/>
      <point x="509" y="650"/>
      <point x="509" y="669" type="curve" smooth="yes"/>
      <point x="509" y="670"/>
      <point x="508" y="683"/>
      <point x="492" y="683" type="curve" smooth="yes"/>
      <point x="477" y="683"/>
      <point x="446" y="681"/>
      <point x="430" y="680" type="curve"/>
      <point x="292" y="680" type="line"/>
      <point x="278" y="681"/>
      <point x="242" y="683"/>
      <point x="228" y="683" type="curve" smooth="yes"/>
      <point x="224" y="683"/>
      <point x="208" y="683"/>
      <point x="208" y="664" type="curve" smooth="yes"/>
      <point x="208" y="650"/>
      <point x="220" y="650"/>
      <point x="240" y="650" type="curve" smooth="yes"/>
      <point x="303" y="650"/>
      <point x="303" y="644"/>
      <point x="303" y="632" type="curve" smooth="yes"/>
      <point x="303" y="630"/>
      <point x="303" y="625"/>
      <point x="299" y="609" type="curve" smooth="yes"/>
      <point x="166" y="79" type="line" smooth="yes"/>
      <point x="157" y="43"/>
      <point x="154" y="33"/>
      <point x="80" y="33" type="curve" smooth="yes"/>
      <point x="56" y="33"/>
      <point x="45" y="33"/>
      <point x="45" y="14" type="curve" smooth="yes"/>
      <point x="45" y="9"/>
      <point x="49" y="0"/>
      <point x="61" y="0" type="curve" smooth="yes"/>
      <point x="75" y="0"/>
      <point x="108" y="2"/>
      <point x="123" y="3" type="curve"/>
      <point x="262" y="3" type="line"/>
      <point x="276" y="2"/>
      <point x="312" y="0"/>
      <point x="326" y="0" type="curve" smooth="yes"/>
      <point x="332" y="0"/>
      <point x="346" y="0"/>
      <point x="346" y="19" type="curve" smooth="yes"/>
      <point x="346" y="33"/>
      <point x="334" y="33"/>
      <point x="313" y="33" type="curve" smooth="yes"/>
      <point x="298" y="33"/>
      <point x="292" y="33"/>
      <point x="275" y="35" type="curve" smooth="yes"/>
      <point x="258" y="37"/>
      <point x="250" y="38"/>
      <point x="250" y="49" type="curve" smooth="yes"/>
      <point x="250" y="54"/>
      <point x="251" y="54"/>
      <point x="254" y="68" type="curve" smooth="yes"/>
    </contour>
  </outline>
</glyph>
<glyph name="J" format="2">
  <advance width="580"/>
  <unicode hex="004A"/>
  <outline>
    <contour>
      <point x="564" y="607" type="line" smooth="yes"/>
      <point x="573" y="642"/>
      <point x="575" y="650"/>
      <point x="627" y="650" type="curve" smooth="yes"/>
      <point x="641" y="650"/>
      <point x="654" y="650"/>
      <point x="654" y="669" type="curve" smooth="yes"/>
      <point x="654" y="670"/>
      <point x="653" y="683"/>
      <point x="639" y="683" type="curve" smooth="yes"/>
      <point x="633" y="683"/>
      <point x="620" y="680"/>
      <point x="524" y="680" type="curve" smooth="yes"/>
      <point x="501" y="680"/>
      <point x="461" y="680"/>
      <point x="455" y="681" type="curve"/>
      <point x="443" y="682"/>
      <point x="395" y="683"/>
      <point x="383" y="683" type="curve" smooth="yes"/>
      <point x="377" y="683"/>
      <point x="362" y="683"/>
      <point x="362" y="664" type="curve" smooth="yes"/>
      <point x="362" y="650"/>
      <point x="373" y="650"/>
      <point x="397" y="650" type="curve" smooth="yes"/>
      <point x="398" y="650"/>
      <point x="424" y="650"/>
      <point x="449" y="648" type="curve" smooth="yes"/>
      <point x="476" y="646"/>
      <point x="482" y="642"/>
      <point x="482" y="630" type="curve" smooth="yes"/>
      <point x="482" y="626"/>
      <point x="481" y="625"/>
      <point x="478" y="612" type="curve" smooth="yes"/>
      <point x="362" y="147" type="line" smooth="yes"/>
      <point x="342" y="65"/>
      <point x="276" y="7"/>
      <point x="217" y="7" type="curve" smooth="yes"/>
      <point x="196" y="7"/>
      <point x="140" y="13"/>
      <point x="119" y="61" type="curve"/>
      <point x="189" y="61"/>
      <point x="192" y="119"/>
      <point x="192" y="124" type="curve" smooth="yes"/>
      <point x="192" y="152"/>
      <point x="170" y="167"/>
      <point x="147" y="167" type="curve" smooth="yes"/>
      <point x="123" y="167"/>
      <point x="81" y="148"/>
      <point x="81" y="89" type="curve" smooth="yes"/>
      <point x="81" y="27"/>
      <point x="136" y="-21"/>
      <point x="220" y="-21" type="curve" smooth="yes"/>
      <point x="315" y="-21"/>
      <point x="423" y="43"/>
      <point x="448" y="143" type="curve" smooth="yes"/>
    </contour>
  </outline>
</glyph>
<glyph name="K" format="2">
  <advance width="896"/>
  <unicode hex="004B"/>
  <outline>
    <contour>
      <point x="308" y="288" type="line"/>
      <point x="387" y="605" type="line" smooth="yes"/>
      <point x="396" y="641"/>
      <point x="398" y="650"/>
      <point x="471" y="650" type="curve" smooth="yes"/>
      <point x="491" y="650"/>
      <point x="503" y="650"/>
      <point x="503" y="669" type="curve" smooth="yes"/>
      <point x="503" y="670"/>
      <point x="502" y="683"/>
      <point x="486" y="683" type="curve" smooth="yes"/>
      <point x="467" y="683"/>
      <point x="443" y="680"/>
      <point x="395" y="680" type="curve" smooth="yes"/>
      <point x="370" y="680"/>
      <point x="344" y="680"/>
      <point x="319" y="680" type="curve" smooth="yes"/>
      <point x="265" y="680"/>
      <point x="239" y="683"/>
      <point x="232" y="683" type="curve" smooth="yes"/>
      <point x="227" y="683"/>
      <point x="212" y="683"/>
      <point x="212" y="664" type="curve" smooth="yes"/>
      <point x="212" y="650"/>
      <point x="224" y="650"/>
      <point x="241" y="650" type="curve" smooth="yes"/>
      <point x="255" y="650"/>
      <point x="268" y="650"/>
      <point x="279" y="649" type="curve" smooth="yes"/>
      <point x="293" y="647"/>
      <point x="303" y="643"/>
      <point x="303" y="634" type="curve" smooth="yes"/>
      <point x="303" y="631"/>
      <point x="301" y="624"/>
      <point x="299" y="616" type="curve" smooth="yes"/>
      <point x="165" y="79" type="line" smooth="yes"/>
      <point x="156" y="41"/>
      <point x="154" y="33"/>
      <point x="80" y="33" type="curve" smooth="yes"/>
      <point x="61" y="33"/>
      <point x="49" y="33"/>
      <point x="49" y="14" type="curve" smooth="yes"/>
      <point x="49" y="10"/>
      <point x="52" y="0"/>
      <point x="65" y="0" type="curve" smooth="yes"/>
      <point x="84" y="0"/>
      <point x="128" y="3"/>
      <point x="168" y="3" type="curve" smooth="yes"/>
      <point x="188" y="3"/>
      <point x="207" y="3"/>
      <point x="227" y="3" type="curve" smooth="yes"/>
      <point x="272" y="3"/>
      <point x="305" y="0"/>
      <point x="320" y="0" type="curve" smooth="yes"/>
      <point x="325" y="0"/>
      <point x="340" y="0"/>
      <point x="340" y="18" type="curve" smooth="yes"/>
      <point x="340" y="33"/>
      <point x="328" y="33"/>
      <point x="311" y="33" type="curve" smooth="yes"/>
      <point x="304" y="33"/>
      <point x="290" y="33"/>
      <point x="273" y="35" type="curve" smooth="yes"/>
      <point x="252" y="37"/>
      <point x="249" y="39"/>
      <point x="249" y="49" type="curve" smooth="yes"/>
      <point x="249" y="55"/>
      <point x="255" y="80"/>
      <point x="259" y="96" type="curve" smooth="yes"/>
      <point x="271.654" y="146.28300000000002"/>
      <point x="284.308" y="196.566"/>
      <point x="297" y="247" type="curve"/>
      <point x="297.0" y="247.0"/>
      <point x="297.0" y="247.0"/>
      <point x="297" y="247" type="curve"/>
      <point x="458" y="363" type="line"/>
      <point x="458.0" y="363.0"/>
      <point x="458.0" y="363.0"/>
      <point x="458" y="363" type="curve"/>
      <point x="504.287" y="267.762"/>
      <point x="550.574" y="172.524"/>
      <point x="597" y="77" type="curve" smooth="yes"/>
      <point x="602" y="67"/>
      <point x="603" y="65"/>
      <point x="603" y="61" type="curve" smooth="yes"/>
      <point x="603" y="34"/>
      <point x="566" y="33"/>
      <point x="555" y="33" type="curve" smooth="yes"/>
      <point x="545" y="33"/>
      <point x="531" y="33"/>
      <point x="531" y="14" type="curve" smooth="yes"/>
      <point x="531" y="13"/>
      <point x="532" y="0"/>
      <point x="548" y="0" type="curve" smooth="yes"/>
      <point x="558" y="0"/>
      <point x="596" y="3"/>
      <point x="615" y="3" type="curve" smooth="yes"/>
      <point x="624" y="3"/>
      <point x="654" y="3"/>
      <point x="682" y="3" type="curve" smooth="yes"/>
      <point x="735" y="3"/>
      <point x="752" y="0"/>
      <point x="765" y="0" type="curve" smooth="yes"/>
      <point x="769" y="0"/>
      <point x="784" y="0"/>
      <point x="784" y="19" type="curve" smooth="yes"/>
      <point x="784" y="33"/>
      <point x="770" y="33"/>
      <point x="764" y="33" type="curve" smooth="yes"/>
      <point x="725" y="34"/>
      <point x="712" y="41"/>
      <point x="696" y="75" type="curve" smooth="yes"/>
      <point x="537" y="402" type="line" smooth="yes"/>
      <point x="536" y="404"/>
      <point x="531" y="414"/>
      <point x="531" y="415" type="curve" smooth="yes"/>
      <point x="531" y="417"/>
      <point x="548" y="429"/>
      <point x="558" y="436" type="curve" smooth="yes"/>
      <point x="637" y="494"/>
      <point x="745" y="572"/>
      <point x="778" y="593" type="curve" smooth="yes"/>
      <point x="829" y="625"/>
      <point x="866" y="646"/>
      <point x="911" y="650" type="curve" smooth="yes"/>
      <point x="919" y="651"/>
      <point x="933" y="652"/>
      <point x="933" y="670" type="curve" smooth="yes"/>
      <point x="933" y="677"/>
      <point x="926" y="683"/>
      <point x="919" y="683" type="curve" smooth="yes"/>
      <point x="918" y="683"/>
      <point x="890" y="680"/>
      <point x="857" y="680" type="curve" smooth="yes"/>
      <point x="836" y="680"/>
      <point x="806" y="681"/>
      <point x="792" y="681" type="curve" smooth="yes"/>
      <point x="785" y="681"/>
      <point x="746" y="683"/>
      <point x="739" y="683" type="curve" smooth="yes"/>
      <point x="732" y="683"/>
      <point x="718" y="683"/>
      <point x="718" y="664" type="curve" smooth="yes"/>
      <point x="718" y="663"/>
      <point x="719" y="651"/>
      <point x="734" y="650" type="curve" smooth="yes"/>
      <point x="742" y="649"/>
      <point x="758" y="647"/>
      <point x="758" y="635" type="curve" smooth="yes"/>
      <point x="758" y="616"/>
      <point x="730" y="594"/>
      <point x="716" y="584" type="curve" smooth="yes"/>
    </contour>
  </outline>
</glyph>
<glyph name="M" format="2">
  <advance width="1020"/>
  <unicode hex="004D"/>
  <outline>
    <contour>
      <point x="178" y="107" type="line" smooth="yes"/>
      <point x="166" y="57"/>
      <point x="140" y="35"/>
      <point x="73" y="33" type="curve" smooth="yes"/>
      <point x="67" y="33"/>
      <point x="55" y="32"/>
      <point x="55" y="14" type="curve" smooth="yes"/>
      <point x="55" y="8"/>
      <point x="60" y="0"/>
      <point x="70" y="0" type="curve" smooth="yes"/>
      <point x="74" y="0"/>
      <point x="97" y="3"/>
      <point x="169" y="3" type="curve" smooth="yes"/>
      <point x="248" y="3"/>
      <point x="263" y="0"/>
      <point x="272" y="0" type="curve" smooth="yes"/>
      <point x="276" y="0"/>
      <point x="291" y="0"/>
      <point x="291" y="19" type="curve" smooth="yes"/>
      <point x="291" y="31"/>
      <point x="280" y="33"/>
      <point x="273" y="33" type="curve" smooth="yes"/>
      <point x="237" y="34"/>
      <point x="207" y="40"/>
      <point x="207" y="75" type="curve" smooth="yes"/>
      <point x="207" y="80"/>
      <point x="209" y="90"/>
      <point x="210" y="95" type="curve" smooth="yes"/>
      <point x="346" y="638" type="line"/>
      <point x="347" y="638" type="line"/>
      <point x="444" y="27" type="line" smooth="yes"/>
      <point x="447" y="11"/>
      <point x="448" y="0"/>
      <point x="462" y="0" type="curve" smooth="yes"/>
      <point x="476" y="0"/>
      <point x="483" y="11"/>
      <point x="489" y="20" type="curve" smooth="yes"/>
      <point x="900" y="646" type="line"/>
      <point x="901" y="645" type="line"/>
      <point x="760" y="79" type="line" smooth="yes"/>
      <point x="751" y="41"/>
      <point x="749" y="33"/>
      <point x="675" y="33" type="curve" smooth="yes"/>
      <point x="656" y="33"/>
      <point x="644" y="33"/>
      <point x="644" y="14" type="curve" smooth="yes"/>
      <point x="644" y="10"/>
      <point x="647" y="0"/>
      <point x="660" y="0" type="curve" smooth="yes"/>
      <point x="673" y="0"/>
      <point x="723" y="3"/>
      <point x="737" y="3" type="curve" smooth="yes"/>
      <point x="761" y="3"/>
      <point x="784" y="3"/>
      <point x="808" y="3" type="curve" smooth="yes"/>
      <point x="854" y="3"/>
      <point x="898" y="0"/>
      <point x="905" y="0" type="curve" smooth="yes"/>
      <point x="911" y="0"/>
      <point x="925" y="0"/>
      <point x="925" y="19" type="curve" smooth="yes"/>
      <point x="925" y="33"/>
      <point x="912" y="33"/>
      <point x="895" y="33" type="curve" smooth="yes"/>
      <point x="892" y="33"/>
      <point x="874" y="33"/>
      <point x="857" y="35" type="curve" smooth="yes"/>
      <point x="836" y="37"/>
      <point x="834" y="40"/>
      <point x="834" y="49" type="curve" smooth="yes"/>
      <point x="834" y="54"/>
      <point x="836" y="60"/>
      <point x="837" y="65" type="curve" smooth="yes"/>
      <point x="971" y="602" type="line" smooth="yes"/>
      <point x="981" y="641"/>
      <point x="983" y="650"/>
      <point x="1053" y="650" type="curve" smooth="yes"/>
      <point x="1076" y="650"/>
      <point x="1088" y="650"/>
      <point x="1088" y="669" type="curve" smooth="yes"/>
      <point x="1088" y="683"/>
      <point x="1075" y="683"/>
      <point x="1057" y="683" type="curve" smooth="yes"/>
      <point x="928" y="683" type="line" smooth="yes"/>
      <point x="901" y="683"/>
      <point x="898" y="683"/>
      <point x="885" y="663" type="curve" smooth="yes"/>
      <point x="508" y="92" type="line"/>
      <point x="419" y="656" type="line" smooth="yes"/>
      <point x="415" y="681"/>
      <point x="414" y="683"/>
      <point x="384" y="683" type="curve" smooth="yes"/>
      <point x="249" y="683" type="line" smooth="yes"/>
      <point x="231" y="683"/>
      <point x="218" y="683"/>
      <point x="218" y="664" type="curve" smooth="yes"/>
      <point x="218" y="650"/>
      <point x="231" y="650"/>
      <point x="247" y="650" type="curve" smooth="yes"/>
      <point x="259.24201" y="650.0"/>
      <point x="268" y="650"/>
      <point x="280.7982945014082" y="649.1831612110133" type="curve" smooth="yes"/>
      <point x="298" y="648"/>
      <point x="309.0" y="644.0644800000001"/>
      <point x="309" y="634" type="curve" smooth="yes"/>
      <point x="309" y="632"/>
      <point x="308" y="627"/>
      <point x="305" y="616" type="curve" smooth="yes"/>
    </contour>
  </outline>
</glyph>
<glyph name="N" format="2">
  <advance width="843"/>
  <unicode hex="004E"/>
  <outline>
    <contour>
      <point x="792" y="574" type="line" smooth="yes"/>
      <point x="804" y="623"/>
      <point x="826" y="647"/>
      <point x="898" y="650" type="curve" smooth="yes"/>
      <point x="908" y="650"/>
      <point x="916" y="656"/>
      <point x="916" y="669" type="curve" smooth="yes"/>
      <point x="916" y="675"/>
      <point x="911" y="683"/>
      <point x="901" y="683" type="curve" smooth="yes"/>
      <point x="894" y="683"/>
      <point x="875" y="680"/>
      <point x="801" y="680" type="curve" smooth="yes"/>
      <point x="721" y="680"/>
      <point x="708" y="683"/>
      <point x="699" y="683" type="curve" smooth="yes"/>
      <point x="683" y="683"/>
      <point x="680" y="672"/>
      <point x="680" y="664" type="curve" smooth="yes"/>
      <point x="680" y="651"/>
      <point x="693" y="650"/>
      <point x="702" y="650" type="curve" smooth="yes"/>
      <point x="763" y="648"/>
      <point x="763" y="621"/>
      <point x="763" y="607" type="curve" smooth="yes"/>
      <point x="763" y="602"/>
      <point x="763" y="597"/>
      <point x="759" y="581" type="curve" smooth="yes"/>
      <point x="649" y="143" type="line"/>
      <point x="408" y="665" type="line" smooth="yes"/>
      <point x="400" y="683"/>
      <point x="398" y="683"/>
      <point x="374" y="683" type="curve" smooth="yes"/>
      <point x="244" y="683" type="line" smooth="yes"/>
      <point x="226" y="683"/>
      <point x="213" y="683"/>
      <point x="213" y="664" type="curve" smooth="yes"/>
      <point x="213" y="650"/>
      <point x="225" y="650"/>
      <point x="246" y="650" type="curve" smooth="yes"/>
      <point x="254" y="650"/>
      <point x="284" y="650"/>
      <point x="307" y="644" type="curve"/>
      <point x="173" y="107" type="line" smooth="yes"/>
      <point x="161" y="57"/>
      <point x="135" y="35"/>
      <point x="68" y="33" type="curve"/>
      <point x="62" y="33"/>
      <point x="50" y="32"/>
      <point x="50" y="14" type="curve" smooth="yes"/>
      <point x="50" y="8"/>
      <point x="55" y="0"/>
      <point x="65" y="0" type="curve" smooth="yes"/>
      <point x="69" y="0"/>
      <point x="92" y="3"/>
      <point x="164" y="3" type="curve" smooth="yes"/>
      <point x="243" y="3"/>
      <point x="258" y="0"/>
      <point x="267" y="0" type="curve" smooth="yes"/>
      <point x="271" y="0"/>
      <point x="286" y="0"/>
      <point x="286" y="19" type="curve" smooth="yes"/>
      <point x="286" y="31"/>
      <point x="275" y="33"/>
      <point x="268" y="33" type="curve" smooth="yes"/>
      <point x="232" y="34"/>
      <point x="202" y="40"/>
      <point x="202" y="75" type="curve" smooth="yes"/>
      <point x="202" y="80"/>
      <point x="205" y="94"/>
      <point x="205" y="95" type="curve"/>
      <point x="336" y="617" type="line"/>
      <point x="337" y="617" type="line"/>
      <point x="615" y="18" type="line" smooth="yes"/>
      <point x="622" y="2"/>
      <point x="623" y="0"/>
      <point x="634" y="0" type="curve" smooth="yes"/>
      <point x="648" y="0"/>
      <point x="649" y="4"/>
      <point x="653" y="21" type="curve" smooth="yes"/>
    </contour>
  </outline>
</glyph>
<glyph name="O" format="2">
  <advance width="806"/>
  <unicode hex="004F"/>
  <outline>
    <contour>
      <point x="781" y="430" type="curve" smooth="yes"/>
      <point x="781" y="594"/>
      <point x="667" y="704"/>
      <point x="507" y="704" type="curve" smooth="yes"/>
      <point x="274" y="704"/>
      <point x="51" y="473"/>
      <point x="51" y="250" type="curve" smooth="yes"/>
      <point x="51" y="96"/>
      <point x="159" y="-21"/>
      <point x="327" y="-21" type="curve" smooth="yes"/>
      <point x="551" y="-21"/>
      <point x="781" y="194"/>
    </contour>
    <contour>
      <point x="335" y="12" type="curve" smooth="yes"/>
      <point x="233" y="12"/>
      <point x="150" y="85"/>
      <point x="150" y="228" type="curve" smooth="yes"/>
      <point x="150" y="244"/>
      <point x="150" y="411"/>
      <point x="265" y="553" type="curve" smooth="yes"/>
      <point x="302" y="598"/>
      <point x="392" y="673"/>
      <point x="500" y="673" type="curve" smooth="yes"/>
      <point x="600" y="673"/>
      <point x="688" y="604"/>
      <point x="688" y="465" type="curve" smooth="yes"/>
      <point x="688" y="410"/>
      <point x="667" y="254"/>
      <point x="564" y="132" type="curve" smooth="yes"/>
      <point x="506" y="63"/>
      <point x="420" y="12"/>
    </contour>
  </outline>
</glyph>
<glyph name="P" format="2">
  <advance width="673"/>
  <unicode hex="0050"/>
  <outline>
    <contour>
      <point x="315" y="312" type="line"/>
      <point x="497" y="312" type="line" smooth="yes"/>
      <point x="641" y="312"/>
      <point x="791" y="412"/>
      <point x="791" y="530" type="curve" smooth="yes"/>
      <point x="791" y="615"/>
      <point x="711" y="683"/>
      <point x="582" y="683" type="curve" smooth="yes"/>
      <point x="245" y="683" type="line" smooth="yes"/>
      <point x="227" y="683"/>
      <point x="214" y="683"/>
      <point x="214" y="664" type="curve" smooth="yes"/>
      <point x="214" y="650"/>
      <point x="227" y="650"/>
      <point x="243" y="650" type="curve" smooth="yes"/>
      <point x="276" y="650"/>
      <point x="305" y="650"/>
      <point x="305" y="634" type="curve" smooth="yes"/>
      <point x="305" y="630"/>
      <point x="304" y="629"/>
      <point x="301" y="616" type="curve" smooth="yes"/>
      <point x="167" y="79" type="line" smooth="yes"/>
      <point x="158" y="42"/>
      <point x="156" y="33"/>
      <point x="85" y="33" type="curve" smooth="yes"/>
      <point x="62" y="33"/>
      <point x="51" y="33"/>
      <point x="51" y="14" type="curve" smooth="yes"/>
      <point x="51" y="10"/>
      <point x="54" y="0"/>
      <point x="67" y="0" type="curve" smooth="yes"/>
      <point x="86" y="0"/>
      <point x="110" y="2"/>
      <point x="129" y="3" type="curve"/>
      <point x="193" y="3" type="line" smooth="yes"/>
      <point x="289" y="3"/>
      <point x="315" y="0"/>
      <point x="322" y="0" type="curve" smooth="yes"/>
      <point x="328" y="0"/>
      <point x="342" y="0"/>
      <point x="342" y="19" type="curve" smooth="yes"/>
      <point x="342" y="33"/>
      <point x="329" y="33"/>
      <point x="312" y="33" type="curve" smooth="yes"/>
      <point x="309" y="33"/>
      <point x="291" y="33"/>
      <point x="274" y="35" type="curve" smooth="yes"/>
      <point x="253" y="37"/>
      <point x="251" y="40"/>
      <point x="251" y="49" type="curve" smooth="yes"/>
      <point x="251" y="54"/>
      <point x="253" y="60"/>
      <point x="254" y="65" type="curve" smooth="yes"/>
    </contour>
    <contour>
      <point x="388" y="613" type="line" smooth="yes"/>
      <point x="397" y="647"/>
      <point x="398" y="650"/>
      <point x="439" y="650" type="curve" smooth="yes"/>
      <point x="549" y="650" type="line" smooth="yes"/>
      <point x="631" y="650"/>
      <point x="694" y="626"/>
      <point x="694" y="552" type="curve" smooth="yes"/>
      <point x="694" y="539"/>
      <point x="689" y="450"/>
      <point x="633" y="395" type="curve" smooth="yes"/>
      <point x="618" y="380"/>
      <point x="570" y="342"/>
      <point x="472" y="342" type="curve" smooth="yes"/>
      <point x="320" y="342" type="line"/>
    </contour>
  </outline>
</glyph>
<glyph name="Q" format="2">
  <advance width="835"/>
  <unicode hex="0051"/>
  <outline>
    <contour>
      <point x="51" y="250" type="curve" smooth="yes"/>
      <point x="51" y="96"/>
      <point x="159" y="-21"/>
      <point x="327" y="-21" type="curve" smooth="yes"/>
      <point x="354" y="-21"/>
      <point x="388" y="-18"/>
      <point x="428" y="-7" type="curve"/>
      <point x="428" y="-19"/>
      <point x="426" y="-57"/>
      <point x="426" y="-65" type="curve" smooth="yes"/>
      <point x="426" y="-106"/>
      <point x="426" y="-194"/>
      <point x="517" y="-194" type="curve" smooth="yes"/>
      <point x="636" y="-194"/>
      <point x="691" y="-18"/>
      <point x="691" y="0" type="curve" smooth="yes"/>
      <point x="691" y="7"/>
      <point x="685" y="14"/>
      <point x="677" y="14" type="curve" smooth="yes"/>
      <point x="667" y="14"/>
      <point x="664" y="4"/>
      <point x="663" y="1" type="curve" smooth="yes"/>
      <point x="642" y="-65"/>
      <point x="584" y="-93"/>
      <point x="542" y="-93" type="curve" smooth="yes"/>
      <point x="507" y="-93"/>
      <point x="483" y="-80"/>
      <point x="469" y="7" type="curve"/>
      <point x="625" y="63"/>
      <point x="781" y="234"/>
      <point x="781" y="430" type="curve" smooth="yes"/>
      <point x="781" y="594"/>
      <point x="667" y="704"/>
      <point x="507" y="704" type="curve" smooth="yes"/>
      <point x="274" y="704"/>
      <point x="51" y="473"/>
    </contour>
    <contour>
      <point x="145" y="223" type="curve" smooth="yes"/>
      <point x="145" y="291"/>
      <point x="168" y="421"/>
      <point x="249" y="531" type="curve" smooth="yes"/>
      <point x="314" y="618"/>
      <point x="411" y="673"/>
      <point x="499" y="673" type="curve" smooth="yes"/>
      <point x="604" y="673"/>
      <point x="688" y="599"/>
      <point x="688" y="458" type="curve" smooth="yes"/>
      <point x="688" y="405"/>
      <point x="668" y="160"/>
      <point x="463" y="44" type="curve"/>
      <point x="451" y="101"/>
      <point x="431" y="151"/>
      <point x="366" y="151" type="curve" smooth="yes"/>
      <point x="309" y="151"/>
      <point x="258" y="100"/>
      <point x="258" y="49" type="curve" smooth="yes"/>
      <point x="258" y="40"/>
      <point x="260" y="31"/>
      <point x="263" y="23" type="curve"/>
      <point x="184" y="54"/>
      <point x="145" y="126"/>
    </contour>
    <contour>
      <point x="286" y="49" type="curve" smooth="yes"/>
      <point x="286" y="84"/>
      <point x="323" y="123"/>
      <point x="367" y="123" type="curve" smooth="yes"/>
      <point x="411" y="123"/>
      <point x="428" y="96"/>
      <point x="429" y="29" type="curve"/>
      <point x="408" y="20"/>
      <point x="372" y="10"/>
      <point x="334" y="10" type="curve" smooth="yes"/>
      <point x="322" y="10"/>
      <point x="286" y="10"/>
    </contour>
  </outline>
</glyph>
<glyph name="R" format="2">
  <advance width="800"/>
  <unicode hex="0052"/>
  <outline>
    <contour>
      <point x="324" y="356" type="line"/>
      <point x="388" y="613" type="line" smooth="yes"/>
      <point x="397" y="647"/>
      <point x="398" y="650"/>
      <point x="439" y="650" type="curve" smooth="yes"/>
      <point x="465.973" y="650.0"/>
      <point x="492.946" y="650.0"/>
      <point x="520" y="650" type="curve" smooth="yes"/>
      <point x="602" y="650"/>
      <point x="679" y="629"/>
      <point x="679" y="548" type="curve" smooth="yes"/>
      <point x="679" y="504"/>
      <point x="656" y="434"/>
      <point x="610" y="401" type="curve" smooth="yes"/>
      <point x="562" y="367"/>
      <point x="505" y="356"/>
      <point x="447" y="356" type="curve" smooth="yes"/>
    </contour>
    <contour>
      <point x="777" y="531" type="curve" smooth="yes"/>
      <point x="777" y="618"/>
      <point x="679" y="683"/>
      <point x="540" y="683" type="curve" smooth="yes"/>
      <point x="245" y="683" type="line" smooth="yes"/>
      <point x="227" y="683"/>
      <point x="214" y="683"/>
      <point x="214" y="664" type="curve" smooth="yes"/>
      <point x="214" y="650"/>
      <point x="227" y="650"/>
      <point x="243" y="650" type="curve" smooth="yes"/>
      <point x="257.37084" y="650.0"/>
      <point x="270.98310867839996" y="650.0"/>
      <point x="281.77216454063523" y="648.6786294434785" type="curve" smooth="yes"/>
      <point x="295.75819791839996" y="646.9657147135999"/>
      <point x="304" y="643"/>
      <point x="305" y="634" type="curve" smooth="yes"/>
      <point x="305" y="631"/>
      <point x="304" y="626"/>
      <point x="301" y="616" type="curve" smooth="yes"/>
      <point x="167" y="79" type="line" smooth="yes"/>
      <point x="158" y="41"/>
      <point x="156" y="33"/>
      <point x="82" y="33" type="curve" smooth="yes"/>
      <point x="63" y="33"/>
      <point x="51" y="33"/>
      <point x="51" y="14" type="curve" smooth="yes"/>
      <point x="51" y="10"/>
      <point x="54" y="0"/>
      <point x="67" y="0" type="curve" smooth="yes"/>
      <point x="86" y="0"/>
      <point x="109" y="2"/>
      <point x="150" y="2" type="curve" smooth="yes"/>
      <point x="173.31" y="2.0"/>
      <point x="196.62" y="2.0"/>
      <point x="220" y="2" type="curve" smooth="yes"/>
      <point x="264" y="2"/>
      <point x="313" y="0"/>
      <point x="319" y="0" type="curve" smooth="yes"/>
      <point x="325" y="0"/>
      <point x="339" y="0"/>
      <point x="339" y="19" type="curve" smooth="yes"/>
      <point x="339" y="33"/>
      <point x="326" y="33"/>
      <point x="309" y="33" type="curve" smooth="yes"/>
      <point x="306" y="33"/>
      <point x="288" y="33"/>
      <point x="271" y="35" type="curve" smooth="yes"/>
      <point x="250" y="37"/>
      <point x="248" y="40"/>
      <point x="248" y="49" type="curve" smooth="yes"/>
      <point x="248" y="52"/>
      <point x="250" y="60"/>
      <point x="251" y="65" type="curve" smooth="yes"/>
      <point x="316" y="328" type="line"/>
      <point x="446" y="328" type="line" smooth="yes"/>
      <point x="536" y="328"/>
      <point x="564" y="280"/>
      <point x="564" y="239" type="curve" smooth="yes"/>
      <point x="564" y="225"/>
      <point x="557" y="197"/>
      <point x="552" y="176" type="curve" smooth="yes"/>
      <point x="544" y="147"/>
      <point x="534" y="107"/>
      <point x="534" y="89" type="curve" smooth="yes"/>
      <point x="534" y="12"/>
      <point x="600" y="-21"/>
      <point x="674" y="-21" type="curve" smooth="yes"/>
      <point x="761" y="-21"/>
      <point x="802" y="77"/>
      <point x="802" y="96" type="curve" smooth="yes"/>
      <point x="802" y="100"/>
      <point x="799" y="110"/>
      <point x="786" y="110" type="curve" smooth="yes"/>
      <point x="775" y="110"/>
      <point x="772" y="101"/>
      <point x="771" y="97" type="curve"/>
      <point x="749" y="28"/>
      <point x="706" y="7"/>
      <point x="677" y="7" type="curve" smooth="yes"/>
      <point x="640" y="7"/>
      <point x="636" y="35"/>
      <point x="636" y="68" type="curve" smooth="yes"/>
      <point x="636" y="101"/>
      <point x="642" y="145"/>
      <point x="646" y="178" type="curve" smooth="yes"/>
      <point x="650" y="208"/>
      <point x="650" y="214"/>
      <point x="650" y="224" type="curve" smooth="yes"/>
      <point x="650" y="284"/>
      <point x="611" y="319"/>
      <point x="558" y="340" type="curve"/>
      <point x="681" y="371"/>
      <point x="777" y="446"/>
    </contour>
  </outline>
</glyph>
<glyph name="S" format="2">
  <advance width="646"/>
  <unicode hex="0053"/>
  <outline>
    <contour>
      <point x="182" y="473" type="curve" smooth="yes"/>
      <point x="182" y="418"/>
      <point x="212" y="380"/>
      <point x="218" y="374" type="curve" smooth="yes"/>
      <point x="250" y="340"/>
      <point x="280" y="331"/>
      <point x="352" y="314" type="curve" smooth="yes"/>
      <point x="387" y="305"/>
      <point x="389" y="305"/>
      <point x="418" y="298" type="curve" smooth="yes"/>
      <point x="447" y="291"/>
      <point x="511" y="275"/>
      <point x="511" y="192" type="curve" smooth="yes"/>
      <point x="511" y="105"/>
      <point x="425" y="12"/>
      <point x="320" y="12" type="curve" smooth="yes"/>
      <point x="255" y="12"/>
      <point x="136" y="32"/>
      <point x="136" y="156" type="curve" smooth="yes"/>
      <point x="136" y="185"/>
      <point x="143" y="204"/>
      <point x="143" y="214" type="curve" smooth="yes"/>
      <point x="143" y="226"/>
      <point x="132" y="227"/>
      <point x="128" y="227" type="curve" smooth="yes"/>
      <point x="115" y="227"/>
      <point x="114" y="223"/>
      <point x="109" y="200" type="curve" smooth="yes"/>
      <point x="64" y="22"/>
      <point x="57" y="-5"/>
      <point x="57" y="-8" type="curve" smooth="yes"/>
      <point x="57" y="-16"/>
      <point x="63" y="-21"/>
      <point x="70" y="-21" type="curve" smooth="yes"/>
      <point x="77" y="-21"/>
      <point x="78" y="-20"/>
      <point x="89" y="-7" type="curve" smooth="yes"/>
      <point x="137" y="49" type="line"/>
      <point x="160" y="19"/>
      <point x="217" y="-21"/>
      <point x="318" y="-21" type="curve" smooth="yes"/>
      <point x="463" y="-21"/>
      <point x="582" y="110"/>
      <point x="582" y="230" type="curve" smooth="yes"/>
      <point x="582" y="276"/>
      <point x="567" y="312"/>
      <point x="540" y="340" type="curve" smooth="yes"/>
      <point x="510" y="373"/>
      <point x="477" y="381"/>
      <point x="430" y="393" type="curve" smooth="yes"/>
      <point x="401" y="400"/>
      <point x="362" y="409"/>
      <point x="339" y="415" type="curve" smooth="yes"/>
      <point x="309" y="422"/>
      <point x="253" y="442"/>
      <point x="253" y="512" type="curve" smooth="yes"/>
      <point x="253" y="590"/>
      <point x="337" y="674"/>
      <point x="439" y="674" type="curve" smooth="yes"/>
      <point x="529" y="674"/>
      <point x="591" y="627"/>
      <point x="591" y="519" type="curve" smooth="yes"/>
      <point x="591" y="495"/>
      <point x="587" y="474"/>
      <point x="587" y="470" type="curve" smooth="yes"/>
      <point x="587" y="458"/>
      <point x="596" y="456"/>
      <point x="603" y="456" type="curve" smooth="yes"/>
      <point x="615" y="456"/>
      <point x="616" y="460"/>
      <point x="620" y="476" type="curve" smooth="yes"/>
      <point x="673" y="685" type="line" smooth="yes"/>
      <point x="676" y="695"/>
      <point x="672" y="704"/>
      <point x="661" y="704" type="curve" smooth="yes"/>
      <point x="654" y="704"/>
      <point x="652" y="702"/>
      <point x="641" y="690" type="curve" smooth="yes"/>
      <point x="630" y="677"/>
      <point x="604" y="645"/>
      <point x="593" y="633" type="curve"/>
      <point x="554" y="690"/>
      <point x="491" y="704"/>
      <point x="440" y="704" type="curve" smooth="yes"/>
      <point x="301" y="704"/>
      <point x="182" y="587"/>
    </contour>
  </outline>
</glyph>
<glyph name="T" format="2">
  <advance width="618"/>
  <unicode hex="0054"/>
  <outline>
    <contour>
      <point x="231" y="82" type="line" smooth="yes"/>
      <point x="223.2414" y="52.51732"/>
      <point x="220.2984699168" y="39.2875259692"/>
      <point x="170.79728190273386" y="34.83804658430311" type="curve" smooth="yes"/>
      <point x="156.4967685608" y="33.55262613559999"/>
      <point x="138.31056" y="32.99999999999999"/>
      <point x="115" y="33" type="curve" smooth="yes"/>
      <point x="83" y="33"/>
      <point x="73" y="33"/>
      <point x="73" y="14" type="curve" smooth="yes"/>
      <point x="73" y="13"/>
      <point x="73" y="0"/>
      <point x="90" y="0" type="curve" smooth="yes"/>
      <point x="117" y="0"/>
      <point x="186" y="3"/>
      <point x="213" y="3" type="curve" smooth="yes"/>
      <point x="298" y="3" type="line" smooth="yes"/>
      <point x="326" y="3"/>
      <point x="396" y="0"/>
      <point x="424" y="0" type="curve" smooth="yes"/>
      <point x="432" y="0"/>
      <point x="447" y="0"/>
      <point x="447" y="19" type="curve" smooth="yes"/>
      <point x="447" y="33"/>
      <point x="436" y="33"/>
      <point x="409" y="33" type="curve" smooth="yes"/>
      <point x="385" y="33"/>
      <point x="377" y="33"/>
      <point x="351" y="35" type="curve" smooth="yes"/>
      <point x="309" y="39"/>
      <point x="312" y="46"/>
      <point x="319" y="73" type="curve" smooth="yes"/>
      <point x="452" y="605" type="line" smooth="yes"/>
      <point x="461" y="641"/>
      <point x="462" y="643"/>
      <point x="503" y="643" type="curve" smooth="yes"/>
      <point x="579" y="643" type="line" smooth="yes"/>
      <point x="683" y="643"/>
      <point x="695" y="610"/>
      <point x="695" y="560" type="curve" smooth="yes"/>
      <point x="695" y="522"/>
      <point x="685" y="472"/>
      <point x="685" y="465" type="curve" smooth="yes"/>
      <point x="685" y="452"/>
      <point x="694" y="449"/>
      <point x="700" y="449" type="curve" smooth="yes"/>
      <point x="711" y="449"/>
      <point x="715" y="455"/>
      <point x="718" y="474" type="curve" smooth="yes"/>
      <point x="745" y="661" type="line" smooth="yes"/>
      <point x="747" y="676"/>
      <point x="733" y="676"/>
      <point x="715" y="676" type="curve" smooth="yes"/>
      <point x="126" y="676" type="line" smooth="yes"/>
      <point x="101" y="676"/>
      <point x="99" y="676"/>
      <point x="92" y="655" type="curve" smooth="yes"/>
      <point x="31" y="482" type="line" smooth="yes"/>
      <point x="29" y="477"/>
      <point x="26" y="469"/>
      <point x="26" y="463" type="curve" smooth="yes"/>
      <point x="26" y="455"/>
      <point x="33" y="449"/>
      <point x="41" y="449" type="curve" smooth="yes"/>
      <point x="52" y="449"/>
      <point x="54" y="454"/>
      <point x="60" y="471" type="curve" smooth="yes"/>
      <point x="117" y="631"/>
      <point x="146" y="643"/>
      <point x="298" y="643" type="curve" smooth="yes"/>
      <point x="337" y="643" type="line" smooth="yes"/>
      <point x="367" y="643"/>
      <point x="368" y="642"/>
      <point x="368" y="634" type="curve" smooth="yes"/>
      <point x="368" y="631"/>
      <point x="364" y="611"/>
      <point x="363" y="607" type="curve" smooth="yes"/>
    </contour>
  </outline>
</glyph>
<glyph name="U" format="2">
  <advance width="718"/>
  <unicode hex="0055"/>
  <outline>
    <contour>
      <point x="667" y="574" type="line" smooth="yes"/>
      <point x="679" y="623"/>
      <point x="702" y="647"/>
      <point x="773" y="650" type="curve" smooth="yes"/>
      <point x="783" y="650"/>
      <point x="791" y="656"/>
      <point x="791" y="669" type="curve" smooth="yes"/>
      <point x="791" y="675"/>
      <point x="786" y="683"/>
      <point x="776" y="683" type="curve" smooth="yes"/>
      <point x="771" y="683"/>
      <point x="749" y="680"/>
      <point x="677" y="680" type="curve" smooth="yes"/>
      <point x="597" y="680"/>
      <point x="584" y="683"/>
      <point x="575" y="683" type="curve" smooth="yes"/>
      <point x="559" y="683"/>
      <point x="556" y="672"/>
      <point x="556" y="664" type="curve" smooth="yes"/>
      <point x="556" y="651"/>
      <point x="569" y="650"/>
      <point x="578" y="650" type="curve" smooth="yes"/>
      <point x="639" y="648"/>
      <point x="639" y="621"/>
      <point x="639" y="607" type="curve" smooth="yes"/>
      <point x="639" y="601"/>
      <point x="638" y="596"/>
      <point x="637" y="590" type="curve"/>
      <point x="635" y="583"/>
      <point x="552" y="248"/>
      <point x="548" y="235" type="curve"/>
      <point x="512" y="91"/>
      <point x="386" y="12"/>
      <point x="287" y="12" type="curve" smooth="yes"/>
      <point x="218" y="12"/>
      <point x="156" y="53"/>
      <point x="156" y="145" type="curve" smooth="yes"/>
      <point x="156" y="162"/>
      <point x="159" y="189"/>
      <point x="163" y="205" type="curve" smooth="yes"/>
      <point x="263" y="605" type="line" smooth="yes"/>
      <point x="272" y="641"/>
      <point x="274" y="650"/>
      <point x="347" y="650" type="curve" smooth="yes"/>
      <point x="367" y="650"/>
      <point x="379" y="650"/>
      <point x="379" y="669" type="curve" smooth="yes"/>
      <point x="379" y="670"/>
      <point x="378" y="683"/>
      <point x="362" y="683" type="curve" smooth="yes"/>
      <point x="343" y="683"/>
      <point x="319" y="681"/>
      <point x="300" y="680" type="curve"/>
      <point x="237" y="680" type="line" smooth="yes"/>
      <point x="141" y="680"/>
      <point x="115" y="683"/>
      <point x="108" y="683" type="curve" smooth="yes"/>
      <point x="104" y="683"/>
      <point x="88" y="683"/>
      <point x="88" y="664" type="curve" smooth="yes"/>
      <point x="88" y="650"/>
      <point x="101" y="650"/>
      <point x="117" y="650" type="curve" smooth="yes"/>
      <point x="150" y="650"/>
      <point x="179" y="650"/>
      <point x="179" y="634" type="curve" smooth="yes"/>
      <point x="179" y="628"/>
      <point x="170" y="592"/>
      <point x="164" y="572" type="curve" smooth="yes"/>
      <point x="142" y="484" type="line"/>
      <point x="90" y="272" type="line" smooth="yes"/>
      <point x="76" y="217"/>
      <point x="72" y="202"/>
      <point x="72" y="175" type="curve" smooth="yes"/>
      <point x="72" y="58"/>
      <point x="164" y="-21"/>
      <point x="283" y="-21" type="curve" smooth="yes"/>
      <point x="419" y="-21"/>
      <point x="547" y="94"/>
      <point x="579" y="223" type="curve" smooth="yes"/>
    </contour>
  </outline>
</glyph>
<glyph name="V" format="2">
  <advance width="618"/>
  <unicode hex="0056"/>
  <outline>
    <contour>
      <point x="266" y="-21" type="curve" smooth="yes"/>
      <point x="283" y="-21"/>
      <point x="289" y="-12"/>
      <point x="296" y="-1" type="curve" smooth="yes"/>
      <point x="670" y="564" type="line" smooth="yes"/>
      <point x="720" y="640"/>
      <point x="758" y="648"/>
      <point x="798" y="650" type="curve" smooth="yes"/>
      <point x="809" y="651"/>
      <point x="813" y="661"/>
      <point x="813" y="669" type="curve" smooth="yes"/>
      <point x="813" y="672"/>
      <point x="811" y="683"/>
      <point x="799" y="683" type="curve" smooth="yes"/>
      <point x="787" y="683"/>
      <point x="791" y="680"/>
      <point x="718" y="680" type="curve" smooth="yes"/>
      <point x="654" y="680"/>
      <point x="627" y="683"/>
      <point x="623" y="683" type="curve" smooth="yes"/>
      <point x="618" y="683"/>
      <point x="603" y="683"/>
      <point x="603" y="664" type="curve" smooth="yes"/>
      <point x="603" y="651"/>
      <point x="616" y="650"/>
      <point x="621" y="650" type="curve"/>
      <point x="648" y="648"/>
      <point x="661" y="638"/>
      <point x="661" y="620" type="curve" smooth="yes"/>
      <point x="661" y="604"/>
      <point x="652" y="591"/>
      <point x="647" y="583" type="curve" smooth="yes"/>
      <point x="322" y="91" type="line"/>
      <point x="239" y="605" type="line" smooth="yes"/>
      <point x="238" y="614"/>
      <point x="237" y="619"/>
      <point x="237" y="622" type="curve" smooth="yes"/>
      <point x="237" y="635"/>
      <point x="252" y="650"/>
      <point x="303" y="650" type="curve" smooth="yes"/>
      <point x="315" y="650"/>
      <point x="328" y="650"/>
      <point x="328" y="669" type="curve" smooth="yes"/>
      <point x="328" y="673"/>
      <point x="325" y="683"/>
      <point x="312" y="683" type="curve" smooth="yes"/>
      <point x="303" y="683"/>
      <point x="263" y="681"/>
      <point x="255" y="680" type="curve"/>
      <point x="234.021" y="680.0"/>
      <point x="213.042" y="680.0"/>
      <point x="192" y="680" type="curve" smooth="yes"/>
      <point x="102" y="680"/>
      <point x="89" y="683"/>
      <point x="80" y="683" type="curve" smooth="yes"/>
      <point x="76" y="683"/>
      <point x="61" y="683"/>
      <point x="61" y="664" type="curve" smooth="yes"/>
      <point x="61" y="650"/>
      <point x="74" y="650"/>
      <point x="89" y="650" type="curve" smooth="yes"/>
      <point x="140" y="650"/>
      <point x="141" y="641"/>
      <point x="145" y="616" type="curve" smooth="yes"/>
      <point x="243" y="7" type="line" smooth="yes"/>
      <point x="246" y="-13"/>
      <point x="247" y="-21"/>
    </contour>
  </outline>
</glyph>
<glyph name="X" format="2">
  <advance width="873"/>
  <unicode hex="0058"/>
  <outline>
    <contour>
      <point x="522" y="382" type="line"/>
      <point x="570" y="431"/>
      <point x="712" y="577"/>
      <point x="736" y="596" type="curve" smooth="yes"/>
      <point x="778" y="628"/>
      <point x="803" y="646"/>
      <point x="875" y="650" type="curve" smooth="yes"/>
      <point x="881" y="650"/>
      <point x="889" y="656"/>
      <point x="889" y="669" type="curve" smooth="yes"/>
      <point x="889" y="678"/>
      <point x="880" y="683"/>
      <point x="875" y="683" type="curve" smooth="yes"/>
      <point x="865" y="683"/>
      <point x="849" y="680"/>
      <point x="781" y="680" type="curve" smooth="yes"/>
      <point x="706" y="680"/>
      <point x="679" y="683"/>
      <point x="674" y="683" type="curve" smooth="yes"/>
      <point x="670" y="683"/>
      <point x="654" y="683"/>
      <point x="654" y="664" type="curve" smooth="yes"/>
      <point x="654" y="663"/>
      <point x="654" y="652"/>
      <point x="669" y="650" type="curve" smooth="yes"/>
      <point x="676" y="649"/>
      <point x="703" y="647"/>
      <point x="703" y="624" type="curve" smooth="yes"/>
      <point x="703" y="615"/>
      <point x="697" y="601"/>
      <point x="675" y="579" type="curve" smooth="yes"/>
      <point x="508" y="410" type="line"/>
      <point x="406" y="622" type="line"/>
      <point x="406" y="622" type="line"/>
      <point x="420" y="646"/>
      <point x="450" y="650"/>
      <point x="462" y="650" type="curve" smooth="yes"/>
      <point x="467" y="650"/>
      <point x="481" y="651"/>
      <point x="481" y="668" type="curve" smooth="yes"/>
      <point x="481" y="677"/>
      <point x="474" y="683"/>
      <point x="465" y="683" type="curve" smooth="yes"/>
      <point x="455" y="683"/>
      <point x="417" y="681"/>
      <point x="407" y="681" type="curve" smooth="yes"/>
      <point x="381" y="680"/>
      <point x="344" y="680"/>
      <point x="323" y="680" type="curve" smooth="yes"/>
      <point x="290" y="680"/>
      <point x="238" y="683"/>
      <point x="229" y="683" type="curve" smooth="yes"/>
      <point x="225" y="683"/>
      <point x="209" y="683"/>
      <point x="209" y="664" type="curve" smooth="yes"/>
      <point x="209" y="650"/>
      <point x="222" y="650"/>
      <point x="238" y="650" type="curve" smooth="yes"/>
      <point x="288" y="650"/>
      <point x="297" y="640"/>
      <point x="306" y="621" type="curve" smooth="yes"/>
      <point x="439" y="341" type="line"/>
      <point x="234" y="132" type="line" smooth="yes"/>
      <point x="174" y="72"/>
      <point x="127" y="37"/>
      <point x="56" y="33" type="curve" smooth="yes"/>
      <point x="44" y="32"/>
      <point x="32" y="32"/>
      <point x="32" y="14" type="curve" smooth="yes"/>
      <point x="32" y="8"/>
      <point x="37" y="0"/>
      <point x="47" y="0" type="curve" smooth="yes"/>
      <point x="54" y="0"/>
      <point x="65" y="3"/>
      <point x="141" y="3" type="curve" smooth="yes"/>
      <point x="213" y="3"/>
      <point x="244" y="0"/>
      <point x="248" y="0" type="curve" smooth="yes"/>
      <point x="253" y="0"/>
      <point x="268" y="0"/>
      <point x="268" y="19" type="curve" smooth="yes"/>
      <point x="268" y="21"/>
      <point x="267" y="32"/>
      <point x="252" y="33" type="curve" smooth="yes"/>
      <point x="233" y="34"/>
      <point x="219" y="41"/>
      <point x="219" y="59" type="curve" smooth="yes"/>
      <point x="219" y="75"/>
      <point x="232" y="88"/>
      <point x="246" y="103" type="curve" smooth="yes"/>
      <point x="275" y="134"/>
      <point x="395" y="255"/>
      <point x="453" y="312" type="curve"/>
      <point x="568" y="73" type="line" smooth="yes"/>
      <point x="573" y="63"/>
      <point x="573" y="62"/>
      <point x="573" y="61" type="curve" smooth="yes"/>
      <point x="573" y="52"/>
      <point x="552" y="35"/>
      <point x="519" y="33" type="curve" smooth="yes"/>
      <point x="512" y="33"/>
      <point x="499" y="32"/>
      <point x="499" y="14" type="curve" smooth="yes"/>
      <point x="499" y="13"/>
      <point x="500" y="0"/>
      <point x="516" y="0" type="curve" smooth="yes"/>
      <point x="526" y="0"/>
      <point x="563" y="3"/>
      <point x="598" y="3" type="curve" smooth="yes"/>
      <point x="637" y="3" type="line" smooth="yes"/>
      <point x="729" y="3"/>
      <point x="743" y="0"/>
      <point x="752" y="0" type="curve" smooth="yes"/>
      <point x="756" y="0"/>
      <point x="771" y="0"/>
      <point x="771" y="19" type="curve" smooth="yes"/>
      <point x="771" y="33"/>
      <point x="758" y="33"/>
      <point x="743" y="33" type="curve" smooth="yes"/>
      <point x="689" y="33"/>
      <point x="683" y="45"/>
      <point x="676" y="60" type="curve" smooth="yes"/>
    </contour>
  </outline>
</glyph>
<glyph name="Y" format="2">
  <advance width="615"/>
  <unicode hex="0059"/>
  <outline>
    <contour>
      <point x="367" y="316" type="line"/>
      <point x="241" y="612" type="line"/>
      <point x="239" y="616"/>
      <point x="235" y="626"/>
      <point x="235" y="630" type="curve" smooth="yes"/>
      <point x="235" y="650"/>
      <point x="282" y="650"/>
      <point x="291" y="650" type="curve" smooth="yes"/>
      <point x="301" y="650"/>
      <point x="315" y="650"/>
      <point x="315" y="669" type="curve" smooth="yes"/>
      <point x="315" y="674"/>
      <point x="311" y="683"/>
      <point x="299" y="683" type="curve" smooth="yes"/>
      <point x="285" y="683"/>
      <point x="252" y="681"/>
      <point x="237" y="680" type="curve"/>
      <point x="175" y="680" type="line" smooth="yes"/>
      <point x="83" y="680"/>
      <point x="69" y="683"/>
      <point x="60" y="683" type="curve" smooth="yes"/>
      <point x="44" y="683"/>
      <point x="41" y="672"/>
      <point x="41" y="664" type="curve" smooth="yes"/>
      <point x="41" y="650"/>
      <point x="54" y="650"/>
      <point x="68" y="650" type="curve" smooth="yes"/>
      <point x="122" y="650"/>
      <point x="127" y="639"/>
      <point x="135" y="620" type="curve" smooth="yes"/>
      <point x="282" y="274" type="line"/>
      <point x="282" y="274" type="line"/>
      <point x="237" y="91" type="line" smooth="yes"/>
      <point x="224" y="37"/>
      <point x="222" y="34"/>
      <point x="145" y="33" type="curve"/>
      <point x="129" y="33"/>
      <point x="117" y="33"/>
      <point x="117" y="14" type="curve" smooth="yes"/>
      <point x="117" y="10"/>
      <point x="120" y="0"/>
      <point x="133" y="0" type="curve" smooth="yes"/>
      <point x="152" y="0"/>
      <point x="175" y="2"/>
      <point x="195" y="3" type="curve" smooth="yes"/>
      <point x="322" y="3" type="line"/>
      <point x="337" y="2"/>
      <point x="371" y="0"/>
      <point x="384" y="0" type="curve" smooth="yes"/>
      <point x="390" y="0"/>
      <point x="405" y="0"/>
      <point x="405" y="19" type="curve" smooth="yes"/>
      <point x="405" y="33"/>
      <point x="392" y="33"/>
      <point x="375" y="33" type="curve" smooth="yes"/>
      <point x="374" y="33"/>
      <point x="353" y="33"/>
      <point x="337" y="35" type="curve" smooth="yes"/>
      <point x="315" y="38"/>
      <point x="314" y="40"/>
      <point x="314" y="50" type="curve" smooth="yes"/>
      <point x="314" y="58"/>
      <point x="326" y="107"/>
      <point x="333" y="136" type="curve" smooth="yes"/>
      <point x="345" y="184"/>
      <point x="354" y="217"/>
      <point x="364" y="259" type="curve" smooth="yes"/>
      <point x="367" y="272"/>
      <point x="368" y="274"/>
      <point x="377" y="284" type="curve" smooth="yes"/>
      <point x="635" y="563" type="line" smooth="yes"/>
      <point x="642" y="571"/>
      <point x="651" y="579"/>
      <point x="659" y="587" type="curve" smooth="yes"/>
      <point x="696" y="621"/>
      <point x="729" y="646"/>
      <point x="785" y="650" type="curve" smooth="yes"/>
      <point x="794" y="651"/>
      <point x="806" y="652"/>
      <point x="806" y="669" type="curve" smooth="yes"/>
      <point x="806" y="676"/>
      <point x="799" y="683"/>
      <point x="792" y="683" type="curve" smooth="yes"/>
      <point x="780" y="683"/>
      <point x="782" y="680"/>
      <point x="709" y="680" type="curve" smooth="yes"/>
      <point x="643" y="680"/>
      <point x="620" y="683"/>
      <point x="614" y="683" type="curve" smooth="yes"/>
      <point x="610" y="683"/>
      <point x="595" y="683"/>
      <point x="595" y="664" type="curve" smooth="yes"/>
      <point x="595" y="655"/>
      <point x="602" y="651"/>
      <point x="611" y="650" type="curve" smooth="yes"/>
      <point x="641" y="648"/>
      <point x="642" y="637"/>
      <point x="642" y="631" type="curve" smooth="yes"/>
      <point x="642" y="612"/>
      <point x="611" y="580"/>
      <point x="611" y="579" type="curve"/>
    </contour>
  </outline>
</glyph>
<glyph name="a" format="2">
  <advance width="564"/>
  <unicode hex="0061"/>
  <outline>
    <contour>
      <point x="43" y="154" type="curve" smooth="yes"/>
      <point x="43" y="50"/>
      <point x="110" y="-10"/>
      <point x="187" y="-10" type="curve" smooth="yes"/>
      <point x="251" y="-10"/>
      <point x="306" y="41"/>
      <point x="324" y="61" type="curve"/>
      <point x="342" y="-8"/>
      <point x="410" y="-10"/>
      <point x="422" y="-10" type="curve" smooth="yes"/>
      <point x="468" y="-10"/>
      <point x="491" y="28"/>
      <point x="499" y="45" type="curve"/>
      <point x="519" y="81"/>
      <point x="533" y="139"/>
      <point x="533" y="143" type="curve" smooth="yes"/>
      <point x="533" y="149"/>
      <point x="529" y="156"/>
      <point x="517" y="156" type="curve" smooth="yes"/>
      <point x="505" y="156"/>
      <point x="503" y="150"/>
      <point x="497" y="125" type="curve" smooth="yes"/>
      <point x="483" y="70"/>
      <point x="464" y="18"/>
      <point x="425" y="18" type="curve" smooth="yes"/>
      <point x="402" y="18"/>
      <point x="393" y="37"/>
      <point x="393" y="65" type="curve" smooth="yes"/>
      <point x="393" y="82"/>
      <point x="402" y="116"/>
      <point x="408" y="141" type="curve" smooth="yes"/>
      <point x="414" y="166"/>
      <point x="429" y="226"/>
      <point x="453" y="320" type="curve" smooth="yes"/>
      <point x="459" y="344"/>
      <point x="469" y="386"/>
      <point x="469" y="391" type="curve" smooth="yes"/>
      <point x="469" y="414"/>
      <point x="450" y="422"/>
      <point x="437" y="422" type="curve" smooth="yes"/>
      <point x="422" y="422"/>
      <point x="397" y="412"/>
      <point x="392" y="381" type="curve"/>
      <point x="383" y="398"/>
      <point x="354" y="441"/>
      <point x="293" y="441" type="curve" smooth="yes"/>
      <point x="174" y="441"/>
      <point x="43" y="302"/>
    </contour>
    <contour>
      <point x="121" y="112" type="curve" smooth="yes"/>
      <point x="121" y="159"/>
      <point x="148" y="266"/>
      <point x="170" y="310" type="curve" smooth="yes"/>
      <point x="199" y="371"/>
      <point x="248" y="413"/>
      <point x="294" y="413" type="curve" smooth="yes"/>
      <point x="359" y="413"/>
      <point x="378" y="340"/>
      <point x="378" y="328" type="curve"/>
      <point x="378.0" y="328.0"/>
      <point x="378.0" y="328.0"/>
      <point x="378" y="328" type="curve"/>
      <point x="378" y="320"/>
      <point x="339" y="174"/>
      <point x="324" y="108" type="curve"/>
      <point x="313.179" y="93.06702"/>
      <point x="302.2643247672" y="80.3822455872"/>
      <point x="291.4789794343083" y="69.67198864418523" type="curve" smooth="yes"/>
      <point x="252.42907232800002" y="30.893949944400006"/>
      <point x="215.07456000000002" y="18.000000000000007"/>
      <point x="190" y="18" type="curve" smooth="yes"/>
      <point x="144" y="18"/>
      <point x="121" y="60"/>
    </contour>
  </outline>
</glyph>
<glyph name="c" format="2">
  <advance width="460"/>
  <unicode hex="0063"/>
  <outline>
    <contour>
      <point x="409" y="383" type="curve"/>
      <point x="368" y="378"/>
      <point x="355" y="347"/>
      <point x="355" y="327" type="curve" smooth="yes"/>
      <point x="355" y="298"/>
      <point x="381" y="290"/>
      <point x="394" y="290" type="curve" smooth="yes"/>
      <point x="399" y="290"/>
      <point x="450" y="294"/>
      <point x="450" y="355" type="curve" smooth="yes"/>
      <point x="450" y="416"/>
      <point x="384" y="441"/>
      <point x="324" y="441" type="curve" smooth="yes"/>
      <point x="182" y="441"/>
      <point x="44" y="303"/>
      <point x="44" y="163" type="curve" smooth="yes"/>
      <point x="44" y="68"/>
      <point x="109" y="-10"/>
      <point x="220" y="-10" type="curve" smooth="yes"/>
      <point x="378" y="-10"/>
      <point x="461" y="91"/>
      <point x="461" y="104" type="curve" smooth="yes"/>
      <point x="461" y="113"/>
      <point x="451" y="120"/>
      <point x="445" y="120" type="curve" smooth="yes"/>
      <point x="439" y="120"/>
      <point x="436" y="117"/>
      <point x="431" y="111" type="curve" smooth="yes"/>
      <point x="352" y="18"/>
      <point x="240" y="18"/>
      <point x="222" y="18" type="curve" smooth="yes"/>
      <point x="168" y="18"/>
      <point x="125" y="51"/>
      <point x="125" y="127" type="curve" smooth="yes"/>
      <point x="125" y="171"/>
      <point x="145" y="277"/>
      <point x="192" y="339" type="curve" smooth="yes"/>
      <point x="236" y="395"/>
      <point x="286" y="413"/>
      <point x="325" y="413" type="curve" smooth="yes"/>
      <point x="337" y="413"/>
      <point x="383" y="412"/>
    </contour>
  </outline>
</glyph>
<glyph name="d" format="2">
  <advance width="546"/>
  <unicode hex="0064"/>
  <outline>
    <contour>
      <point x="187" y="-10" type="curve" smooth="yes"/>
      <point x="251" y="-10"/>
      <point x="306" y="41"/>
      <point x="324" y="61" type="curve"/>
      <point x="342" y="-8"/>
      <point x="410" y="-10"/>
      <point x="422" y="-10" type="curve" smooth="yes"/>
      <point x="468" y="-10"/>
      <point x="491" y="28"/>
      <point x="499" y="45" type="curve"/>
      <point x="519" y="81"/>
      <point x="533" y="139"/>
      <point x="533" y="143" type="curve" smooth="yes"/>
      <point x="533" y="149"/>
      <point x="529" y="156"/>
      <point x="517" y="156" type="curve" smooth="yes"/>
      <point x="505" y="156"/>
      <point x="503" y="150"/>
      <point x="497" y="125" type="curve" smooth="yes"/>
      <point x="483" y="70"/>
      <point x="464" y="18"/>
      <point x="425" y="18" type="curve" smooth="yes"/>
      <point x="402" y="18"/>
      <point x="393" y="37"/>
      <point x="393" y="65" type="curve" smooth="yes"/>
      <point x="393" y="84"/>
      <point x="396" y="95"/>
      <point x="399" y="108" type="curve" smooth="yes"/>
      <point x="538" y="664" type="line"/>
      <point x="539" y="666"/>
      <point x="542" y="679"/>
      <point x="542" y="680" type="curve" smooth="yes"/>
      <point x="542" y="685"/>
      <point x="538" y="694"/>
      <point x="526" y="694" type="curve" smooth="yes"/>
      <point x="522" y="694"/>
      <point x="491.02812" y="690.64487"/>
      <point x="412" y="685" type="curve" smooth="yes"/>
      <point x="390" y="683"/>
      <point x="380" y="682"/>
      <point x="380" y="664" type="curve" smooth="yes"/>
      <point x="380" y="650"/>
      <point x="394" y="650"/>
      <point x="406" y="650" type="curve" smooth="yes"/>
      <point x="454" y="650"/>
      <point x="454" y="644"/>
      <point x="454" y="635" type="curve" smooth="yes"/>
      <point x="454" y="629"/>
      <point x="446" y="596"/>
      <point x="441" y="576" type="curve" smooth="yes"/>
      <point x="392" y="381" type="line"/>
      <point x="383" y="398"/>
      <point x="354" y="441"/>
      <point x="293" y="441" type="curve" smooth="yes"/>
      <point x="174" y="441"/>
      <point x="43" y="302"/>
      <point x="43" y="154" type="curve" smooth="yes"/>
      <point x="43" y="50"/>
      <point x="110" y="-10"/>
    </contour>
    <contour>
      <point x="190" y="18" type="curve" smooth="yes"/>
      <point x="144" y="18"/>
      <point x="121" y="60"/>
      <point x="121" y="112" type="curve" smooth="yes"/>
      <point x="121" y="159"/>
      <point x="148" y="266"/>
      <point x="170" y="310" type="curve" smooth="yes"/>
      <point x="199" y="371"/>
      <point x="248" y="413"/>
      <point x="294" y="413" type="curve" smooth="yes"/>
      <point x="359" y="413"/>
      <point x="378" y="340"/>
      <point x="378" y="328" type="curve" smooth="yes"/>
      <point x="378" y="324"/>
      <point x="353" y="226"/>
      <point x="347" y="200" type="curve" smooth="yes"/>
      <point x="334" y="153"/>
      <point x="334" y="151"/>
      <point x="324" y="108" type="curve"/>
      <point x="324" y="108" type="line"/>
      <point x="274" y="39"/>
      <point x="222" y="18"/>
    </contour>
  </outline>
</glyph>
<glyph name="g" format="2">
  <advance width="505"/>
  <unicode hex="0067"/>
  <outline>
    <contour>
      <point x="496" y="369" type="line" smooth="yes"/>
      <point x="500" y="384"/>
      <point x="500" y="390"/>
      <point x="500" y="391" type="curve" smooth="yes"/>
      <point x="500" y="414"/>
      <point x="481" y="422"/>
      <point x="468" y="422" type="curve" smooth="yes"/>
      <point x="445" y="422"/>
      <point x="427" y="404"/>
      <point x="423" y="383" type="curve"/>
      <point x="415" y="398"/>
      <point x="385" y="441"/>
      <point x="325" y="441" type="curve" smooth="yes"/>
      <point x="206" y="441"/>
      <point x="76" y="308"/>
      <point x="76" y="162" type="curve" smooth="yes"/>
      <point x="76" y="54"/>
      <point x="147" y="0"/>
      <point x="221" y="0" type="curve" smooth="yes"/>
      <point x="267" y="0"/>
      <point x="308" y="25"/>
      <point x="341" y="54" type="curve"/>
      <point x="319" y="-36" type="line" smooth="yes"/>
      <point x="308" y="-78"/>
      <point x="301" y="-107"/>
      <point x="262" y="-140" type="curve" smooth="yes"/>
      <point x="220" y="-176"/>
      <point x="182" y="-176"/>
      <point x="157" y="-176" type="curve" smooth="yes"/>
      <point x="132" y="-176"/>
      <point x="108" y="-175"/>
      <point x="84" y="-170" type="curve"/>
      <point x="106" y="-158"/>
      <point x="116" y="-137"/>
      <point x="116" y="-120" type="curve" smooth="yes"/>
      <point x="116" y="-96"/>
      <point x="98" y="-83"/>
      <point x="77" y="-83" type="curve" smooth="yes"/>
      <point x="52" y="-83"/>
      <point x="21" y="-103"/>
      <point x="21" y="-143" type="curve" smooth="yes"/>
      <point x="21" y="-200"/>
      <point x="99" y="-204"/>
      <point x="159" y="-204" type="curve" smooth="yes"/>
      <point x="301" y="-204"/>
      <point x="372" y="-128"/>
      <point x="387" y="-67" type="curve" smooth="yes"/>
    </contour>
    <contour>
      <point x="361" y="132" type="line" smooth="yes"/>
      <point x="354" y="104"/>
      <point x="332" y="84"/>
      <point x="311" y="65" type="curve"/>
      <point x="302" y="58"/>
      <point x="264" y="28"/>
      <point x="223" y="28" type="curve" smooth="yes"/>
      <point x="183" y="28"/>
      <point x="154" y="61"/>
      <point x="154" y="121" type="curve" smooth="yes"/>
      <point x="154" y="163"/>
      <point x="179" y="272"/>
      <point x="206" y="323" type="curve" smooth="yes"/>
      <point x="238" y="380"/>
      <point x="285" y="413"/>
      <point x="325" y="413" type="curve" smooth="yes"/>
      <point x="392" y="413"/>
      <point x="410" y="339"/>
      <point x="410" y="330" type="curve"/>
      <point x="407" y="316" type="line"/>
    </contour>
  </outline>
</glyph>
<glyph name="h" format="2">
  <advance width="612"/>
  <unicode hex="0068"/>
  <outline>
    <contour>
      <point x="292" y="664" type="line"/>
      <point x="293" y="666"/>
      <point x="296" y="679"/>
      <point x="296" y="680" type="curve" smooth="yes"/>
      <point x="296" y="685"/>
      <point x="292" y="694"/>
      <point x="280" y="694" type="curve" smooth="yes"/>
      <point x="276" y="694"/>
      <point x="245" y="691"/>
      <point x="222" y="689" type="curve" smooth="yes"/>
      <point x="166" y="685" type="line" smooth="yes"/>
      <point x="144" y="683"/>
      <point x="134" y="682"/>
      <point x="134" y="664" type="curve" smooth="yes"/>
      <point x="134" y="650"/>
      <point x="148" y="650"/>
      <point x="160" y="650" type="curve" smooth="yes"/>
      <point x="208" y="650"/>
      <point x="208" y="644"/>
      <point x="208" y="635" type="curve" smooth="yes"/>
      <point x="208" y="632"/>
      <point x="208" y="630"/>
      <point x="203" y="612" type="curve" smooth="yes"/>
      <point x="61" y="43" type="line" smooth="yes"/>
      <point x="57" y="28"/>
      <point x="57" y="22"/>
      <point x="57" y="21" type="curve" smooth="yes"/>
      <point x="57" y="4"/>
      <point x="71" y="-10"/>
      <point x="90" y="-10" type="curve" smooth="yes"/>
      <point x="106" y="-10"/>
      <point x="120" y="0"/>
      <point x="128" y="13" type="curve"/>
      <point x="131" y="19"/>
      <point x="139" y="51"/>
      <point x="144" y="71" type="curve" smooth="yes"/>
      <point x="167" y="160" type="line"/>
      <point x="170" y="175"/>
      <point x="180" y="213"/>
      <point x="183" y="228" type="curve"/>
      <point x="198" y="286"/>
      <point x="198" y="288"/>
      <point x="220" y="320" type="curve" smooth="yes"/>
      <point x="254" y="369"/>
      <point x="301" y="413"/>
      <point x="368" y="413" type="curve" smooth="yes"/>
      <point x="404" y="413"/>
      <point x="425" y="392"/>
      <point x="425" y="345" type="curve" smooth="yes"/>
      <point x="425" y="290"/>
      <point x="383" y="176"/>
      <point x="364" y="127" type="curve" smooth="yes"/>
      <point x="351" y="94"/>
      <point x="351" y="88"/>
      <point x="351" y="75" type="curve" smooth="yes"/>
      <point x="351" y="18"/>
      <point x="398" y="-10"/>
      <point x="441" y="-10" type="curve" smooth="yes"/>
      <point x="539" y="-10"/>
      <point x="580" y="130"/>
      <point x="580" y="143" type="curve" smooth="yes"/>
      <point x="580" y="153"/>
      <point x="572" y="156"/>
      <point x="565" y="156" type="curve" smooth="yes"/>
      <point x="553" y="156"/>
      <point x="551" y="149"/>
      <point x="548" y="139" type="curve" smooth="yes"/>
      <point x="524" y="57"/>
      <point x="482" y="18"/>
      <point x="444" y="18" type="curve" smooth="yes"/>
      <point x="428" y="18"/>
      <point x="420" y="28"/>
      <point x="420" y="51" type="curve" smooth="yes"/>
      <point x="420" y="74"/>
      <point x="428" y="96"/>
      <point x="438" y="121" type="curve" smooth="yes"/>
      <point x="453" y="159"/>
      <point x="497" y="274"/>
      <point x="497" y="330" type="curve" smooth="yes"/>
      <point x="497" y="405"/>
      <point x="445" y="441"/>
      <point x="373" y="441" type="curve" smooth="yes"/>
      <point x="317" y="441"/>
      <point x="264" y="417"/>
      <point x="218" y="364" type="curve"/>
    </contour>
  </outline>
</glyph>
<glyph name="i" format="2">
  <advance width="361"/>
  <unicode hex="0069"/>
  <outline>
    <contour>
      <point x="298" y="624" type="curve" smooth="yes"/>
      <point x="298" y="646"/>
      <point x="282" y="662"/>
      <point x="259" y="662" type="curve" smooth="yes"/>
      <point x="233" y="662"/>
      <point x="204" y="638"/>
      <point x="204" y="608" type="curve" smooth="yes"/>
      <point x="204" y="586"/>
      <point x="220" y="570"/>
      <point x="243" y="570" type="curve" smooth="yes"/>
      <point x="269" y="570"/>
      <point x="298" y="594"/>
    </contour>
    <contour>
      <point x="88" y="75" type="curve" smooth="yes"/>
      <point x="88" y="26"/>
      <point x="126" y="-10"/>
      <point x="179" y="-10" type="curve" smooth="yes"/>
      <point x="276" y="-10"/>
      <point x="317" y="130"/>
      <point x="317" y="143" type="curve" smooth="yes"/>
      <point x="317" y="153"/>
      <point x="309" y="156"/>
      <point x="302" y="156" type="curve" smooth="yes"/>
      <point x="290" y="156"/>
      <point x="288" y="149"/>
      <point x="285" y="139" type="curve" smooth="yes"/>
      <point x="262" y="59"/>
      <point x="221" y="18"/>
      <point x="181" y="18" type="curve" smooth="yes"/>
      <point x="169" y="18"/>
      <point x="157" y="23"/>
      <point x="157" y="50" type="curve" smooth="yes"/>
      <point x="157" y="74"/>
      <point x="164" y="92"/>
      <point x="177" y="123" type="curve" smooth="yes"/>
      <point x="187" y="150"/>
      <point x="197.57912" y="176.77124"/>
      <point x="239" y="285" type="curve" smooth="yes"/>
      <point x="248" y="308"/>
      <point x="260" y="339"/>
      <point x="260" y="356" type="curve" smooth="yes"/>
      <point x="260" y="406"/>
      <point x="220" y="441"/>
      <point x="169" y="441" type="curve" smooth="yes"/>
      <point x="72" y="441"/>
      <point x="30" y="301"/>
      <point x="30" y="288" type="curve" smooth="yes"/>
      <point x="30" y="279"/>
      <point x="37" y="275"/>
      <point x="45" y="275" type="curve" smooth="yes"/>
      <point x="58" y="275"/>
      <point x="59" y="281"/>
      <point x="62" y="291" type="curve" smooth="yes"/>
      <point x="90" y="386"/>
      <point x="136" y="413"/>
      <point x="166" y="413" type="curve" smooth="yes"/>
      <point x="180" y="413"/>
      <point x="190" y="408"/>
      <point x="190" y="380" type="curve" smooth="yes"/>
      <point x="190" y="370"/>
      <point x="191" y="355"/>
      <point x="179" y="326" type="curve" smooth="yes"/>
      <point x="152.027" y="257.069"/>
      <point x="125.054" y="188.138"/>
      <point x="98" y="119" type="curve" smooth="yes"/>
      <point x="92" y="104"/>
      <point x="88" y="92"/>
    </contour>
  </outline>
</glyph>
<glyph name="j" format="2">
  <advance width="429"/>
  <unicode hex="006A"/>
  <outline>
    <contour>
      <point x="413" y="624" type="curve" smooth="yes"/>
      <point x="413" y="643"/>
      <point x="398" y="662"/>
      <point x="374" y="662" type="curve" smooth="yes"/>
      <point x="344" y="662"/>
      <point x="318" y="634"/>
      <point x="318" y="608" type="curve" smooth="yes"/>
      <point x="318" y="589"/>
      <point x="333" y="570"/>
      <point x="357" y="570" type="curve" smooth="yes"/>
      <point x="387" y="570"/>
      <point x="413" y="598"/>
    </contour>
    <contour>
      <point x="204" y="-50" type="line" smooth="yes"/>
      <point x="189" y="-111"/>
      <point x="140" y="-176"/>
      <point x="79" y="-176" type="curve" smooth="yes"/>
      <point x="63" y="-176"/>
      <point x="48" y="-172"/>
      <point x="46" y="-171" type="curve"/>
      <point x="77" y="-156"/>
      <point x="81" y="-129"/>
      <point x="81" y="-120" type="curve" smooth="yes"/>
      <point x="81" y="-96"/>
      <point x="63" y="-83"/>
      <point x="42" y="-83" type="curve" smooth="yes"/>
      <point x="13" y="-83"/>
      <point x="-14" y="-108"/>
      <point x="-14" y="-141" type="curve" smooth="yes"/>
      <point x="-14" y="-179"/>
      <point x="23" y="-204"/>
      <point x="80" y="-204" type="curve" smooth="yes"/>
      <point x="141" y="-204"/>
      <point x="251" y="-166"/>
      <point x="281" y="-46" type="curve" smooth="yes"/>
      <point x="371" y="312" type="line" smooth="yes"/>
      <point x="374" y="324"/>
      <point x="376" y="332"/>
      <point x="376" y="347" type="curve" smooth="yes"/>
      <point x="376" y="402"/>
      <point x="332" y="441"/>
      <point x="274" y="441" type="curve" smooth="yes"/>
      <point x="168" y="441"/>
      <point x="106" y="301"/>
      <point x="106" y="288" type="curve" smooth="yes"/>
      <point x="106" y="279"/>
      <point x="113" y="275"/>
      <point x="121" y="275" type="curve" smooth="yes"/>
      <point x="132" y="275"/>
      <point x="133" y="278"/>
      <point x="140" y="293" type="curve" smooth="yes"/>
      <point x="170" y="362"/>
      <point x="221" y="413"/>
      <point x="271" y="413" type="curve" smooth="yes"/>
      <point x="292" y="413"/>
      <point x="304" y="399"/>
      <point x="304" y="366" type="curve" smooth="yes"/>
      <point x="304" y="352"/>
      <point x="301" y="338"/>
      <point x="298" y="324" type="curve" smooth="yes"/>
    </contour>
  </outline>
</glyph>
<glyph name="k" format="2">
  <advance width="553"/>
  <unicode hex="006B"/>
  <outline>
    <contour>
      <point x="292" y="664" type="line"/>
      <point x="293" y="666"/>
      <point x="296" y="679"/>
      <point x="296" y="680" type="curve" smooth="yes"/>
      <point x="296" y="685"/>
      <point x="292" y="694"/>
      <point x="280" y="694" type="curve" smooth="yes"/>
      <point x="276" y="694"/>
      <point x="245" y="691"/>
      <point x="222" y="689" type="curve" smooth="yes"/>
      <point x="166" y="685" type="line" smooth="yes"/>
      <point x="144" y="683"/>
      <point x="134" y="682"/>
      <point x="134" y="664" type="curve" smooth="yes"/>
      <point x="134" y="650"/>
      <point x="148" y="650"/>
      <point x="160" y="650" type="curve" smooth="yes"/>
      <point x="208" y="650"/>
      <point x="208" y="644"/>
      <point x="208" y="635" type="curve" smooth="yes"/>
      <point x="208" y="632"/>
      <point x="208" y="630"/>
      <point x="203" y="612" type="curve" smooth="yes"/>
      <point x="61" y="43" type="line" smooth="yes"/>
      <point x="57" y="28"/>
      <point x="57" y="22"/>
      <point x="57" y="21" type="curve" smooth="yes"/>
      <point x="57" y="4"/>
      <point x="71" y="-10"/>
      <point x="90" y="-10" type="curve" smooth="yes"/>
      <point x="124" y="-10"/>
      <point x="132" y="22"/>
      <point x="136" y="36" type="curve" smooth="yes"/>
      <point x="146" y="78"/>
      <point x="172" y="184"/>
      <point x="183" y="226" type="curve"/>
      <point x="238" y="220"/>
      <point x="305" y="201"/>
      <point x="305" y="144" type="curve" smooth="yes"/>
      <point x="305" y="139"/>
      <point x="305" y="134"/>
      <point x="303" y="124" type="curve" smooth="yes"/>
      <point x="300" y="111"/>
      <point x="298" y="97"/>
      <point x="298" y="92" type="curve" smooth="yes"/>
      <point x="298" y="33"/>
      <point x="342" y="-10"/>
      <point x="400" y="-10" type="curve" smooth="yes"/>
      <point x="442" y="-10"/>
      <point x="468" y="21"/>
      <point x="481" y="40" type="curve" smooth="yes"/>
      <point x="505" y="77"/>
      <point x="521" y="137"/>
      <point x="521" y="143" type="curve" smooth="yes"/>
      <point x="521" y="153"/>
      <point x="513" y="156"/>
      <point x="506" y="156" type="curve" smooth="yes"/>
      <point x="494" y="156"/>
      <point x="492" y="150"/>
      <point x="488" y="132" type="curve"/>
      <point x="475" y="85"/>
      <point x="449" y="18"/>
      <point x="402" y="18" type="curve" smooth="yes"/>
      <point x="376" y="18"/>
      <point x="370" y="40"/>
      <point x="370" y="67" type="curve" smooth="yes"/>
      <point x="370" y="80"/>
      <point x="371" y="92"/>
      <point x="376" y="115" type="curve" smooth="yes"/>
      <point x="377" y="119"/>
      <point x="381" y="135"/>
      <point x="381" y="146" type="curve" smooth="yes"/>
      <point x="381" y="228"/>
      <point x="278" y="246"/>
      <point x="227" y="253" type="curve"/>
      <point x="264" y="275"/>
      <point x="298" y="309"/>
      <point x="310" y="322" type="curve" smooth="yes"/>
      <point x="365" y="376"/>
      <point x="410" y="413"/>
      <point x="458" y="413" type="curve" smooth="yes"/>
      <point x="471" y="413"/>
      <point x="483" y="410"/>
      <point x="491" y="400" type="curve"/>
      <point x="437" y="393"/>
      <point x="437" y="346"/>
      <point x="437" y="345" type="curve" smooth="yes"/>
      <point x="437" y="323"/>
      <point x="454" y="308"/>
      <point x="476" y="308" type="curve" smooth="yes"/>
      <point x="503" y="308"/>
      <point x="533" y="330"/>
      <point x="533" y="371" type="curve" smooth="yes"/>
      <point x="533" y="405"/>
      <point x="509" y="441"/>
      <point x="459" y="441" type="curve" smooth="yes"/>
      <point x="401" y="441"/>
      <point x="349" y="397"/>
      <point x="292" y="340" type="curve" smooth="yes"/>
      <point x="234" y="283"/>
      <point x="209" y="272"/>
      <point x="193" y="265" type="curve"/>
    </contour>
  </outline>
</glyph>
<glyph name="l" format="2">
  <advance width="317"/>
  <unicode hex="006C"/>
  <outline>
    <contour>
      <point x="262" y="664" type="line"/>
      <point x="263" y="666"/>
      <point x="266" y="679"/>
      <point x="266" y="680" type="curve" smooth="yes"/>
      <point x="266" y="685"/>
      <point x="262" y="694"/>
      <point x="250" y="694" type="curve"/>
      <point x="149" y="686" type="line" smooth="yes"/>
      <point x="112" y="683"/>
      <point x="104" y="682"/>
      <point x="104" y="664" type="curve" smooth="yes"/>
      <point x="104" y="650"/>
      <point x="118" y="650"/>
      <point x="130" y="650" type="curve" smooth="yes"/>
      <point x="178" y="650"/>
      <point x="178" y="644"/>
      <point x="178" y="635" type="curve" smooth="yes"/>
      <point x="178" y="632"/>
      <point x="178" y="630"/>
      <point x="173" y="612" type="curve" smooth="yes"/>
      <point x="49" y="116" type="line" smooth="yes"/>
      <point x="45" y="100"/>
      <point x="45" y="85"/>
      <point x="45" y="84" type="curve" smooth="yes"/>
      <point x="45" y="22"/>
      <point x="96" y="-10"/>
      <point x="146" y="-10" type="curve" smooth="yes"/>
      <point x="189" y="-10"/>
      <point x="212" y="24"/>
      <point x="223" y="46" type="curve" smooth="yes"/>
      <point x="241" y="79"/>
      <point x="256" y="138"/>
      <point x="256" y="143" type="curve" smooth="yes"/>
      <point x="256" y="149"/>
      <point x="253" y="156"/>
      <point x="240" y="156" type="curve" smooth="yes"/>
      <point x="231" y="156"/>
      <point x="228" y="151"/>
      <point x="228" y="150" type="curve"/>
      <point x="226" y="147"/>
      <point x="221" y="129"/>
      <point x="218" y="118" type="curve" smooth="yes"/>
      <point x="203" y="60"/>
      <point x="184" y="18"/>
      <point x="148" y="18" type="curve" smooth="yes"/>
      <point x="124" y="18"/>
      <point x="117" y="41"/>
      <point x="117" y="65" type="curve" smooth="yes"/>
      <point x="117" y="84"/>
      <point x="120" y="95"/>
      <point x="123" y="108" type="curve" smooth="yes"/>
    </contour>
  </outline>
</glyph>
<glyph name="m" format="2">
  <advance width="939"/>
  <unicode hex="006D"/>
  <outline>
    <contour>
      <point x="200" y="164" type="line"/>
      <point x="203" y="179"/>
      <point x="213" y="217"/>
      <point x="216" y="232" type="curve"/>
      <point x="219" y="242"/>
      <point x="225" y="266"/>
      <point x="227" y="276" type="curve"/>
      <point x="229" y="281"/>
      <point x="262" y="346"/>
      <point x="306" y="379" type="curve" smooth="yes"/>
      <point x="340" y="405"/>
      <point x="373" y="413"/>
      <point x="401" y="413" type="curve" smooth="yes"/>
      <point x="438" y="413"/>
      <point x="458" y="391"/>
      <point x="458" y="345" type="curve" smooth="yes"/>
      <point x="458" y="321"/>
      <point x="452" y="298"/>
      <point x="441" y="253" type="curve" smooth="yes"/>
      <point x="434" y="227"/>
      <point x="417" y="160"/>
      <point x="411" y="133" type="curve" smooth="yes"/>
      <point x="396" y="73" type="line" smooth="yes"/>
      <point x="391" y="56"/>
      <point x="384" y="26"/>
      <point x="384" y="21" type="curve" smooth="yes"/>
      <point x="384" y="-2"/>
      <point x="403" y="-10"/>
      <point x="416" y="-10" type="curve" smooth="yes"/>
      <point x="434" y="-10"/>
      <point x="449" y="2"/>
      <point x="456" y="14" type="curve"/>
      <point x="459" y="20"/>
      <point x="467" y="54"/>
      <point x="472" y="75" type="curve" smooth="yes"/>
      <point x="495" y="164" type="line"/>
      <point x="498" y="179"/>
      <point x="508" y="217"/>
      <point x="511" y="232" type="curve"/>
      <point x="525" y="286"/>
      <point x="525" y="287"/>
      <point x="548" y="320" type="curve" smooth="yes"/>
      <point x="581" y="369"/>
      <point x="628" y="413"/>
      <point x="695" y="413" type="curve" smooth="yes"/>
      <point x="731" y="413"/>
      <point x="752" y="392"/>
      <point x="752" y="345" type="curve" smooth="yes"/>
      <point x="752" y="290"/>
      <point x="710" y="175"/>
      <point x="691" y="127" type="curve" smooth="yes"/>
      <point x="681" y="101"/>
      <point x="678" y="94"/>
      <point x="678" y="75" type="curve" smooth="yes"/>
      <point x="678" y="18"/>
      <point x="725" y="-10"/>
      <point x="768" y="-10" type="curve" smooth="yes"/>
      <point x="866" y="-10"/>
      <point x="907" y="130"/>
      <point x="907" y="143" type="curve" smooth="yes"/>
      <point x="907" y="153"/>
      <point x="899" y="156"/>
      <point x="892" y="156" type="curve" smooth="yes"/>
      <point x="880" y="156"/>
      <point x="878" y="149"/>
      <point x="875" y="139" type="curve" smooth="yes"/>
      <point x="851" y="56"/>
      <point x="809" y="18"/>
      <point x="771" y="18" type="curve" smooth="yes"/>
      <point x="755" y="18"/>
      <point x="747" y="28"/>
      <point x="747" y="51" type="curve" smooth="yes"/>
      <point x="747" y="74"/>
      <point x="755" y="96"/>
      <point x="765" y="121" type="curve" smooth="yes"/>
      <point x="780" y="159"/>
      <point x="824" y="274"/>
      <point x="824" y="330" type="curve" smooth="yes"/>
      <point x="824" y="405"/>
      <point x="772" y="441"/>
      <point x="700" y="441" type="curve" smooth="yes"/>
      <point x="631" y="441"/>
      <point x="574" y="405"/>
      <point x="529" y="343" type="curve"/>
      <point x="521" y="423"/>
      <point x="457" y="441"/>
      <point x="405" y="441" type="curve" smooth="yes"/>
      <point x="359" y="441"/>
      <point x="298" y="425"/>
      <point x="243" y="353" type="curve"/>
      <point x="236" y="413"/>
      <point x="188" y="441"/>
      <point x="141" y="441" type="curve" smooth="yes"/>
      <point x="106" y="441"/>
      <point x="81" y="420"/>
      <point x="64" y="386" type="curve" smooth="yes"/>
      <point x="40" y="339"/>
      <point x="30" y="290"/>
      <point x="30" y="288" type="curve" smooth="yes"/>
      <point x="30" y="279"/>
      <point x="37" y="275"/>
      <point x="45" y="275" type="curve" smooth="yes"/>
      <point x="58" y="275"/>
      <point x="59" y="279"/>
      <point x="66" y="305" type="curve" smooth="yes"/>
      <point x="78" y="354"/>
      <point x="96" y="413"/>
      <point x="138" y="413" type="curve" smooth="yes"/>
      <point x="164" y="413"/>
      <point x="170" y="388"/>
      <point x="170" y="366" type="curve" smooth="yes"/>
      <point x="170" y="348"/>
      <point x="165" y="329"/>
      <point x="157" y="296" type="curve" smooth="yes"/>
      <point x="155" y="288"/>
      <point x="140" y="229"/>
      <point x="136" y="215" type="curve" smooth="yes"/>
      <point x="99" y="65" type="line" smooth="yes"/>
      <point x="95" y="50"/>
      <point x="89" y="25"/>
      <point x="89" y="21" type="curve" smooth="yes"/>
      <point x="89" y="-2"/>
      <point x="108" y="-10"/>
      <point x="121" y="-10" type="curve" smooth="yes"/>
      <point x="139" y="-10"/>
      <point x="154" y="2"/>
      <point x="161" y="14" type="curve"/>
      <point x="164" y="20"/>
      <point x="172" y="54"/>
      <point x="177" y="75" type="curve" smooth="yes"/>
    </contour>
  </outline>
</glyph>
<glyph name="o" format="2">
  <advance width="513"/>
  <unicode hex="006F"/>
  <outline>
    <contour>
      <point x="498" y="268" type="curve" smooth="yes"/>
      <point x="498" y="366"/>
      <point x="428" y="441"/>
      <point x="324" y="441" type="curve" smooth="yes"/>
      <point x="182" y="441"/>
      <point x="44" y="303"/>
      <point x="44" y="163" type="curve" smooth="yes"/>
      <point x="44" y="61"/>
      <point x="116" y="-10"/>
      <point x="218" y="-10" type="curve" smooth="yes"/>
      <point x="361" y="-10"/>
      <point x="498" y="130"/>
    </contour>
    <contour>
      <point x="219" y="18" type="curve" smooth="yes"/>
      <point x="184" y="18"/>
      <point x="125" y="36"/>
      <point x="125" y="128" type="curve" smooth="yes"/>
      <point x="125" y="169"/>
      <point x="144" y="277"/>
      <point x="192" y="339" type="curve" smooth="yes"/>
      <point x="241" y="402"/>
      <point x="296" y="413"/>
      <point x="323" y="413" type="curve" smooth="yes"/>
      <point x="364" y="413"/>
      <point x="417" y="388"/>
      <point x="417" y="304" type="curve" smooth="yes"/>
      <point x="417" y="264"/>
      <point x="399" y="169"/>
      <point x="361" y="109" type="curve" smooth="yes"/>
      <point x="324" y="52"/>
      <point x="269" y="18"/>
    </contour>
  </outline>
</glyph>
<glyph name="p" format="2">
  <advance width="534"/>
  <unicode hex="0070"/>
  <outline>
    <contour>
      <point x="52" y="-121" type="line" smooth="yes"/>
      <point x="44" y="-153"/>
      <point x="42" y="-161"/>
      <point x="2" y="-161" type="curve" smooth="yes"/>
      <point x="-12" y="-161"/>
      <point x="-24" y="-161"/>
      <point x="-24" y="-180" type="curve" smooth="yes"/>
      <point x="-24" y="-189"/>
      <point x="-15" y="-194"/>
      <point x="-10" y="-194" type="curve" smooth="yes"/>
      <point x="0" y="-194"/>
      <point x="4" y="-191"/>
      <point x="78" y="-191" type="curve" smooth="yes"/>
      <point x="150" y="-191"/>
      <point x="171" y="-194"/>
      <point x="178" y="-194" type="curve" smooth="yes"/>
      <point x="182" y="-194"/>
      <point x="197" y="-194"/>
      <point x="197" y="-175" type="curve" smooth="yes"/>
      <point x="197" y="-161"/>
      <point x="183" y="-161"/>
      <point x="171" y="-161" type="curve" smooth="yes"/>
      <point x="123" y="-161"/>
      <point x="123" y="-155"/>
      <point x="123" y="-146" type="curve" smooth="yes"/>
      <point x="123" y="-143"/>
      <point x="126" y="-131"/>
      <point x="131" y="-111" type="curve" smooth="yes"/>
      <point x="144.32" y="-57.72"/>
      <point x="157.64" y="-4.439999999999998"/>
      <point x="171" y="49" type="curve"/>
      <point x="184" y="26"/>
      <point x="215" y="-10"/>
      <point x="269" y="-10" type="curve" smooth="yes"/>
      <point x="392" y="-10"/>
      <point x="520" y="132"/>
      <point x="520" y="277" type="curve" smooth="yes"/>
      <point x="520" y="376"/>
      <point x="456" y="441"/>
      <point x="376" y="441" type="curve" smooth="yes"/>
      <point x="316" y="441"/>
      <point x="268" y="400"/>
      <point x="239" y="370" type="curve"/>
      <point x="218" y="441"/>
      <point x="151" y="441"/>
      <point x="141" y="441" type="curve" smooth="yes"/>
      <point x="105" y="441"/>
      <point x="80" y="418"/>
      <point x="64" y="387" type="curve" smooth="yes"/>
      <point x="41" y="342"/>
      <point x="30" y="291"/>
      <point x="30" y="288" type="curve" smooth="yes"/>
      <point x="30" y="279"/>
      <point x="37" y="275"/>
      <point x="45" y="275" type="curve" smooth="yes"/>
      <point x="58" y="275"/>
      <point x="59" y="279"/>
      <point x="66" y="305" type="curve" smooth="yes"/>
      <point x="79" y="356"/>
      <point x="97" y="413"/>
      <point x="138" y="413" type="curve" smooth="yes"/>
      <point x="163" y="413"/>
      <point x="170" y="390"/>
      <point x="170" y="366" type="curve" smooth="yes"/>
      <point x="170" y="356"/>
      <point x="166" y="332"/>
      <point x="164" y="324" type="curve" smooth="yes"/>
    </contour>
    <contour>
      <point x="373" y="413" type="curve" smooth="yes"/>
      <point x="423" y="413"/>
      <point x="442" y="364"/>
      <point x="442" y="319" type="curve" smooth="yes"/>
      <point x="442" y="282"/>
      <point x="420" y="175"/>
      <point x="390" y="116" type="curve" smooth="yes"/>
      <point x="364" y="62"/>
      <point x="316" y="18"/>
      <point x="269" y="18" type="curve" smooth="yes"/>
      <point x="201" y="18"/>
      <point x="185" y="96"/>
      <point x="185" y="103" type="curve" smooth="yes"/>
      <point x="185" y="105"/>
      <point x="187" y="116"/>
      <point x="188" y="119" type="curve"/>
      <point x="236" y="308" type="line" smooth="yes"/>
      <point x="241" y="325"/>
      <point x="241" y="327"/>
      <point x="256" y="345" type="curve" smooth="yes"/>
      <point x="294" y="390"/>
      <point x="337" y="413"/>
    </contour>
  </outline>
</glyph>
<glyph name="q" format="2">
  <advance width="474"/>
  <unicode hex="0071"/>
  <outline>
    <contour>
      <point x="286" y="-191" type="curve" smooth="yes"/>
      <point x="366" y="-191"/>
      <point x="384" y="-194"/>
      <point x="392" y="-194" type="curve" smooth="yes"/>
      <point x="396" y="-194"/>
      <point x="411" y="-194"/>
      <point x="411" y="-175" type="curve" smooth="yes"/>
      <point x="411" y="-161"/>
      <point x="397" y="-161"/>
      <point x="385" y="-161" type="curve" smooth="yes"/>
      <point x="337" y="-161"/>
      <point x="337" y="-155"/>
      <point x="337" y="-146" type="curve" smooth="yes"/>
      <point x="337" y="-145"/>
      <point x="337" y="-140"/>
      <point x="341" y="-125" type="curve" smooth="yes"/>
      <point x="476" y="412" type="line" smooth="yes"/>
      <point x="477" y="416"/>
      <point x="478" y="422"/>
      <point x="478" y="427" type="curve" smooth="yes"/>
      <point x="478" y="433"/>
      <point x="474" y="441"/>
      <point x="465" y="441" type="curve" smooth="yes"/>
      <point x="453" y="441"/>
      <point x="412" y="402"/>
      <point x="396" y="374" type="curve"/>
      <point x="385" y="396"/>
      <point x="355" y="441"/>
      <point x="293" y="441" type="curve" smooth="yes"/>
      <point x="174" y="441"/>
      <point x="43" y="302"/>
      <point x="43" y="154" type="curve" smooth="yes"/>
      <point x="43" y="50"/>
      <point x="110" y="-10"/>
      <point x="187" y="-10" type="curve" smooth="yes"/>
      <point x="237" y="-10"/>
      <point x="278" y="19"/>
      <point x="308" y="45" type="curve"/>
      <point x="308" y="45" type="line"/>
      <point x="307" y="42"/>
      <point x="276" y="-84"/>
      <point x="272" y="-101" type="curve" smooth="yes"/>
      <point x="257" y="-159"/>
      <point x="257" y="-160"/>
      <point x="194" y="-161" type="curve"/>
      <point x="182" y="-161"/>
      <point x="169" y="-161"/>
      <point x="169" y="-180" type="curve" smooth="yes"/>
      <point x="169" y="-186"/>
      <point x="174" y="-194"/>
      <point x="184" y="-194" type="curve" smooth="yes"/>
      <point x="197" y="-194"/>
      <point x="219.9616" y="-191.0"/>
    </contour>
    <contour>
      <point x="190" y="18" type="curve" smooth="yes"/>
      <point x="144" y="18"/>
      <point x="121" y="60"/>
      <point x="121" y="112" type="curve" smooth="yes"/>
      <point x="121" y="159"/>
      <point x="148" y="266"/>
      <point x="170" y="310" type="curve" smooth="yes"/>
      <point x="199" y="371"/>
      <point x="248" y="413"/>
      <point x="294" y="413" type="curve" smooth="yes"/>
      <point x="361" y="413"/>
      <point x="378" y="335"/>
      <point x="378" y="328" type="curve" smooth="yes"/>
      <point x="378" y="324"/>
      <point x="376" y="317"/>
      <point x="375" y="312" type="curve" smooth="yes"/>
      <point x="328" y="124" type="line" smooth="yes"/>
      <point x="324" y="109"/>
      <point x="324" y="106"/>
      <point x="307" y="87" type="curve" smooth="yes"/>
      <point x="255" y="26"/>
      <point x="211" y="18"/>
    </contour>
  </outline>
</glyph>
<glyph name="r" format="2">
  <advance width="479"/>
  <unicode hex="0072"/>
  <outline>
    <contour>
      <point x="193" y="138" type="line" smooth="yes"/>
      <point x="204" y="181"/>
      <point x="215" y="224"/>
      <point x="225" y="268" type="curve"/>
      <point x="226" y="270"/>
      <point x="233" y="299"/>
      <point x="234" y="304" type="curve"/>
      <point x="237" y="313"/>
      <point x="262" y="354"/>
      <point x="288" y="379" type="curve" smooth="yes"/>
      <point x="320" y="408"/>
      <point x="354" y="413"/>
      <point x="372" y="413" type="curve" smooth="yes"/>
      <point x="383" y="413"/>
      <point x="401" y="412"/>
      <point x="415" y="400" type="curve"/>
      <point x="372" y="391"/>
      <point x="366" y="354"/>
      <point x="366" y="345" type="curve" smooth="yes"/>
      <point x="366" y="323"/>
      <point x="383" y="308"/>
      <point x="405" y="308" type="curve" smooth="yes"/>
      <point x="432" y="308"/>
      <point x="462" y="330"/>
      <point x="462" y="370" type="curve" smooth="yes"/>
      <point x="462" y="406"/>
      <point x="431" y="441"/>
      <point x="374" y="441" type="curve" smooth="yes"/>
      <point x="306" y="441"/>
      <point x="260" y="396"/>
      <point x="239" y="369" type="curve"/>
      <point x="219" y="441"/>
      <point x="151" y="441"/>
      <point x="141" y="441" type="curve" smooth="yes"/>
      <point x="105" y="441"/>
      <point x="80" y="418"/>
      <point x="64" y="387" type="curve" smooth="yes"/>
      <point x="41" y="342"/>
      <point x="30" y="291"/>
      <point x="30" y="288" type="curve" smooth="yes"/>
      <point x="30" y="279"/>
      <point x="37" y="275"/>
      <point x="45" y="275" type="curve" smooth="yes"/>
      <point x="58" y="275"/>
      <point x="59" y="279"/>
      <point x="66" y="305" type="curve" smooth="yes"/>
      <point x="78" y="354"/>
      <point x="96" y="413"/>
      <point x="138" y="413" type="curve" smooth="yes"/>
      <point x="164" y="413"/>
      <point x="170" y="388"/>
      <point x="170" y="366" type="curve" smooth="yes"/>
      <point x="170" y="348"/>
      <point x="165" y="329"/>
      <point x="157" y="296" type="curve" smooth="yes"/>
      <point x="155" y="288"/>
      <point x="140" y="229"/>
      <point x="136" y="215" type="curve" smooth="yes"/>
      <point x="99" y="65" type="line" smooth="yes"/>
      <point x="95" y="50"/>
      <point x="89" y="25"/>
      <point x="89" y="21" type="curve" smooth="yes"/>
      <point x="89" y="-2"/>
      <point x="108" y="-10"/>
      <point x="121" y="-10" type="curve" smooth="yes"/>
      <point x="156" y="-10"/>
      <point x="163" y="18"/>
      <point x="171" y="52" type="curve" smooth="yes"/>
    </contour>
  </outline>
</glyph>
<glyph name="s" format="2">
  <advance width="491"/>
  <unicode hex="0073"/>
  <outline>
    <contour>
      <point x="208" y="-10" type="curve" smooth="yes"/>
      <point x="382" y="-10"/>
      <point x="419" y="113"/>
      <point x="419" y="155" type="curve" smooth="yes"/>
      <point x="419.0" y="194.9996"/>
      <point x="399.64236246720003" y="220.9747891344"/>
      <point x="374.88551637698106" y="238.10511023054266" type="curve" smooth="yes"/>
      <point x="343.9389017296" y="259.5183970368"/>
      <point x="305" y="267"/>
      <point x="284" y="271" type="curve" smooth="yes"/>
      <point x="251.99984" y="277.00003"/>
      <point x="223.9997200001" y="282.1111622222"/>
      <point x="208.88866222318893" y="297.2965240748296" type="curve" smooth="yes"/>
      <point x="201.3332466671" y="304.88909111149997"/>
      <point x="197.0" y="315.00014"/>
      <point x="197" y="329" type="curve" smooth="yes"/>
      <point x="197" y="339"/>
      <point x="202.0283228932" y="362.7765775808"/>
      <point x="222.21945882006074" y="382.622691535852" type="curve" smooth="yes"/>
      <point x="239.153935968" y="399.2677958264"/>
      <point x="266.75442" y="413.0"/>
      <point x="311" y="413" type="curve" smooth="yes"/>
      <point x="349" y="413"/>
      <point x="388" y="402"/>
      <point x="403" y="376" type="curve"/>
      <point x="380" y="372"/>
      <point x="359" y="354"/>
      <point x="359" y="329" type="curve" smooth="yes"/>
      <point x="359" y="311"/>
      <point x="371" y="298"/>
      <point x="393" y="298" type="curve" smooth="yes"/>
      <point x="408" y="298"/>
      <point x="439" y="309"/>
      <point x="439" y="354" type="curve" smooth="yes"/>
      <point x="439" y="416"/>
      <point x="374" y="441"/>
      <point x="312" y="441" type="curve" smooth="yes"/>
      <point x="178" y="441"/>
      <point x="136" y="346"/>
      <point x="136" y="295" type="curve" smooth="yes"/>
      <point x="136" y="285"/>
      <point x="136" y="249"/>
      <point x="173" y="221" type="curve" smooth="yes"/>
      <point x="196" y="203"/>
      <point x="213" y="200"/>
      <point x="265" y="190" type="curve" smooth="yes"/>
      <point x="288.58685" y="185.28263"/>
      <point x="322.16510313820004" y="179.2027959357"/>
      <point x="341.5560679318598" y="159.82418175865863" type="curve" smooth="yes"/>
      <point x="350.93892277829997" y="150.4473030998"/>
      <point x="356.99999999999994" y="137.95668"/>
      <point x="357" y="121" type="curve" smooth="yes"/>
      <point x="357" y="95"/>
      <point x="338" y="62"/>
      <point x="310" y="43" type="curve" smooth="yes"/>
      <point x="273" y="19"/>
      <point x="224" y="18"/>
      <point x="208" y="18" type="curve" smooth="yes"/>
      <point x="184" y="18"/>
      <point x="116" y="22"/>
      <point x="91" y="62" type="curve"/>
      <point x="142" y="64"/>
      <point x="149" y="105"/>
      <point x="149" y="117" type="curve" smooth="yes"/>
      <point x="149" y="147"/>
      <point x="122" y="154"/>
      <point x="110" y="154" type="curve" smooth="yes"/>
      <point x="94" y="154"/>
      <point x="53" y="142"/>
      <point x="53" y="87" type="curve" smooth="yes"/>
      <point x="53" y="28"/>
      <point x="115" y="-10"/>
    </contour>
  </outline>
</glyph>
<glyph name="t" format="2">
  <advance width="383"/>
  <unicode hex="0074"/>
  <outline>
    <contour>
      <point x="221" y="398" type="line"/>
      <point x="319" y="398" type="line" smooth="yes"/>
      <point x="338" y="398"/>
      <point x="350" y="398"/>
      <point x="350" y="417" type="curve" smooth="yes"/>
      <point x="350" y="431"/>
      <point x="337" y="431"/>
      <point x="320" y="431" type="curve" smooth="yes"/>
      <point x="229" y="431" type="line"/>
      <point x="265" y="573" type="line" smooth="yes"/>
      <point x="269" y="588"/>
      <point x="269" y="593"/>
      <point x="269" y="594" type="curve" smooth="yes"/>
      <point x="269" y="615"/>
      <point x="253" y="625"/>
      <point x="236" y="625" type="curve" smooth="yes"/>
      <point x="202" y="625"/>
      <point x="195" y="598"/>
      <point x="184" y="553" type="curve" smooth="yes"/>
      <point x="153" y="431" type="line"/>
      <point x="57" y="431" type="line" smooth="yes"/>
      <point x="38" y="431"/>
      <point x="25" y="431"/>
      <point x="25" y="412" type="curve" smooth="yes"/>
      <point x="25" y="398"/>
      <point x="38" y="398"/>
      <point x="55" y="398" type="curve" smooth="yes"/>
      <point x="145" y="398" type="line"/>
      <point x="85" y="158" type="line" smooth="yes"/>
      <point x="79" y="133"/>
      <point x="70" y="98"/>
      <point x="70" y="84" type="curve" smooth="yes"/>
      <point x="70" y="24"/>
      <point x="119" y="-10"/>
      <point x="172" y="-10" type="curve" smooth="yes"/>
      <point x="279" y="-10"/>
      <point x="340" y="131"/>
      <point x="340" y="143" type="curve" smooth="yes"/>
      <point x="340" y="154"/>
      <point x="331" y="156"/>
      <point x="325" y="156" type="curve" smooth="yes"/>
      <point x="314" y="156"/>
      <point x="313" y="152"/>
      <point x="306" y="137" type="curve" smooth="yes"/>
      <point x="286" y="89"/>
      <point x="236" y="18"/>
      <point x="175" y="18" type="curve" smooth="yes"/>
      <point x="154" y="18"/>
      <point x="142" y="32"/>
      <point x="142" y="65" type="curve" smooth="yes"/>
      <point x="142" y="84"/>
      <point x="145" y="95"/>
      <point x="148" y="108" type="curve" smooth="yes"/>
    </contour>
  </outline>
</glyph>
<glyph name="u" format="2">
  <advance width="615"/>
  <unicode hex="0075"/>
  <outline>
    <contour>
      <point x="251" y="-10" type="curve" smooth="yes"/>
      <point x="326" y="-10"/>
      <point x="372" y="50"/>
      <point x="376" y="55" type="curve"/>
      <point x="392" y="8"/>
      <point x="437" y="-10"/>
      <point x="473" y="-10" type="curve" smooth="yes"/>
      <point x="520" y="-10"/>
      <point x="543" y="30"/>
      <point x="550" y="45" type="curve"/>
      <point x="570" y="81"/>
      <point x="584" y="139"/>
      <point x="584" y="143" type="curve" smooth="yes"/>
      <point x="584" y="149"/>
      <point x="580" y="156"/>
      <point x="568" y="156" type="curve" smooth="yes"/>
      <point x="556" y="156"/>
      <point x="554" y="151"/>
      <point x="548" y="125" type="curve" smooth="yes"/>
      <point x="535" y="75"/>
      <point x="517" y="18"/>
      <point x="476" y="18" type="curve" smooth="yes"/>
      <point x="453" y="18"/>
      <point x="444" y="37"/>
      <point x="444" y="65" type="curve" smooth="yes"/>
      <point x="444" y="82"/>
      <point x="453" y="116"/>
      <point x="459" y="141" type="curve" smooth="yes"/>
      <point x="465" y="166"/>
      <point x="479" y="226"/>
      <point x="504" y="320" type="curve" smooth="yes"/>
      <point x="510" y="347"/>
      <point x="522" y="394"/>
      <point x="522" y="400" type="curve" smooth="yes"/>
      <point x="522" y="425"/>
      <point x="502" y="431"/>
      <point x="490" y="431" type="curve" smooth="yes"/>
      <point x="476" y="431"/>
      <point x="453" y="422"/>
      <point x="447" y="398" type="curve" smooth="yes"/>
      <point x="375" y="109" type="line"/>
      <point x="375" y="109" type="line"/>
      <point x="370" y="90"/>
      <point x="323" y="18"/>
      <point x="256" y="18" type="curve" smooth="yes"/>
      <point x="207" y="18"/>
      <point x="190" y="54"/>
      <point x="190" y="99" type="curve" smooth="yes"/>
      <point x="190" y="158"/>
      <point x="225" y="248"/>
      <point x="247" y="304" type="curve" smooth="yes"/>
      <point x="257" y="329"/>
      <point x="260" y="338"/>
      <point x="260" y="356" type="curve" smooth="yes"/>
      <point x="260" y="411"/>
      <point x="216" y="441"/>
      <point x="170" y="441" type="curve" smooth="yes"/>
      <point x="71" y="441"/>
      <point x="30" y="300"/>
      <point x="30" y="288" type="curve" smooth="yes"/>
      <point x="30" y="279"/>
      <point x="37" y="275"/>
      <point x="45" y="275" type="curve" smooth="yes"/>
      <point x="58" y="275"/>
      <point x="59" y="281"/>
      <point x="62" y="291" type="curve" smooth="yes"/>
      <point x="88" y="380"/>
      <point x="132" y="413"/>
      <point x="167" y="413" type="curve" smooth="yes"/>
      <point x="182" y="413"/>
      <point x="191" y="403"/>
      <point x="191" y="380" type="curve" smooth="yes"/>
      <point x="191" y="357"/>
      <point x="182" y="334"/>
      <point x="169" y="299" type="curve" smooth="yes"/>
      <point x="127" y="193"/>
      <point x="118" y="150"/>
      <point x="118" y="114" type="curve" smooth="yes"/>
      <point x="118" y="16"/>
      <point x="192" y="-10"/>
    </contour>
  </outline>
</glyph>
<glyph name="v" format="2">
  <advance width="517"/>
  <unicode hex="0076"/>
  <outline>
    <contour>
      <point x="497" y="364" type="curve" smooth="yes"/>
      <point x="497" y="442"/>
      <point x="452" y="442"/>
      <point x="448" y="442" type="curve" smooth="yes"/>
      <point x="424" y="442"/>
      <point x="396" y="416"/>
      <point x="396" y="390" type="curve" smooth="yes"/>
      <point x="396" y="374"/>
      <point x="404" y="367"/>
      <point x="413" y="359" type="curve" smooth="yes"/>
      <point x="436" y="339"/>
      <point x="450" y="311"/>
      <point x="450" y="279" type="curve" smooth="yes"/>
      <point x="450" y="233"/>
      <point x="384" y="18"/>
      <point x="269" y="18" type="curve" smooth="yes"/>
      <point x="226" y="18"/>
      <point x="191" y="41"/>
      <point x="191" y="104" type="curve" smooth="yes"/>
      <point x="191" y="159"/>
      <point x="221" y="238"/>
      <point x="245" y="298" type="curve" smooth="yes"/>
      <point x="257" y="330"/>
      <point x="260" y="338"/>
      <point x="260" y="356" type="curve" smooth="yes"/>
      <point x="260" y="410"/>
      <point x="216" y="441"/>
      <point x="170" y="441" type="curve" smooth="yes"/>
      <point x="71" y="441"/>
      <point x="30" y="300"/>
      <point x="30" y="288" type="curve" smooth="yes"/>
      <point x="30" y="279"/>
      <point x="37" y="275"/>
      <point x="45" y="275" type="curve" smooth="yes"/>
      <point x="58" y="275"/>
      <point x="59" y="281"/>
      <point x="62" y="291" type="curve" smooth="yes"/>
      <point x="88" y="378"/>
      <point x="131" y="413"/>
      <point x="167" y="413" type="curve" smooth="yes"/>
      <point x="182" y="413"/>
      <point x="191" y="404"/>
      <point x="191" y="380" type="curve" smooth="yes"/>
      <point x="191" y="357"/>
      <point x="182" y="334"/>
      <point x="172" y="309" type="curve" smooth="yes"/>
      <point x="123" y="183"/>
      <point x="119" y="150"/>
      <point x="119" y="119" type="curve" smooth="yes"/>
      <point x="119" y="10"/>
      <point x="208" y="-10"/>
      <point x="265" y="-10" type="curve" smooth="yes"/>
      <point x="431" y="-10"/>
      <point x="497" y="288"/>
    </contour>
  </outline>
</glyph>
<glyph name="w" format="2">
  <advance width="762"/>
  <unicode hex="0077"/>
  <outline>
    <contour>
      <point x="490" y="327" type="line" smooth="yes"/>
      <point x="496" y="351"/>
      <point x="507" y="394"/>
      <point x="507" y="400" type="curve" smooth="yes"/>
      <point x="507" y="425"/>
      <point x="487" y="431"/>
      <point x="475" y="431" type="curve" smooth="yes"/>
      <point x="440" y="431"/>
      <point x="434" y="406"/>
      <point x="422" y="360" type="curve" smooth="yes"/>
      <point x="409" y="308"/>
      <point x="405" y="289"/>
      <point x="390" y="232" type="curve" smooth="yes"/>
      <point x="381" y="194"/>
      <point x="369" y="147"/>
      <point x="369" y="118" type="curve" smooth="yes"/>
      <point x="369" y="113"/>
      <point x="370" y="105"/>
      <point x="370" y="100" type="curve" smooth="yes"/>
      <point x="370" y="99"/>
      <point x="343" y="18"/>
      <point x="277" y="18" type="curve" smooth="yes"/>
      <point x="237" y="18"/>
      <point x="192" y="34"/>
      <point x="192" y="108" type="curve" smooth="yes"/>
      <point x="192" y="157"/>
      <point x="215" y="222"/>
      <point x="247" y="303" type="curve" smooth="yes"/>
      <point x="257" y="329"/>
      <point x="260" y="338"/>
      <point x="260" y="356" type="curve" smooth="yes"/>
      <point x="260" y="411"/>
      <point x="216" y="441"/>
      <point x="170" y="441" type="curve" smooth="yes"/>
      <point x="71" y="441"/>
      <point x="30" y="300"/>
      <point x="30" y="288" type="curve" smooth="yes"/>
      <point x="30" y="279"/>
      <point x="37" y="275"/>
      <point x="45" y="275" type="curve" smooth="yes"/>
      <point x="58" y="275"/>
      <point x="59" y="281"/>
      <point x="62" y="291" type="curve" smooth="yes"/>
      <point x="88" y="378"/>
      <point x="131" y="413"/>
      <point x="167" y="413" type="curve" smooth="yes"/>
      <point x="182" y="413"/>
      <point x="191" y="403"/>
      <point x="191" y="380" type="curve" smooth="yes"/>
      <point x="191" y="359"/>
      <point x="183" y="336"/>
      <point x="176" y="318" type="curve" smooth="yes"/>
      <point x="137" y="218"/>
      <point x="119" y="165"/>
      <point x="119" y="121" type="curve" smooth="yes"/>
      <point x="119" y="19"/>
      <point x="203" y="-10"/>
      <point x="273" y="-10" type="curve" smooth="yes"/>
      <point x="289" y="-10"/>
      <point x="341" y="-10"/>
      <point x="382" y="56" type="curve"/>
      <point x="410" y="2"/>
      <point x="473" y="-10"/>
      <point x="516" y="-10" type="curve" smooth="yes"/>
      <point x="606" y="-10"/>
      <point x="648" y="74"/>
      <point x="666" y="109" type="curve" smooth="yes"/>
      <point x="698" y="174"/>
      <point x="733" y="305"/>
      <point x="733" y="364" type="curve" smooth="yes"/>
      <point x="733" y="442"/>
      <point x="688" y="442"/>
      <point x="684" y="442" type="curve" smooth="yes"/>
      <point x="660" y="442"/>
      <point x="632" y="416"/>
      <point x="632" y="390" type="curve" smooth="yes"/>
      <point x="632" y="376"/>
      <point x="638" y="368"/>
      <point x="645" y="363" type="curve"/>
      <point x="656" y="353"/>
      <point x="686" y="328"/>
      <point x="686" y="279" type="curve" smooth="yes"/>
      <point x="686" y="250"/>
      <point x="658" y="155"/>
      <point x="630" y="103" type="curve" smooth="yes"/>
      <point x="602" y="53"/>
      <point x="569" y="18"/>
      <point x="519" y="18" type="curve" smooth="yes"/>
      <point x="475" y="18"/>
      <point x="441" y="41"/>
      <point x="441" y="105" type="curve" smooth="yes"/>
      <point x="441" y="131"/>
      <point x="448" y="159"/>
      <point x="462" y="215" type="curve" smooth="yes"/>
    </contour>
  </outline>
</glyph>
<glyph name="x" format="2">
  <advance width="598"/>
  <unicode hex="0078"/>
  <outline>
    <contour>
      <point x="32" y="62" type="curve" smooth="yes"/>
      <point x="32" y="16"/>
      <point x="81" y="-10"/>
      <point x="132" y="-10" type="curve" smooth="yes"/>
      <point x="185" y="-10"/>
      <point x="222" y="30"/>
      <point x="240" y="62" type="curve"/>
      <point x="262" y="13"/>
      <point x="308" y="-10"/>
      <point x="356" y="-10" type="curve" smooth="yes"/>
      <point x="465" y="-10"/>
      <point x="525" y="115"/>
      <point x="525" y="143" type="curve" smooth="yes"/>
      <point x="525" y="153"/>
      <point x="517" y="156"/>
      <point x="510" y="156" type="curve" smooth="yes"/>
      <point x="498" y="156"/>
      <point x="496" y="149"/>
      <point x="493" y="139" type="curve" smooth="yes"/>
      <point x="473" y="72"/>
      <point x="416" y="18"/>
      <point x="358" y="18" type="curve" smooth="yes"/>
      <point x="325" y="18"/>
      <point x="301" y="40"/>
      <point x="301" y="82" type="curve" smooth="yes"/>
      <point x="301" y="102"/>
      <point x="307" y="125"/>
      <point x="321" y="181" type="curve" smooth="yes"/>
      <point x="328" y="211"/>
      <point x="350" y="299"/>
      <point x="355" y="318" type="curve" smooth="yes"/>
      <point x="369" y="370"/>
      <point x="404" y="413"/>
      <point x="449" y="413" type="curve" smooth="yes"/>
      <point x="454" y="413"/>
      <point x="480" y="413"/>
      <point x="501" y="399" type="curve"/>
      <point x="457" y="388"/>
      <point x="455" y="349"/>
      <point x="455" y="345" type="curve" smooth="yes"/>
      <point x="455" y="323"/>
      <point x="472" y="308"/>
      <point x="494" y="308" type="curve" smooth="yes"/>
      <point x="516" y="308"/>
      <point x="550" y="325"/>
      <point x="550" y="368" type="curve" smooth="yes"/>
      <point x="550" y="425"/>
      <point x="487" y="441"/>
      <point x="450" y="441" type="curve" smooth="yes"/>
      <point x="403" y="441"/>
      <point x="365" y="408"/>
      <point x="342" y="369" type="curve"/>
      <point x="320" y="422"/>
      <point x="268" y="441"/>
      <point x="227" y="441" type="curve" smooth="yes"/>
      <point x="118" y="441"/>
      <point x="57" y="316"/>
      <point x="57" y="288" type="curve" smooth="yes"/>
      <point x="57" y="279"/>
      <point x="64" y="275"/>
      <point x="72" y="275" type="curve" smooth="yes"/>
      <point x="84" y="275"/>
      <point x="86" y="280"/>
      <point x="89" y="292" type="curve"/>
      <point x="112" y="365"/>
      <point x="172" y="413"/>
      <point x="224" y="413" type="curve" smooth="yes"/>
      <point x="263" y="413"/>
      <point x="282" y="385"/>
      <point x="282" y="349" type="curve" smooth="yes"/>
      <point x="282" y="329"/>
      <point x="270" y="283"/>
      <point x="262" y="251" type="curve" smooth="yes"/>
      <point x="255" y="222"/>
      <point x="233" y="133"/>
      <point x="228" y="114" type="curve" smooth="yes"/>
      <point x="214" y="60"/>
      <point x="178" y="18"/>
      <point x="133" y="18" type="curve" smooth="yes"/>
      <point x="129" y="18"/>
      <point x="103" y="18"/>
      <point x="82" y="32" type="curve"/>
      <point x="128" y="43"/>
      <point x="128" y="85"/>
      <point x="128" y="86" type="curve" smooth="yes"/>
      <point x="128" y="109"/>
      <point x="110" y="123"/>
      <point x="88" y="123" type="curve" smooth="yes"/>
      <point x="61" y="123"/>
      <point x="32" y="100"/>
    </contour>
  </outline>
</glyph>
<glyph name="y" format="2">
  <advance width="525"/>
  <unicode hex="0079"/>
  <outline>
    <contour>
      <point x="518" y="377" type="line" smooth="yes"/>
      <point x="522" y="391"/>
      <point x="522" y="393"/>
      <point x="522" y="400" type="curve" smooth="yes"/>
      <point x="522" y="425"/>
      <point x="502" y="431"/>
      <point x="490" y="431" type="curve" smooth="yes"/>
      <point x="485" y="431"/>
      <point x="462" y="430"/>
      <point x="449" y="404" type="curve"/>
      <point x="447" y="399"/>
      <point x="438" y="363"/>
      <point x="433" y="342" type="curve" smooth="yes"/>
      <point x="373" y="102" type="line"/>
      <point x="372" y="99"/>
      <point x="329" y="18"/>
      <point x="256" y="18" type="curve" smooth="yes"/>
      <point x="207" y="18"/>
      <point x="190" y="54"/>
      <point x="190" y="99" type="curve" smooth="yes"/>
      <point x="190" y="157"/>
      <point x="224" y="246"/>
      <point x="247" y="304" type="curve" smooth="yes"/>
      <point x="257" y="329"/>
      <point x="260" y="338"/>
      <point x="260" y="356" type="curve" smooth="yes"/>
      <point x="260" y="411"/>
      <point x="216" y="441"/>
      <point x="170" y="441" type="curve" smooth="yes"/>
      <point x="71" y="441"/>
      <point x="30" y="300"/>
      <point x="30" y="288" type="curve" smooth="yes"/>
      <point x="30" y="279"/>
      <point x="37" y="275"/>
      <point x="45" y="275" type="curve" smooth="yes"/>
      <point x="58" y="275"/>
      <point x="59" y="281"/>
      <point x="62" y="291" type="curve" smooth="yes"/>
      <point x="88" y="378"/>
      <point x="131" y="413"/>
      <point x="167" y="413" type="curve" smooth="yes"/>
      <point x="182" y="413"/>
      <point x="191" y="403"/>
      <point x="191" y="380" type="curve" smooth="yes"/>
      <point x="191" y="359"/>
      <point x="183" y="336"/>
      <point x="176" y="318" type="curve" smooth="yes"/>
      <point x="135" y="212"/>
      <point x="118" y="161"/>
      <point x="118" y="114" type="curve" smooth="yes"/>
      <point x="118" y="16"/>
      <point x="192" y="-10"/>
      <point x="251" y="-10" type="curve" smooth="yes"/>
      <point x="298" y="-10"/>
      <point x="332" y="11"/>
      <point x="356" y="34" type="curve"/>
      <point x="342" y="-22"/>
      <point x="332" y="-61"/>
      <point x="294" y="-109" type="curve" smooth="yes"/>
      <point x="261" y="-150"/>
      <point x="221" y="-176"/>
      <point x="176" y="-176" type="curve" smooth="yes"/>
      <point x="159" y="-176"/>
      <point x="121" y="-173"/>
      <point x="101" y="-143" type="curve"/>
      <point x="154" y="-139"/>
      <point x="158" y="-94"/>
      <point x="158" y="-88" type="curve" smooth="yes"/>
      <point x="158" y="-64"/>
      <point x="140" y="-51"/>
      <point x="119" y="-51" type="curve" smooth="yes"/>
      <point x="97" y="-51"/>
      <point x="62" y="-68"/>
      <point x="62" y="-117" type="curve" smooth="yes"/>
      <point x="62" y="-164"/>
      <point x="105" y="-204"/>
      <point x="176" y="-204" type="curve" smooth="yes"/>
      <point x="278" y="-204"/>
      <point x="393" y="-122"/>
      <point x="423" y="-1" type="curve" smooth="yes"/>
    </contour>
  </outline>
</glyph>
<glyph name="mu" format="2">
  <advance width="639"/>
  <unicode hex="00B5"/>
  <outline>
    <contour>
      <point x="242" y="353" type="line" smooth="yes"/>
      <point x="247" y="372"/>
      <point x="255" y="405"/>
      <point x="255" y="410" type="curve" smooth="yes"/>
      <point x="255" y="431"/>
      <point x="239" y="441"/>
      <point x="222" y="441" type="curve" smooth="yes"/>
      <point x="188" y="441"/>
      <point x="180" y="408"/>
      <point x="176" y="394" type="curve" smooth="yes"/>
      <point x="37" y="-161" type="line" smooth="yes"/>
      <point x="33" y="-177"/>
      <point x="33" y="-182"/>
      <point x="33" y="-184" type="curve" smooth="yes"/>
      <point x="33" y="-209"/>
      <point x="53" y="-215"/>
      <point x="65" y="-215" type="curve" smooth="yes"/>
      <point x="70" y="-215"/>
      <point x="93" y="-214"/>
      <point x="106" y="-188" type="curve"/>
      <point x="109" y="-180"/>
      <point x="138" y="-61"/>
      <point x="158" y="19" type="curve"/>
      <point x="175" y="6"/>
      <point x="209" y="-10"/>
      <point x="260" y="-10" type="curve" smooth="yes"/>
      <point x="342" y="-10"/>
      <point x="396" y="57"/>
      <point x="399" y="61" type="curve"/>
      <point x="417" y="-8"/>
      <point x="485" y="-10"/>
      <point x="497" y="-10" type="curve" smooth="yes"/>
      <point x="543" y="-10"/>
      <point x="566" y="28"/>
      <point x="574" y="45" type="curve"/>
      <point x="594" y="81"/>
      <point x="608" y="139"/>
      <point x="608" y="143" type="curve" smooth="yes"/>
      <point x="608" y="149"/>
      <point x="604" y="156"/>
      <point x="592" y="156" type="curve" smooth="yes"/>
      <point x="580" y="156"/>
      <point x="578" y="150"/>
      <point x="572" y="125" type="curve" smooth="yes"/>
      <point x="558" y="70"/>
      <point x="539" y="18"/>
      <point x="500" y="18" type="curve" smooth="yes"/>
      <point x="477" y="18"/>
      <point x="468" y="37"/>
      <point x="468" y="65" type="curve" smooth="yes"/>
      <point x="468" y="82"/>
      <point x="479" y="125"/>
      <point x="486" y="154" type="curve" smooth="yes"/>
      <point x="512" y="256" type="line" smooth="yes"/>
      <point x="518" y="282"/>
      <point x="523" y="303"/>
      <point x="531" y="333" type="curve" smooth="yes"/>
      <point x="536" y="355"/>
      <point x="546" y="394"/>
      <point x="546" y="400" type="curve" smooth="yes"/>
      <point x="546" y="425"/>
      <point x="526" y="431"/>
      <point x="514" y="431" type="curve" smooth="yes"/>
      <point x="479" y="431"/>
      <point x="473" y="406"/>
      <point x="462" y="361" type="curve" smooth="yes"/>
      <point x="441" y="278" type="line"/>
      <point x="410" y="153" type="line"/>
      <point x="400" y="113" type="line"/>
      <point x="398" y="107"/>
      <point x="371" y="69"/>
      <point x="348" y="50" type="curve" smooth="yes"/>
      <point x="331" y="37"/>
      <point x="302" y="18"/>
      <point x="265" y="18" type="curve" smooth="yes"/>
      <point x="218" y="18"/>
      <point x="186" y="43"/>
      <point x="186" y="105" type="curve" smooth="yes"/>
      <point x="186" y="131"/>
      <point x="194" y="161"/>
      <point x="200" y="185" type="curve" smooth="yes"/>
    </contour>
  </outline>
</glyph>
<glyph name="dotlessi" format="2">
  <advance width="349"/>
  <unicode hex="0131"/>
  <outline>
    <contour>
      <point x="152" y="257" type="line"/>
      <point x="98" y="119" type="line"/>
      <point x="93" y="104"/>
      <point x="88" y="92"/>
      <point x="88" y="75" type="curve" smooth="yes"/>
      <point x="88" y="26"/>
      <point x="126" y="-10"/>
      <point x="179" y="-10" type="curve" smooth="yes"/>
      <point x="276" y="-10"/>
      <point x="317" y="130"/>
      <point x="317" y="143" type="curve" smooth="yes"/>
      <point x="317" y="153"/>
      <point x="309" y="156"/>
      <point x="302" y="156" type="curve" smooth="yes"/>
      <point x="290" y="156"/>
      <point x="288" y="149"/>
      <point x="285" y="139" type="curve" smooth="yes"/>
      <point x="262" y="59"/>
      <point x="221" y="18"/>
      <point x="181" y="18" type="curve" smooth="yes"/>
      <point x="169" y="18"/>
      <point x="157" y="23"/>
      <point x="157" y="50" type="curve" smooth="yes"/>
      <point x="157" y="74"/>
      <point x="164" y="92"/>
      <point x="177" y="123" type="curve" smooth="yes"/>
      <point x="187" y="150"/>
      <point x="197" y="177"/>
      <point x="208" y="204" type="curve" smooth="yes"/>
      <point x="239" y="285" type="line" smooth="yes"/>
      <point x="248" y="308"/>
      <point x="260" y="339"/>
      <point x="260" y="356" type="curve" smooth="yes"/>
      <point x="260" y="406"/>
      <point x="220" y="441"/>
      <point x="169" y="441" type="curve" smooth="yes"/>
      <point x="72" y="441"/>
      <point x="30" y="301"/>
      <point x="30" y="288" type="curve" smooth="yes"/>
      <point x="30" y="279"/>
      <point x="37" y="275"/>
      <point x="45" y="275" type="curve" smooth="yes"/>
      <point x="58" y="275"/>
      <point x="59" y="281"/>
      <point x="62" y="291" type="curve" smooth="yes"/>
      <point x="90" y="386"/>
      <point x="136" y="413"/>
      <point x="166" y="413" type="curve" smooth="yes"/>
      <point x="180" y="413"/>
      <point x="190" y="408"/>
      <point x="190" y="380" type="curve" smooth="yes"/>
      <point x="190" y="370"/>
      <point x="189" y="356"/>
      <point x="179" y="326" type="curve"/>
    </contour>
  </outline>
</glyph>
<glyph name="Gamma" format="2">
  <advance width="642"/>
  <unicode hex="0393"/>
  <outline>
    <contour>
      <point x="389" y="609" type="line" smooth="yes"/>
      <point x="398" y="645"/>
      <point x="399" y="647"/>
      <point x="440" y="647" type="curve" smooth="yes"/>
      <point x="569" y="647" type="line" smooth="yes"/>
      <point x="685" y="647"/>
      <point x="710" y="617"/>
      <point x="710" y="539" type="curve" smooth="yes"/>
      <point x="710" y="517"/>
      <point x="705" y="473"/>
      <point x="705" y="470" type="curve" smooth="yes"/>
      <point x="705" y="458"/>
      <point x="712" y="453"/>
      <point x="720" y="453" type="curve" smooth="yes"/>
      <point x="734" y="453"/>
      <point x="735" y="462"/>
      <point x="737" y="479" type="curve" smooth="yes"/>
      <point x="755" y="649" type="line"/>
      <point x="756" y="654"/>
      <point x="756" y="661"/>
      <point x="756" y="666" type="curve" smooth="yes"/>
      <point x="756" y="680"/>
      <point x="744" y="680"/>
      <point x="726" y="680" type="curve" smooth="yes"/>
      <point x="243" y="680" type="line" smooth="yes"/>
      <point x="224" y="680"/>
      <point x="212" y="680"/>
      <point x="212" y="661" type="curve" smooth="yes"/>
      <point x="212" y="647"/>
      <point x="225" y="647"/>
      <point x="242" y="647" type="curve" smooth="yes"/>
      <point x="245" y="647"/>
      <point x="263" y="647"/>
      <point x="280" y="645" type="curve" smooth="yes"/>
      <point x="301" y="643"/>
      <point x="303" y="640"/>
      <point x="303" y="631" type="curve" smooth="yes"/>
      <point x="303" y="626"/>
      <point x="301" y="620"/>
      <point x="300" y="615" type="curve" smooth="yes"/>
      <point x="166" y="79" type="line" smooth="yes"/>
      <point x="157" y="41"/>
      <point x="155" y="33"/>
      <point x="81" y="33" type="curve" smooth="yes"/>
      <point x="62" y="33"/>
      <point x="50" y="33"/>
      <point x="50" y="14" type="curve" smooth="yes"/>
      <point x="50" y="10"/>
      <point x="53" y="0"/>
      <point x="66" y="0" type="curve" smooth="yes"/>
      <point x="87" y="0"/>
      <point x="111" y="3"/>
      <point x="133" y="3" type="curve" smooth="yes"/>
      <point x="271" y="3" type="line"/>
      <point x="290" y="2"/>
      <point x="326" y="0"/>
      <point x="345" y="0" type="curve" smooth="yes"/>
      <point x="351" y="0"/>
      <point x="366" y="0"/>
      <point x="366" y="19" type="curve" smooth="yes"/>
      <point x="366" y="33"/>
      <point x="355" y="33"/>
      <point x="331" y="33" type="curve" smooth="yes"/>
      <point x="314" y="33"/>
      <point x="296" y="34"/>
      <point x="279" y="35" type="curve"/>
      <point x="253" y="38"/>
      <point x="251" y="42"/>
      <point x="251" y="53" type="curve" smooth="yes"/>
      <point x="251" y="54"/>
      <point x="251" y="60"/>
      <point x="255" y="75" type="curve" smooth="yes"/>
    </contour>
  </outline>
</glyph>
<glyph name="Theta" format="2">
  <advance width="806"/>
  <unicode hex="0398"/>
  <outline>
    <contour>
      <point x="781" y="430" type="curve" smooth="yes"/>
      <point x="781" y="594"/>
      <point x="667" y="704"/>
      <point x="507" y="704" type="curve" smooth="yes"/>
      <point x="274" y="704"/>
      <point x="51" y="473"/>
      <point x="51" y="250" type="curve" smooth="yes"/>
      <point x="51" y="96"/>
      <point x="159" y="-21"/>
      <point x="327" y="-21" type="curve" smooth="yes"/>
      <point x="551" y="-21"/>
      <point x="781" y="194"/>
    </contour>
    <contour>
      <point x="334" y="9" type="curve" smooth="yes"/>
      <point x="233" y="9"/>
      <point x="141" y="78"/>
      <point x="141" y="225" type="curve" smooth="yes"/>
      <point x="141" y="262"/>
      <point x="151" y="416"/>
      <point x="260" y="550" type="curve" smooth="yes"/>
      <point x="315" y="616"/>
      <point x="407" y="676"/>
      <point x="500" y="676" type="curve" smooth="yes"/>
      <point x="607" y="676"/>
      <point x="692" y="599"/>
      <point x="692" y="457" type="curve" smooth="yes"/>
      <point x="692" y="391"/>
      <point x="669" y="264"/>
      <point x="600" y="166" type="curve" smooth="yes"/>
      <point x="523" y="57"/>
      <point x="418" y="9"/>
    </contour>
    <contour>
      <point x="575" y="304" type="line"/>
      <point x="574" y="299"/>
      <point x="571" y="290"/>
      <point x="571" y="284" type="curve" smooth="yes"/>
      <point x="571" y="278"/>
      <point x="576" y="270"/>
      <point x="586" y="270" type="curve" smooth="yes"/>
      <point x="598" y="270"/>
      <point x="601" y="278"/>
      <point x="603" y="286" type="curve" smooth="yes"/>
      <point x="608" y="304"/>
      <point x="631" y="389"/>
      <point x="631" y="401" type="curve" smooth="yes"/>
      <point x="631" y="409"/>
      <point x="624" y="415"/>
      <point x="616" y="415" type="curve" smooth="yes"/>
      <point x="598" y="415"/>
      <point x="595" y="384"/>
      <point x="595" y="381" type="curve"/>
      <point x="259" y="381" type="line"/>
      <point x="260" y="386"/>
      <point x="263" y="394"/>
      <point x="263" y="400" type="curve" smooth="yes"/>
      <point x="263" y="410"/>
      <point x="255" y="415"/>
      <point x="248" y="415" type="curve" smooth="yes"/>
      <point x="235" y="415"/>
      <point x="233" y="407"/>
      <point x="230" y="395" type="curve" smooth="yes"/>
      <point x="225" y="376"/>
      <point x="203" y="289"/>
      <point x="203" y="284" type="curve" smooth="yes"/>
      <point x="203" y="280"/>
      <point x="206" y="270"/>
      <point x="219" y="270" type="curve" smooth="yes"/>
      <point x="237" y="270"/>
      <point x="239" y="303"/>
      <point x="239" y="304" type="curve"/>
    </contour>
  </outline>
</glyph>
<glyph name="Lambda" format="2">
  <advance width="736"/>
  <unicode hex="039B"/>
  <outline>
    <contour>
      <point x="172" y="119" type="line" smooth="yes"/>
      <point x="169" y="114"/>
      <point x="161" y="102"/>
      <point x="154" y="94" type="curve"/>
      <point x="119" y="44"/>
      <point x="92" y="36"/>
      <point x="55" y="33" type="curve" smooth="yes"/>
      <point x="39" y="32"/>
      <point x="39" y="17"/>
      <point x="39" y="15" type="curve" smooth="yes"/>
      <point x="39" y="4"/>
      <point x="48" y="0"/>
      <point x="53" y="0" type="curve" smooth="yes"/>
      <point x="67" y="0"/>
      <point x="57" y="3"/>
      <point x="131" y="3" type="curve" smooth="yes"/>
      <point x="195" y="3"/>
      <point x="219" y="0"/>
      <point x="225" y="0" type="curve" smooth="yes"/>
      <point x="229" y="0"/>
      <point x="244" y="0"/>
      <point x="244" y="19" type="curve" smooth="yes"/>
      <point x="244" y="32"/>
      <point x="231" y="33"/>
      <point x="226" y="33" type="curve"/>
      <point x="204" y="35"/>
      <point x="183" y="43"/>
      <point x="183" y="66" type="curve" smooth="yes"/>
      <point x="183" y="73"/>
      <point x="186" y="82"/>
      <point x="189" y="88" type="curve"/>
      <point x="190" y="89"/>
      <point x="191" y="91"/>
      <point x="192" y="93" type="curve"/>
      <point x="194" y="98"/>
      <point x="196" y="102"/>
      <point x="199" y="107" type="curve" smooth="yes"/>
      <point x="483" y="580" type="line"/>
      <point x="534" y="78" type="line" smooth="yes"/>
      <point x="536" y="54"/>
      <point x="534" y="34"/>
      <point x="464" y="33" type="curve"/>
      <point x="454" y="33"/>
      <point x="441" y="33"/>
      <point x="441" y="14" type="curve" smooth="yes"/>
      <point x="441" y="6"/>
      <point x="447" y="0"/>
      <point x="457" y="0" type="curve" smooth="yes"/>
      <point x="466" y="0"/>
      <point x="506" y="2"/>
      <point x="514" y="3" type="curve"/>
      <point x="576" y="3" type="line" smooth="yes"/>
      <point x="668" y="3"/>
      <point x="676" y="0"/>
      <point x="686" y="0" type="curve" smooth="yes"/>
      <point x="695" y="0"/>
      <point x="705" y="4"/>
      <point x="705" y="19" type="curve" smooth="yes"/>
      <point x="705" y="33"/>
      <point x="692" y="33"/>
      <point x="680" y="33" type="curve" smooth="yes"/>
      <point x="633" y="33"/>
      <point x="633" y="39"/>
      <point x="630" y="65" type="curve" smooth="yes"/>
      <point x="567" y="685" type="line" smooth="yes"/>
      <point x="565" y="705"/>
      <point x="564" y="714"/>
      <point x="546" y="714" type="curve" smooth="yes"/>
      <point x="532" y="714"/>
      <point x="525" y="707"/>
      <point x="516" y="693" type="curve" smooth="yes"/>
    </contour>
  </outline>
</glyph>
<glyph name="Xi" format="2">
  <advance width="783"/>
  <unicode hex="039E"/>
  <outline>
    <contour>
      <point x="187" y="547" type="line" smooth="yes"/>
      <point x="184" y="536"/>
      <point x="184" y="534"/>
      <point x="184" y="533" type="curve" smooth="yes"/>
      <point x="184" y="532"/>
      <point x="185" y="519"/>
      <point x="199" y="519" type="curve" smooth="yes"/>
      <point x="210" y="519"/>
      <point x="212" y="525"/>
      <point x="220" y="547" type="curve"/>
      <point x="223" y="558"/>
      <point x="235" y="594"/>
      <point x="244" y="600" type="curve" smooth="yes"/>
      <point x="251" y="605"/>
      <point x="309" y="605"/>
      <point x="320" y="605" type="curve" smooth="yes"/>
      <point x="696" y="605" type="line" smooth="yes"/>
      <point x="717" y="605"/>
      <point x="744" y="605"/>
      <point x="759" y="602" type="curve"/>
      <point x="766" y="601"/>
      <point x="767" y="601"/>
      <point x="767" y="590" type="curve" smooth="yes"/>
      <point x="767" y="578"/>
      <point x="767" y="576"/>
      <point x="762" y="553" type="curve"/>
      <point x="762" y="548"/>
      <point x="760" y="538"/>
      <point x="760" y="533" type="curve" smooth="yes"/>
      <point x="760" y="532"/>
      <point x="760" y="519"/>
      <point x="775" y="519" type="curve" smooth="yes"/>
      <point x="788" y="519"/>
      <point x="789" y="527"/>
      <point x="792" y="543" type="curve" smooth="yes"/>
      <point x="811" y="646" type="line" smooth="yes"/>
      <point x="813" y="657"/>
      <point x="813" y="659"/>
      <point x="813" y="662" type="curve" smooth="yes"/>
      <point x="813" y="676"/>
      <point x="801" y="676"/>
      <point x="783" y="676" type="curve" smooth="yes"/>
      <point x="255" y="676" type="line" smooth="yes"/>
      <point x="232" y="676"/>
      <point x="228" y="676"/>
      <point x="221" y="655" type="curve" smooth="yes"/>
    </contour>
    <contour>
      <point x="627" y="0" type="line" smooth="yes"/>
      <point x="650" y="0"/>
      <point x="653" y="0"/>
      <point x="658" y="14" type="curve" smooth="yes"/>
      <point x="663" y="29"/>
      <point x="701" y="149"/>
      <point x="701" y="154" type="curve" smooth="yes"/>
      <point x="701" y="156"/>
      <point x="700" y="168"/>
      <point x="686" y="168" type="curve" smooth="yes"/>
      <point x="674" y="168"/>
      <point x="673" y="162"/>
      <point x="667" y="144" type="curve" smooth="yes"/>
      <point x="661" y="124"/>
      <point x="647" y="86"/>
      <point x="640" y="78" type="curve"/>
      <point x="632" y="71"/>
      <point x="561" y="71"/>
      <point x="557" y="71" type="curve" smooth="yes"/>
      <point x="178" y="71" type="line" smooth="yes"/>
      <point x="163" y="71"/>
      <point x="129" y="72"/>
      <point x="115" y="74" type="curve" smooth="yes"/>
      <point x="105" y="75"/>
      <point x="104" y="76"/>
      <point x="104" y="86" type="curve" smooth="yes"/>
      <point x="104" y="100"/>
      <point x="110" y="133"/>
      <point x="111" y="139" type="curve" smooth="yes"/>
      <point x="112" y="144"/>
      <point x="113" y="152"/>
      <point x="113" y="154" type="curve" smooth="yes"/>
      <point x="113" y="155"/>
      <point x="112" y="168"/>
      <point x="98" y="168" type="curve" smooth="yes"/>
      <point x="85" y="168"/>
      <point x="84" y="160"/>
      <point x="81" y="146" type="curve" smooth="yes"/>
      <point x="77" y="126"/>
      <point x="57" y="27"/>
      <point x="57" y="15" type="curve" smooth="yes"/>
      <point x="57" y="0"/>
      <point x="69" y="0"/>
      <point x="87" y="0" type="curve" smooth="yes"/>
    </contour>
    <contour>
      <point x="663" y="409" type="line" smooth="yes"/>
      <point x="664" y="413"/>
      <point x="665" y="419"/>
      <point x="665" y="423" type="curve" smooth="yes"/>
      <point x="665" y="427"/>
      <point x="663" y="437"/>
      <point x="650" y="437" type="curve" smooth="yes"/>
      <point x="638" y="437"/>
      <point x="636" y="428"/>
      <point x="633" y="418" type="curve" smooth="yes"/>
      <point x="629" y="405"/>
      <point x="629" y="403"/>
      <point x="625" y="387" type="curve"/>
      <point x="275" y="387" type="line"/>
      <point x="277" y="395"/>
      <point x="283" y="416"/>
      <point x="283" y="423" type="curve" smooth="yes"/>
      <point x="283" y="427"/>
      <point x="281" y="437"/>
      <point x="268" y="437" type="curve" smooth="yes"/>
      <point x="256" y="437"/>
      <point x="253" y="428"/>
      <point x="250" y="414" type="curve" smooth="yes"/>
      <point x="221" y="296" type="line"/>
      <point x="221" y="294"/>
      <point x="217" y="281"/>
      <point x="217" y="280" type="curve" smooth="yes"/>
      <point x="217" y="275"/>
      <point x="221" y="266"/>
      <point x="232" y="266" type="curve" smooth="yes"/>
      <point x="245" y="266"/>
      <point x="247" y="275"/>
      <point x="250" y="284" type="curve"/>
      <point x="255" y="306"/>
      <point x="252" y="295"/>
      <point x="257" y="316" type="curve"/>
      <point x="607" y="316" type="line"/>
      <point x="605" y="310"/>
      <point x="599" y="285"/>
      <point x="599" y="280" type="curve" smooth="yes"/>
      <point x="599" y="275"/>
      <point x="603" y="266"/>
      <point x="614" y="266" type="curve" smooth="yes"/>
      <point x="626" y="266"/>
      <point x="628" y="271"/>
      <point x="632" y="288" type="curve" smooth="yes"/>
    </contour>
  </outline>
</glyph>
<glyph name="Pi" format="2">
  <advance width="872"/>
  <unicode hex="03A0"/>
  <outline>
    <contour>
      <point x="799" y="601" type="line" smooth="yes"/>
      <point x="808" y="638"/>
      <point x="810" y="647"/>
      <point x="881" y="647" type="curve" smooth="yes"/>
      <point x="904" y="647"/>
      <point x="915" y="647"/>
      <point x="915" y="666" type="curve" smooth="yes"/>
      <point x="915" y="680"/>
      <point x="902" y="680"/>
      <point x="885" y="680" type="curve" smooth="yes"/>
      <point x="243" y="680" type="line" smooth="yes"/>
      <point x="224" y="680"/>
      <point x="212" y="680"/>
      <point x="212" y="661" type="curve" smooth="yes"/>
      <point x="212" y="647"/>
      <point x="225" y="647"/>
      <point x="242" y="647" type="curve" smooth="yes"/>
      <point x="245" y="647"/>
      <point x="263" y="647"/>
      <point x="280" y="645" type="curve" smooth="yes"/>
      <point x="301" y="643"/>
      <point x="303" y="640"/>
      <point x="303" y="631" type="curve" smooth="yes"/>
      <point x="303" y="626"/>
      <point x="301" y="620"/>
      <point x="300" y="615" type="curve" smooth="yes"/>
      <point x="166" y="79" type="line" smooth="yes"/>
      <point x="157" y="41"/>
      <point x="155" y="33"/>
      <point x="81" y="33" type="curve" smooth="yes"/>
      <point x="62" y="33"/>
      <point x="50" y="33"/>
      <point x="50" y="14" type="curve" smooth="yes"/>
      <point x="50" y="10"/>
      <point x="53" y="0"/>
      <point x="66" y="0" type="curve" smooth="yes"/>
      <point x="85" y="0"/>
      <point x="109" y="2"/>
      <point x="128" y="3" type="curve"/>
      <point x="192" y="3" type="line" smooth="yes"/>
      <point x="288" y="3"/>
      <point x="314" y="0"/>
      <point x="321" y="0" type="curve" smooth="yes"/>
      <point x="327" y="0"/>
      <point x="341" y="0"/>
      <point x="341" y="19" type="curve" smooth="yes"/>
      <point x="341" y="33"/>
      <point x="328" y="33"/>
      <point x="311" y="33" type="curve" smooth="yes"/>
      <point x="308" y="33"/>
      <point x="290" y="33"/>
      <point x="273" y="35" type="curve" smooth="yes"/>
      <point x="252" y="37"/>
      <point x="250" y="40"/>
      <point x="250" y="49" type="curve" smooth="yes"/>
      <point x="250" y="54"/>
      <point x="252" y="60"/>
      <point x="253" y="65" type="curve" smooth="yes"/>
      <point x="398" y="647" type="line"/>
      <point x="720" y="647" type="line"/>
      <point x="578" y="79" type="line" smooth="yes"/>
      <point x="569" y="41"/>
      <point x="567" y="33"/>
      <point x="493" y="33" type="curve" smooth="yes"/>
      <point x="474" y="33"/>
      <point x="462" y="33"/>
      <point x="462" y="14" type="curve" smooth="yes"/>
      <point x="462" y="10"/>
      <point x="465" y="0"/>
      <point x="478" y="0" type="curve" smooth="yes"/>
      <point x="497" y="0"/>
      <point x="521" y="2"/>
      <point x="540" y="3" type="curve"/>
      <point x="604" y="3" type="line" smooth="yes"/>
      <point x="700" y="3"/>
      <point x="726" y="0"/>
      <point x="733" y="0" type="curve" smooth="yes"/>
      <point x="739" y="0"/>
      <point x="753" y="0"/>
      <point x="753" y="19" type="curve" smooth="yes"/>
      <point x="753" y="33"/>
      <point x="740" y="33"/>
      <point x="723" y="33" type="curve" smooth="yes"/>
      <point x="720" y="33"/>
      <point x="702" y="33"/>
      <point x="685" y="35" type="curve" smooth="yes"/>
      <point x="664" y="37"/>
      <point x="662" y="40"/>
      <point x="662" y="49" type="curve" smooth="yes"/>
      <point x="662" y="54"/>
      <point x="664" y="60"/>
      <point x="665" y="65" type="curve" smooth="yes"/>
    </contour>
  </outline>
</glyph>
<glyph name="Sigma" format="2">
  <advance width="823"/>
  <unicode hex="03A3"/>
  <outline>
    <contour>
      <point x="471" y="324" type="line" smooth="yes"/>
      <point x="480" y="332"/>
      <point x="481" y="333"/>
      <point x="484" y="342" type="curve"/>
      <point x="337" y="650" type="line"/>
      <point x="592" y="650" type="line" smooth="yes"/>
      <point x="617" y="650"/>
      <point x="691" y="649"/>
      <point x="734" y="635" type="curve" smooth="yes"/>
      <point x="769" y="623"/>
      <point x="796" y="596"/>
      <point x="796" y="516" type="curve" smooth="yes"/>
      <point x="796" y="488"/>
      <point x="794" y="478"/>
      <point x="794" y="470" type="curve" smooth="yes"/>
      <point x="794" y="469"/>
      <point x="794" y="456"/>
      <point x="809" y="456" type="curve" smooth="yes"/>
      <point x="823" y="456"/>
      <point x="824" y="466"/>
      <point x="826" y="483" type="curve" smooth="yes"/>
      <point x="844" y="653" type="line" smooth="yes"/>
      <point x="847" y="683"/>
      <point x="840" y="683"/>
      <point x="815" y="683" type="curve" smooth="yes"/>
      <point x="257" y="683" type="line" smooth="yes"/>
      <point x="238" y="683"/>
      <point x="225" y="683"/>
      <point x="225" y="664" type="curve" smooth="yes"/>
      <point x="225" y="663"/>
      <point x="225" y="660"/>
      <point x="231" y="648" type="curve" smooth="yes"/>
      <point x="397" y="304" type="line"/>
      <point x="77" y="32" type="line" smooth="yes"/>
      <point x="64" y="20"/>
      <point x="63" y="19"/>
      <point x="63" y="14" type="curve" smooth="yes"/>
      <point x="63" y="0"/>
      <point x="76" y="0"/>
      <point x="93" y="0" type="curve" smooth="yes"/>
      <point x="651" y="0" type="line" smooth="yes"/>
      <point x="676" y="0"/>
      <point x="677" y="1"/>
      <point x="685" y="19" type="curve"/>
      <point x="694" y="43"/>
      <point x="763" y="218"/>
      <point x="763" y="224" type="curve" smooth="yes"/>
      <point x="763" y="229"/>
      <point x="759" y="238"/>
      <point x="747" y="238" type="curve" smooth="yes"/>
      <point x="737" y="238"/>
      <point x="735" y="232"/>
      <point x="730" y="220" type="curve" smooth="yes"/>
      <point x="666" y="70"/>
      <point x="603" y="44"/>
      <point x="427" y="44" type="curve" smooth="yes"/>
      <point x="140" y="44" type="line"/>
    </contour>
  </outline>
</glyph>
<glyph name="Upsilon" format="2">
  <advance width="619"/>
  <unicode hex="03A5"/>
  <outline>
    <contour>
      <point x="221" y="79" type="line" smooth="yes"/>
      <point x="210" y="34"/>
      <point x="195" y="34"/>
      <point x="108" y="33" type="curve"/>
      <point x="92" y="33"/>
      <point x="80" y="33"/>
      <point x="80" y="14" type="curve" smooth="yes"/>
      <point x="80" y="12"/>
      <point x="81" y="0"/>
      <point x="97" y="0" type="curve" smooth="yes"/>
      <point x="133" y="0"/>
      <point x="170" y="3"/>
      <point x="207" y="3" type="curve" smooth="yes"/>
      <point x="283" y="3" type="line" smooth="yes"/>
      <point x="309" y="3"/>
      <point x="374" y="0"/>
      <point x="400" y="0" type="curve" smooth="yes"/>
      <point x="407" y="0"/>
      <point x="421" y="0"/>
      <point x="421" y="19" type="curve" smooth="yes"/>
      <point x="421" y="33"/>
      <point x="409" y="33"/>
      <point x="388" y="33" type="curve" smooth="yes"/>
      <point x="367" y="33"/>
      <point x="359" y="33"/>
      <point x="336" y="35" type="curve" smooth="yes"/>
      <point x="309" y="38"/>
      <point x="306" y="41"/>
      <point x="306" y="53" type="curve" smooth="yes"/>
      <point x="306" y="58"/>
      <point x="307" y="63"/>
      <point x="308" y="68" type="curve"/>
      <point x="310" y="75"/>
      <point x="368" y="307"/>
      <point x="376" y="337" type="curve" smooth="yes"/>
      <point x="420" y="513"/>
      <point x="511" y="628"/>
      <point x="618" y="628" type="curve" smooth="yes"/>
      <point x="676" y="628"/>
      <point x="706" y="597"/>
      <point x="706" y="563" type="curve" smooth="yes"/>
      <point x="706" y="556"/>
      <point x="703" y="546"/>
      <point x="703" y="544" type="curve" smooth="yes"/>
      <point x="703" y="535"/>
      <point x="710" y="532"/>
      <point x="717" y="532" type="curve" smooth="yes"/>
      <point x="738" y="532"/>
      <point x="742" y="559"/>
      <point x="742" y="589" type="curve" smooth="yes"/>
      <point x="742" y="654"/>
      <point x="704" y="704"/>
      <point x="636" y="704" type="curve" smooth="yes"/>
      <point x="535" y="704"/>
      <point x="433" y="623"/>
      <point x="360" y="454" type="curve"/>
      <point x="361" y="465"/>
      <point x="361" y="484"/>
      <point x="361" y="495" type="curve" smooth="yes"/>
      <point x="361" y="530"/>
      <point x="361" y="704"/>
      <point x="209" y="704" type="curve" smooth="yes"/>
      <point x="93" y="704"/>
      <point x="29" y="573"/>
      <point x="29" y="543" type="curve" smooth="yes"/>
      <point x="29" y="541"/>
      <point x="30" y="532"/>
      <point x="43" y="532" type="curve" smooth="yes"/>
      <point x="57" y="532"/>
      <point x="61" y="543"/>
      <point x="64" y="551" type="curve" smooth="yes"/>
      <point x="83" y="605"/>
      <point x="142" y="628"/>
      <point x="188" y="628" type="curve" smooth="yes"/>
      <point x="286" y="628"/>
      <point x="305" y="539"/>
      <point x="305" y="469" type="curve" smooth="yes"/>
      <point x="305" y="414"/>
      <point x="298" y="385"/>
      <point x="270" y="273" type="curve" smooth="yes"/>
    </contour>
  </outline>
</glyph>
<glyph name="Phi" format="2">
  <advance width="708"/>
  <unicode hex="03A6"/>
  <outline>
    <contour>
      <point x="459" y="599" type="line" smooth="yes"/>
      <point x="470" y="641"/>
      <point x="472" y="650"/>
      <point x="565" y="650" type="curve" smooth="yes"/>
      <point x="591" y="650"/>
      <point x="602" y="650"/>
      <point x="602" y="669" type="curve" smooth="yes"/>
      <point x="602" y="670"/>
      <point x="601" y="683"/>
      <point x="585" y="683" type="curve" smooth="yes"/>
      <point x="561" y="683"/>
      <point x="535" y="680"/>
      <point x="511" y="680" type="curve" smooth="yes"/>
      <point x="402" y="680" type="line" smooth="yes"/>
      <point x="364" y="680"/>
      <point x="325" y="683"/>
      <point x="289" y="683" type="curve" smooth="yes"/>
      <point x="283" y="683"/>
      <point x="268" y="683"/>
      <point x="268" y="664" type="curve" smooth="yes"/>
      <point x="268" y="650"/>
      <point x="279" y="650"/>
      <point x="304" y="650" type="curve" smooth="yes"/>
      <point x="326" y="650"/>
      <point x="332" y="650"/>
      <point x="356" y="648" type="curve"/>
      <point x="377" y="645"/>
      <point x="383" y="642"/>
      <point x="383" y="631" type="curve" smooth="yes"/>
      <point x="383" y="624"/>
      <point x="370" y="574"/>
      <point x="363" y="546" type="curve"/>
      <point x="186" y="534"/>
      <point x="25" y="426"/>
      <point x="25" y="309" type="curve" smooth="yes"/>
      <point x="25" y="220"/>
      <point x="122" y="146"/>
      <point x="261" y="137" type="curve"/>
      <point x="248" y="85" type="line" smooth="yes"/>
      <point x="236" y="40"/>
      <point x="234" y="33"/>
      <point x="137" y="33" type="curve" smooth="yes"/>
      <point x="117" y="33"/>
      <point x="105" y="33"/>
      <point x="105" y="14" type="curve" smooth="yes"/>
      <point x="105" y="12"/>
      <point x="106" y="0"/>
      <point x="122" y="0" type="curve" smooth="yes"/>
      <point x="156" y="0"/>
      <point x="191" y="3"/>
      <point x="226" y="3" type="curve" smooth="yes"/>
      <point x="304" y="3" type="line" smooth="yes"/>
      <point x="342" y="3"/>
      <point x="381" y="0"/>
      <point x="418" y="0" type="curve" smooth="yes"/>
      <point x="425" y="0"/>
      <point x="439" y="0"/>
      <point x="439" y="19" type="curve" smooth="yes"/>
      <point x="439" y="33"/>
      <point x="427" y="33"/>
      <point x="406" y="33" type="curve" smooth="yes"/>
      <point x="385" y="33"/>
      <point x="377" y="33"/>
      <point x="354" y="35" type="curve" smooth="yes"/>
      <point x="327" y="38"/>
      <point x="324" y="41"/>
      <point x="324" y="53" type="curve" smooth="yes"/>
      <point x="324" y="59"/>
      <point x="330" y="81"/>
      <point x="333" y="96" type="curve"/>
      <point x="341" y="125"/>
      <point x="337" y="108"/>
      <point x="344" y="137" type="curve"/>
      <point x="520" y="149"/>
      <point x="681" y="255"/>
      <point x="681" y="374" type="curve" smooth="yes"/>
      <point x="681" y="468"/>
      <point x="579" y="537"/>
      <point x="446" y="546" type="curve"/>
    </contour>
    <contour>
      <point x="267" y="165" type="line"/>
      <point x="233" y="168"/>
      <point x="195" y="177"/>
      <point x="164" y="200" type="curve" smooth="yes"/>
      <point x="133" y="223"/>
      <point x="121" y="252"/>
      <point x="121" y="292" type="curve" smooth="yes"/>
      <point x="121" y="329"/>
      <point x="138" y="497"/>
      <point x="356" y="518" type="curve"/>
    </contour>
    <contour>
      <point x="439" y="518" type="line"/>
      <point x="522" y="510"/>
      <point x="586" y="475"/>
      <point x="586" y="392" type="curve" smooth="yes"/>
      <point x="586" y="355"/>
      <point x="570" y="186"/>
      <point x="351" y="165" type="curve"/>
    </contour>
  </outline>
</glyph>
<glyph name="Psi" format="2">
  <advance width="654"/>
  <unicode hex="03A8"/>
  <outline>
    <contour>
      <point x="440" y="605" type="line" smooth="yes"/>
      <point x="448" y="639"/>
      <point x="451" y="650"/>
      <point x="543" y="650" type="curve" smooth="yes"/>
      <point x="570" y="650"/>
      <point x="581" y="650"/>
      <point x="581" y="669" type="curve" smooth="yes"/>
      <point x="581" y="670"/>
      <point x="580" y="683"/>
      <point x="564" y="683" type="curve" smooth="yes"/>
      <point x="540" y="683"/>
      <point x="514" y="680"/>
      <point x="490" y="680" type="curve" smooth="yes"/>
      <point x="381" y="680" type="line" smooth="yes"/>
      <point x="343" y="680"/>
      <point x="304" y="683"/>
      <point x="268" y="683" type="curve" smooth="yes"/>
      <point x="262" y="683"/>
      <point x="247" y="683"/>
      <point x="247" y="664" type="curve" smooth="yes"/>
      <point x="247" y="650"/>
      <point x="258" y="650"/>
      <point x="283" y="650" type="curve" smooth="yes"/>
      <point x="305" y="650"/>
      <point x="311" y="650"/>
      <point x="335" y="648" type="curve"/>
      <point x="356" y="645"/>
      <point x="362" y="642"/>
      <point x="362" y="631" type="curve" smooth="yes"/>
      <point x="362" y="626"/>
      <point x="361" y="622"/>
      <point x="358" y="611" type="curve" smooth="yes"/>
      <point x="247" y="166" type="line"/>
      <point x="173" y="181"/>
      <point x="140" y="231"/>
      <point x="140" y="310" type="curve" smooth="yes"/>
      <point x="140" y="316"/>
      <point x="141" y="355"/>
      <point x="152" y="396" type="curve" smooth="yes"/>
      <point x="161" y="433"/>
      <point x="163" y="454"/>
      <point x="163" y="469" type="curve" smooth="yes"/>
      <point x="163" y="555"/>
      <point x="107" y="555"/>
      <point x="85" y="555" type="curve" smooth="yes"/>
      <point x="59" y="555" type="line" smooth="yes"/>
      <point x="42" y="555"/>
      <point x="29" y="555"/>
      <point x="29" y="541" type="curve" smooth="yes"/>
      <point x="29" y="540"/>
      <point x="29" y="529"/>
      <point x="42" y="527" type="curve" smooth="yes"/>
      <point x="57" y="525"/>
      <point x="81" y="522"/>
      <point x="81" y="469" type="curve" smooth="yes"/>
      <point x="81" y="445"/>
      <point x="74" y="417"/>
      <point x="71" y="407" type="curve"/>
      <point x="61" y="364"/>
      <point x="61" y="329"/>
      <point x="61" y="326" type="curve" smooth="yes"/>
      <point x="61" y="227"/>
      <point x="114" y="153"/>
      <point x="240" y="137" type="curve"/>
      <point x="227" y="85" type="line" smooth="yes"/>
      <point x="215" y="40"/>
      <point x="213" y="33"/>
      <point x="116" y="33" type="curve" smooth="yes"/>
      <point x="96" y="33"/>
      <point x="84" y="33"/>
      <point x="84" y="14" type="curve" smooth="yes"/>
      <point x="84" y="12"/>
      <point x="85" y="0"/>
      <point x="101" y="0" type="curve" smooth="yes"/>
      <point x="135" y="0"/>
      <point x="170" y="3"/>
      <point x="205" y="3" type="curve" smooth="yes"/>
      <point x="283" y="3" type="line" smooth="yes"/>
      <point x="321" y="3"/>
      <point x="360" y="0"/>
      <point x="397" y="0" type="curve" smooth="yes"/>
      <point x="404" y="0"/>
      <point x="418" y="0"/>
      <point x="418" y="19" type="curve" smooth="yes"/>
      <point x="418" y="33"/>
      <point x="406" y="33"/>
      <point x="385" y="33" type="curve" smooth="yes"/>
      <point x="364" y="33"/>
      <point x="356" y="33"/>
      <point x="333" y="35" type="curve" smooth="yes"/>
      <point x="306" y="38"/>
      <point x="303" y="41"/>
      <point x="303" y="53" type="curve" smooth="yes"/>
      <point x="303" y="59"/>
      <point x="309" y="81"/>
      <point x="312" y="96" type="curve"/>
      <point x="320" y="125"/>
      <point x="316" y="108"/>
      <point x="323" y="137" type="curve"/>
      <point x="390" y="144"/>
      <point x="457" y="164"/>
      <point x="518" y="219" type="curve" smooth="yes"/>
      <point x="592" y="285"/>
      <point x="615" y="372"/>
      <point x="627" y="412" type="curve" smooth="yes"/>
      <point x="634" y="438"/>
      <point x="658" y="519"/>
      <point x="717" y="527" type="curve" smooth="yes"/>
      <point x="725" y="528"/>
      <point x="735" y="529"/>
      <point x="735" y="541" type="curve" smooth="yes"/>
      <point x="735" y="555"/>
      <point x="722" y="555"/>
      <point x="705" y="555" type="curve" smooth="yes"/>
      <point x="678" y="555" type="line" smooth="yes"/>
      <point x="649" y="555"/>
      <point x="630" y="554"/>
      <point x="597" y="520" type="curve" smooth="yes"/>
      <point x="564" y="488"/>
      <point x="549" y="433"/>
      <point x="542" y="405" type="curve" smooth="yes"/>
      <point x="511" y="291"/>
      <point x="449" y="192"/>
      <point x="331" y="168" type="curve"/>
    </contour>
  </outline>
</glyph>
<glyph name="alpha" format="2">
  <advance width="682"/>
  <unicode hex="03B1"/>
  <outline>
    <contour>
      <point x="510" y="140" type="curve"/>
      <point x="603" y="242"/>
      <point x="636" y="372"/>
      <point x="636" y="380" type="curve" smooth="yes"/>
      <point x="636" y="389"/>
      <point x="630" y="393"/>
      <point x="621" y="393" type="curve" smooth="yes"/>
      <point x="608" y="393"/>
      <point x="607" y="389"/>
      <point x="601" y="368" type="curve" smooth="yes"/>
      <point x="573" y="266"/>
      <point x="513" y="188"/>
      <point x="510" y="188" type="curve" smooth="yes"/>
      <point x="508" y="188"/>
      <point x="508" y="213"/>
      <point x="508" y="229" type="curve" smooth="yes"/>
      <point x="506" y="405"/>
      <point x="392" y="441"/>
      <point x="324" y="441" type="curve" smooth="yes"/>
      <point x="183" y="441"/>
      <point x="44" y="304"/>
      <point x="44" y="163" type="curve" smooth="yes"/>
      <point x="44" y="64"/>
      <point x="113" y="-10"/>
      <point x="219" y="-10" type="curve" smooth="yes"/>
      <point x="289" y="-10"/>
      <point x="363" y="15"/>
      <point x="442" y="74" type="curve"/>
      <point x="464" y="-5"/>
      <point x="522" y="-10"/>
      <point x="540" y="-10" type="curve" smooth="yes"/>
      <point x="597" y="-10"/>
      <point x="630" y="41"/>
      <point x="630" y="60" type="curve" smooth="yes"/>
      <point x="630" y="72"/>
      <point x="618" y="72"/>
      <point x="615" y="72" type="curve" smooth="yes"/>
      <point x="604" y="72"/>
      <point x="602" y="69"/>
      <point x="599" y="62" type="curve" smooth="yes"/>
      <point x="583" y="20"/>
      <point x="549" y="18"/>
      <point x="544" y="18" type="curve" smooth="yes"/>
      <point x="530" y="18"/>
      <point x="514" y="18"/>
    </contour>
    <contour>
      <point x="435" y="107" type="curve"/>
      <point x="364" y="43"/>
      <point x="280" y="18"/>
      <point x="222" y="18" type="curve" smooth="yes"/>
      <point x="170" y="18"/>
      <point x="125" y="48"/>
      <point x="125" y="128" type="curve" smooth="yes"/>
      <point x="125" y="163"/>
      <point x="141" y="266"/>
      <point x="188" y="333" type="curve" smooth="yes"/>
      <point x="228" y="389"/>
      <point x="282" y="413"/>
      <point x="323" y="413" type="curve" smooth="yes"/>
      <point x="378" y="413"/>
      <point x="409" y="374"/>
      <point x="422" y="313" type="curve" smooth="yes"/>
      <point x="437" y="245"/>
      <point x="429" y="165"/>
    </contour>
  </outline>
</glyph>
<glyph name="beta" format="2">
  <advance width="596"/>
  <unicode hex="03B2"/>
  <outline>
    <contour>
      <point x="600.0" y="569" type="curve" smooth="yes"/>
      <point x="600.0" y="660"/>
      <point x="526.0" y="705"/>
      <point x="443.0" y="705" type="curve" smooth="yes"/>
      <point x="314.0" y="705"/>
      <point x="218.0" y="559"/>
      <point x="190.0" y="449" type="curve" smooth="yes"/>
      <point x="32.0" y="-182" type="line" smooth="yes"/>
      <point x="30.0" y="-189"/>
      <point x="38.0" y="-194"/>
      <point x="44.0" y="-194" type="curve" smooth="yes"/>
      <point x="52.0" y="-194"/>
      <point x="60.0" y="-194"/>
      <point x="62.0" y="-187" type="curve" smooth="yes"/>
      <point x="130.0" y="81" type="line"/>
      <point x="153.0" y="27"/>
      <point x="200.0" y="-9"/>
      <point x="272.0" y="-9" type="curve" smooth="yes"/>
      <point x="410.0" y="-9"/>
      <point x="561.0" y="89"/>
      <point x="561.0" y="248" type="curve" smooth="yes"/>
      <point x="561.0" y="314"/>
      <point x="536.0" y="358"/>
      <point x="486.0" y="399" type="curve"/>
      <point x="492.0" y="400"/>
      <point x="510.0" y="413"/>
      <point x="515.0" y="417" type="curve"/>
      <point x="565.0" y="451"/>
      <point x="600.0" y="508"/>
    </contour>
    <contour>
      <point x="403.0" y="399" type="curve"/>
      <point x="385.0" y="396"/>
      <point x="367.0" y="394"/>
      <point x="348.0" y="394" type="curve" smooth="yes"/>
      <point x="337.0" y="394"/>
      <point x="326.0" y="394"/>
      <point x="315.0" y="398" type="curve"/>
      <point x="334.0" y="403"/>
      <point x="354.0" y="403"/>
      <point x="373.0" y="403" type="curve" smooth="yes"/>
      <point x="383.0" y="403"/>
      <point x="393.0" y="402"/>
    </contour>
    <contour>
      <point x="537.0" y="588" type="curve" smooth="yes"/>
      <point x="537.0" y="538"/>
      <point x="515.0" y="479"/>
      <point x="480.0" y="444" type="curve" smooth="yes"/>
      <point x="475.0" y="439"/>
      <point x="454.0" y="420"/>
      <point x="448.0" y="419" type="curve"/>
      <point x="420.0" y="424"/>
      <point x="398.0" y="431"/>
      <point x="369.0" y="431" type="curve" smooth="yes"/>
      <point x="343.0" y="431"/>
      <point x="280.0" y="433"/>
      <point x="280.0" y="394" type="curve" smooth="yes"/>
      <point x="280.0" y="364"/>
      <point x="337.0" y="366"/>
      <point x="357.0" y="366" type="curve" smooth="yes"/>
      <point x="388.0" y="366"/>
      <point x="417.0" y="369"/>
      <point x="446.0" y="380" type="curve"/>
      <point x="476.0" y="356"/>
      <point x="491.0" y="324"/>
      <point x="491.0" y="274" type="curve" smooth="yes"/>
      <point x="491.0" y="215"/>
      <point x="471.0" y="149"/>
      <point x="442.0" y="109" type="curve" smooth="yes"/>
      <point x="405.0" y="56"/>
      <point x="343.0" y="19"/>
      <point x="268.0" y="19" type="curve" smooth="yes"/>
      <point x="202.0" y="19"/>
      <point x="150.0" y="70"/>
      <point x="150.0" y="140" type="curve" smooth="yes"/>
      <point x="150.0" y="153"/>
      <point x="151.0" y="166"/>
      <point x="154.0" y="176" type="curve" smooth="yes"/>
      <point x="220.0" y="442" type="line" smooth="yes"/>
      <point x="242.0" y="530"/>
      <point x="327.0" y="677"/>
      <point x="439.0" y="677" type="curve" smooth="yes"/>
      <point x="490.0" y="677"/>
      <point x="537.0" y="652"/>
    </contour>
  </outline>
</glyph>
<glyph name="gamma" format="2">
  <advance width="547"/>
  <unicode hex="03B3"/>
  <outline>
    <contour>
      <point x="410" y="161" type="line" smooth="yes"/>
      <point x="398" y="284"/>
      <point x="348" y="365"/>
      <point x="347" y="366" type="curve"/>
      <point x="325" y="400"/>
      <point x="288" y="441"/>
      <point x="222" y="441" type="curve" smooth="yes"/>
      <point x="92" y="441"/>
      <point x="18" y="296"/>
      <point x="18" y="261" type="curve" smooth="yes"/>
      <point x="18" y="252"/>
      <point x="26" y="249"/>
      <point x="33" y="249" type="curve" smooth="yes"/>
      <point x="43" y="249"/>
      <point x="46" y="252"/>
      <point x="49" y="260" type="curve" smooth="yes"/>
      <point x="79" y="350"/>
      <point x="178" y="363"/>
      <point x="208" y="363" type="curve" smooth="yes"/>
      <point x="369" y="363"/>
      <point x="381" y="189"/>
      <point x="381" y="105" type="curve" smooth="yes"/>
      <point x="381" y="50"/>
      <point x="378" y="41"/>
      <point x="371" y="18" type="curve" smooth="yes"/>
      <point x="349" y="-53"/>
      <point x="319" y="-164"/>
      <point x="319" y="-193" type="curve" smooth="yes"/>
      <point x="319" y="-195"/>
      <point x="320" y="-215"/>
      <point x="336" y="-215" type="curve" smooth="yes"/>
      <point x="347" y="-215"/>
      <point x="356" y="-200"/>
      <point x="364" y="-175" type="curve" smooth="yes"/>
      <point x="393" y="-82"/>
      <point x="402" y="-16"/>
      <point x="408" y="29" type="curve" smooth="yes"/>
      <point x="411" y="50"/>
      <point x="467" y="217"/>
      <point x="560" y="392" type="curve" smooth="yes"/>
      <point x="572" y="414"/>
      <point x="572" y="416"/>
      <point x="572" y="419" type="curve" smooth="yes"/>
      <point x="572" y="420"/>
      <point x="572" y="431"/>
      <point x="557" y="431" type="curve" smooth="yes"/>
      <point x="553" y="431"/>
      <point x="549" y="430"/>
      <point x="546" y="427" type="curve"/>
      <point x="542" y="424"/>
      <point x="463" y="277"/>
      <point x="413" y="139" type="curve"/>
    </contour>
  </outline>
</glyph>
<glyph name="delta" format="2">
  <advance width="470"/>
  <unicode hex="03B4"/>
  <outline>
    <contour>
      <point x="272" y="435" type="curve"/>
      <point x="121" y="395"/>
      <point x="44" y="263"/>
      <point x="44" y="161" type="curve" smooth="yes"/>
      <point x="44" y="49"/>
      <point x="128" y="-12"/>
      <point x="215" y="-12" type="curve" smooth="yes"/>
      <point x="333" y="-12"/>
      <point x="423" y="132"/>
      <point x="423" y="278" type="curve" smooth="yes"/>
      <point x="423" y="374"/>
      <point x="378" y="427"/>
      <point x="344" y="466" type="curve" smooth="yes"/>
      <point x="311" y="505"/>
      <point x="241" y="587"/>
      <point x="241" y="632" type="curve" smooth="yes"/>
      <point x="241" y="654"/>
      <point x="262" y="676"/>
      <point x="295" y="676" type="curve" smooth="yes"/>
      <point x="328" y="676"/>
      <point x="350" y="662"/>
      <point x="377" y="646" type="curve" smooth="yes"/>
      <point x="401" y="631"/>
      <point x="419" y="623"/>
      <point x="431" y="623" type="curve" smooth="yes"/>
      <point x="456" y="623"/>
      <point x="472" y="647"/>
      <point x="472" y="664" type="curve" smooth="yes"/>
      <point x="472" y="688"/>
      <point x="460" y="691"/>
      <point x="409" y="702" type="curve" smooth="yes"/>
      <point x="352" y="714"/>
      <point x="323" y="714"/>
      <point x="322" y="714" type="curve" smooth="yes"/>
      <point x="279" y="714"/>
      <point x="208" y="693"/>
      <point x="208" y="608" type="curve" smooth="yes"/>
      <point x="208" y="556"/>
      <point x="236" y="499"/>
    </contour>
    <contour>
      <point x="288" y="408" type="curve"/>
      <point x="323" y="349"/>
      <point x="346" y="299"/>
      <point x="346" y="237" type="curve" smooth="yes"/>
      <point x="346" y="159"/>
      <point x="301" y="16"/>
      <point x="216" y="16" type="curve" smooth="yes"/>
      <point x="176" y="16"/>
      <point x="114" y="42"/>
      <point x="114" y="134" type="curve" smooth="yes"/>
      <point x="114" y="186"/>
      <point x="144" y="370"/>
    </contour>
  </outline>
</glyph>
<glyph name="epsilon" format="2">
  <advance width="490"/>
  <unicode hex="03B5"/>
  <outline>
    <contour>
      <point x="146" y="224" type="curve"/>
      <point x="181" y="209"/>
      <point x="211" y="209"/>
      <point x="238" y="209" type="curve" smooth="yes"/>
      <point x="269" y="209"/>
      <point x="325" y="209"/>
      <point x="325" y="245" type="curve" smooth="yes"/>
      <point x="325" y="271"/>
      <point x="287" y="275"/>
      <point x="248" y="275" type="curve" smooth="yes"/>
      <point x="196" y="275"/>
      <point x="169" y="264"/>
      <point x="148" y="255" type="curve"/>
      <point x="134" y="262"/>
      <point x="109" y="281"/>
      <point x="109" y="309" type="curve" smooth="yes"/>
      <point x="109" y="362"/>
      <point x="202" y="399"/>
      <point x="302" y="399" type="curve" smooth="yes"/>
      <point x="333" y="399"/>
      <point x="364" y="394"/>
      <point x="400" y="371" type="curve" smooth="yes"/>
      <point x="410" y="364"/>
      <point x="412" y="362"/>
      <point x="420" y="362" type="curve" smooth="yes"/>
      <point x="434" y="362"/>
      <point x="450" y="377"/>
      <point x="450" y="392" type="curve" smooth="yes"/>
      <point x="450" y="413"/>
      <point x="412" y="429"/>
      <point x="398" y="435" type="curve" smooth="yes"/>
      <point x="358" y="452"/>
      <point x="327" y="452"/>
      <point x="312" y="452" type="curve" smooth="yes"/>
      <point x="193" y="452"/>
      <point x="78" y="385"/>
      <point x="78" y="308" type="curve" smooth="yes"/>
      <point x="78" y="271"/>
      <point x="106" y="247"/>
      <point x="116" y="240" type="curve"/>
      <point x="46" y="195"/>
      <point x="29" y="141"/>
      <point x="29" y="108" type="curve" smooth="yes"/>
      <point x="29" y="40"/>
      <point x="93" y="-21"/>
      <point x="204" y="-21" type="curve" smooth="yes"/>
      <point x="349" y="-21"/>
      <point x="402" y="70"/>
      <point x="402" y="84" type="curve" smooth="yes"/>
      <point x="402" y="91"/>
      <point x="398" y="98"/>
      <point x="389" y="98" type="curve" smooth="yes"/>
      <point x="382" y="98"/>
      <point x="379" y="94"/>
      <point x="375" y="88" type="curve" smooth="yes"/>
      <point x="360" y="64"/>
      <point x="339" y="32"/>
      <point x="215" y="32" type="curve" smooth="yes"/>
      <point x="189" y="32"/>
      <point x="61" y="32"/>
      <point x="61" y="114" type="curve" smooth="yes"/>
      <point x="61" y="144"/>
      <point x="84" y="190"/>
    </contour>
    <contour>
      <point x="289" y="242" type="line"/>
      <point x="274" y="237"/>
      <point x="272" y="237"/>
      <point x="238" y="237" type="curve" smooth="yes"/>
      <point x="227" y="237"/>
      <point x="206" y="237"/>
      <point x="191" y="240" type="curve"/>
      <point x="215" y="246"/>
      <point x="237" y="247"/>
      <point x="246" y="247" type="curve" smooth="yes"/>
      <point x="264" y="247"/>
      <point x="276" y="245"/>
      <point x="289" y="243" type="curve"/>
    </contour>
  </outline>
</glyph>
